<?xml version="1.0" encoding="utf-8"?>
<!-- Generator: Adobe Illustrator 22.1.0, SVG Export Plug-In . SVG Version: 6.00 Build 0)  -->
<svg version="1.1" id="Icon_Set" xmlns="http://www.w3.org/2000/svg" xmlns:xlink="http://www.w3.org/1999/xlink" x="0px" y="0px"
	 viewBox="0 0 512 512" style="enable-background:new 0 0 512 512;" xml:space="preserve">
<style type="text/css">
	.st0{fill:#F0C48A;}
	.st1{fill:#FD919E;}
	.st2{fill:#4C4372;}
	.st3{fill:#D3E6F8;}
	.st4{fill:#A4CFF2;}
	.st5{fill:#7BABF1;}
	.st6{fill:#FFFFFF;}
	.st7{fill:#E8677D;}
	.st8{fill:none;stroke:#4C4372;stroke-width:12;stroke-linecap:round;stroke-linejoin:round;stroke-miterlimit:10;}
</style>
<g id="Addiction">
	<g>
		<g>
			<circle class="st0" cx="256" cy="256" r="207"/>
		</g>
	</g>
	<g>
		<g>
			<g>
				<path class="st4" d="M153.269,385.274l-37.679-37.679c-6.06-6.06-6.06-15.884,0-21.944l0,0c6.06-6.06,15.884-6.06,21.944,0
					l37.679,37.679c6.06,6.06,6.06,15.884,0,21.944l0,0C169.153,391.334,159.329,391.334,153.269,385.274z"/>
			</g>
			<g>
				<path class="st4" d="M226.324,343.669l-69.128-69.128c-6.06-6.06-6.06-15.884,0-21.944l0,0c6.06-6.06,15.884-6.06,21.944,0
					l69.128,69.128c6.06,6.06,6.06,15.884,0,21.944l0,0C242.208,349.729,232.383,349.729,226.324,343.669z"/>
			</g>
			<g>
				<path class="st5" d="M248.268,321.725l-23.459-23.459l-21.944,21.944l23.459,23.459c6.059,6.059,15.884,6.06,21.943,0l0,0
					C254.327,337.61,254.327,327.785,248.268,321.725z"/>
			</g>
			<g>
				<path class="st5" d="M175.213,363.331l-7.735-7.735l-20.894,20.894l12.395,12.395c5.48,1.972,11.843,0.78,16.234-3.611l0,0
					C181.272,379.215,181.272,369.39,175.213,363.331z"/>
			</g>
			<g>
				
					<rect x="159.115" y="301.776" transform="matrix(0.7071 0.7071 -0.7071 0.7071 282.064 -27.3666)" class="st5" width="29.903" height="50.044"/>
			</g>
			<g>
				<path class="st3" d="M238.639,312.097l-49.872-49.872l103.056-103.056c5.001-5.001,13.11-5.001,18.112,0l31.76,31.76
					c5.001,5.001,5.001,13.11,0,18.112L238.639,312.097z"/>
			</g>
			<g>
				<path class="st4" d="M341.695,190.929l-13.831-13.831c5.001,5.001,5.001,13.11,0,18.112L224.809,298.266l13.831,13.831
					l103.056-103.056C346.697,204.04,346.697,195.931,341.695,190.929z"/>
			</g>
			<g>
				<path class="st1" d="M341.695,190.929l-31.76-31.76c-5.001-5.001-13.11-5.001-18.112,0l-46.109,46.109l49.872,49.872
					l46.109-46.109C346.697,204.04,346.697,195.931,341.695,190.929z"/>
			</g>
			<g>
				<path class="st7" d="M341.695,190.929l-13.831-13.831c5.001,5.001,5.001,13.11,0,18.112l-46.109,46.109l13.831,13.831
					l46.109-46.109C346.697,204.04,346.697,195.931,341.695,190.929z"/>
			</g>
			<g>
				<path class="st7" d="M349.114,151.751L349.114,151.751c-7.639-7.639-20.023-7.639-27.662,0l-9.468,9.468l27.662,27.662
					l9.468-9.468C356.752,171.774,356.752,159.389,349.114,151.751z"/>
			</g>
			<g>
				<path class="st2" d="M238.639,318.098c-1.592,0-3.117-0.632-4.243-1.758l-49.871-49.872c-2.343-2.343-2.343-6.142,0.001-8.484
					L287.58,154.927c7.334-7.331,19.266-7.333,26.598-0.001l31.76,31.761c7.332,7.333,7.332,19.264,0.001,26.597L242.881,316.34
					C241.756,317.466,240.229,318.098,238.639,318.098z M197.253,262.226l41.386,41.387l98.814-98.813
					c2.653-2.654,2.653-6.974-0.001-9.628l-31.759-31.76c-2.654-2.653-6.974-2.652-9.628,0.001L197.253,262.226z"/>
			</g>
			<g>
				<path class="st2" d="M237.296,354.204c-5.511,0-11.021-2.098-15.215-6.293l-69.128-69.128
					c-4.064-4.063-6.303-9.467-6.303-15.214c0-5.748,2.238-11.151,6.303-15.215c8.389-8.389,22.039-8.39,30.428-0.001l69.129,69.13
					c8.39,8.389,8.39,22.039,0,30.428C248.315,352.106,242.806,354.204,237.296,354.204z M168.167,254.057
					c-2.438,0-4.874,0.928-6.729,2.783c-3.71,3.71-3.71,9.748,0,13.459l69.128,69.128c3.711,3.709,9.749,3.707,13.46,0
					c3.71-3.711,3.71-9.748,0-13.459l-69.129-69.129C173.041,254.984,170.604,254.057,168.167,254.057z"/>
			</g>
			<g>
				<path class="st2" d="M164.241,395.809c-5.51,0-11.02-2.097-15.214-6.292v0.001l-37.68-37.679c-8.39-8.39-8.39-22.041,0-30.43
					c8.389-8.391,22.039-8.391,30.428,0l37.68,37.68c8.39,8.389,8.39,22.039,0,30.428
					C175.261,393.712,169.751,395.809,164.241,395.809z M126.562,327.106c-2.542,0-4.932,0.99-6.729,2.787
					c-1.797,1.798-2.787,4.188-2.787,6.729c0,2.543,0.99,4.933,2.787,6.73l37.68,37.678c0,0.001,0,0.001,0,0.001
					c1.798,1.797,4.188,2.787,6.729,2.787s4.932-0.99,6.729-2.787c1.797-1.798,2.787-4.188,2.787-6.729s-0.99-4.932-2.787-6.729
					l-37.68-37.68C131.493,328.097,129.104,327.106,126.562,327.106z"/>
			</g>
			<g>
				<path class="st2" d="M166.945,361.063c-1.535,0-3.071-0.586-4.242-1.758l-21.145-21.145c-2.344-2.343-2.344-6.142,0-8.484
					l35.387-35.387c2.342-2.344,6.143-2.344,8.484,0l21.145,21.145c2.344,2.343,2.344,6.142,0,8.484l-35.387,35.387
					C170.017,360.478,168.48,361.063,166.945,361.063z M154.286,333.919l12.659,12.659l26.901-26.901l-12.659-12.659
					L154.286,333.919z"/>
			</g>
			<g>
				<path class="st2" d="M339.646,194.88c-1.535,0-3.071-0.586-4.242-1.757l-27.662-27.661c-1.126-1.126-1.758-2.651-1.758-4.243
					c0-1.591,0.632-3.117,1.758-4.242l9.468-9.468c9.965-9.967,26.182-9.967,36.146,0c0.001,0,0.001,0,0.001,0
					c9.964,9.965,9.964,26.181,0,36.146l-9.469,9.468C342.718,194.294,341.182,194.88,339.646,194.88z M320.47,161.219
					l19.177,19.176l5.226-5.225c5.285-5.287,5.285-13.89-0.001-19.177c-5.285-5.287-13.89-5.287-19.177,0L320.47,161.219z"/>
			</g>
			<g>
				<path class="st2" d="M349.114,157.751c-1.535,0-3.071-0.586-4.242-1.757c-2.344-2.344-2.344-6.143-0.001-8.485l29.569-29.57
					c2.344-2.344,6.144-2.343,8.485-0.001c2.344,2.344,2.344,6.143,0.001,8.485l-29.569,29.57
					C352.186,157.165,350.649,157.751,349.114,157.751z"/>
			</g>
			<g>
				<path class="st2" d="M295.586,261.15c-1.535,0-3.071-0.586-4.242-1.758l-49.872-49.872c-1.126-1.125-1.758-2.651-1.758-4.242
					c0-1.592,0.632-3.117,1.758-4.243l46.11-46.109c7.332-7.329,19.262-7.332,26.596,0l31.76,31.761
					c7.333,7.332,7.333,19.264,0,26.597l-46.109,46.109C298.657,260.564,297.121,261.15,295.586,261.15z M254.199,205.278
					l41.387,41.387l41.867-41.866c2.653-2.654,2.653-6.974,0-9.628l-31.76-31.76c-2.654-2.652-6.973-2.652-9.627,0L254.199,205.278z
					"/>
			</g>
			<g>
				<path class="st2" d="M293.077,188.642c-1.535,0-3.071-0.586-4.242-1.758l-12.363-12.363c-2.344-2.343-2.344-6.142,0-8.484
					c2.342-2.344,6.143-2.344,8.484,0l12.363,12.363c2.344,2.343,2.344,6.142,0,8.484
					C296.148,188.056,294.612,188.642,293.077,188.642z"/>
			</g>
			<g>
				<path class="st2" d="M269.744,211.975c-1.535,0-3.071-0.586-4.242-1.757l-12.363-12.362c-2.344-2.344-2.344-6.143-0.001-8.485
					c2.344-2.344,6.144-2.343,8.485-0.001l12.363,12.362c2.344,2.344,2.344,6.143,0.001,8.485
					C272.815,211.389,271.279,211.975,269.744,211.975z"/>
			</g>
			<g>
				<path class="st2" d="M246.41,235.309c-1.536,0-3.071-0.586-4.243-1.758l-12.362-12.363c-2.343-2.343-2.343-6.142,0.001-8.485
					c2.343-2.343,6.143-2.342,8.485,0.001l12.362,12.363c2.343,2.343,2.343,6.142-0.001,8.485
					C249.481,234.723,247.945,235.309,246.41,235.309z"/>
			</g>
			<g>
				<path class="st2" d="M223.077,258.642c-1.536,0-3.071-0.586-4.243-1.758l-12.362-12.363c-2.343-2.343-2.343-6.142,0.001-8.485
					c2.343-2.342,6.143-2.343,8.485,0.001l12.362,12.363c2.343,2.343,2.343,6.142-0.001,8.485
					C226.148,258.056,224.612,258.642,223.077,258.642z"/>
			</g>
		</g>
		<g>
			<g>
				<path class="st1" d="M378.684,276.637L378.684,276.637c-17.119,0-27.818-18.532-19.259-33.357v0l19.259-33.357l19.259,33.357
					l0,0C406.501,258.105,395.802,276.637,378.684,276.637L378.684,276.637z"/>
			</g>
			<g>
				<path class="st2" d="M378.684,282.637c-10.209,0-19.351-5.278-24.455-14.119s-5.104-19.396,0-28.237l19.259-33.357
					c1.072-1.856,3.053-3,5.196-3s4.124,1.144,5.196,3l19.259,33.357c5.104,8.841,5.104,19.396,0,28.237
					S388.893,282.637,378.684,282.637z M378.684,221.923l-14.062,24.357c-2.936,5.084-2.936,11.153,0,16.237
					c2.935,5.084,8.191,8.119,14.062,8.119s11.128-3.035,14.062-8.119c2.936-5.084,2.936-11.153,0-16.237L378.684,221.923z"/>
			</g>
		</g>
	</g>
</g>
</svg>
