<?xml version="1.0" encoding="utf-8"?>
<!-- Generator: Adobe Illustrator 22.1.0, SVG Export Plug-In . SVG Version: 6.00 Build 0)  -->
<svg version="1.1" id="Icon_Set" xmlns="http://www.w3.org/2000/svg" xmlns:xlink="http://www.w3.org/1999/xlink" x="0px" y="0px"
	 viewBox="0 0 512 512" style="enable-background:new 0 0 512 512;" xml:space="preserve">
<style type="text/css">
	.st0{fill:#F0C48A;}
	.st1{fill:#FD919E;}
	.st2{fill:#4C4372;}
	.st3{fill:#D3E6F8;}
	.st4{fill:#A4CFF2;}
	.st5{fill:#7BABF1;}
	.st6{fill:#FFFFFF;}
	.st7{fill:#E8677D;}
	.st8{fill:none;stroke:#4C4372;stroke-width:12;stroke-linecap:round;stroke-linejoin:round;stroke-miterlimit:10;}
</style>
<g id="Stomach">
	<g>
		<g>
			<circle class="st0" cx="256" cy="256" r="207"/>
		</g>
	</g>
	<g>
		<g>
			<g>
				<path class="st5" d="M325.948,175.365c-2.06,0-4.142-0.582-5.99-1.801l-14.145-9.323
					c-18.582-12.247-29.676-32.845-29.676-55.101v-29.03c0-6.021,4.882-10.903,10.903-10.903s10.903,4.882,10.903,10.903v29.03
					c0,14.901,7.428,28.693,19.869,36.894l14.145,9.323c5.028,3.314,6.417,10.076,3.104,15.104
					C332.966,173.641,329.491,175.365,325.948,175.365z"/>
			</g>
		</g>
		<g>
			<g>
				<path class="st2" d="M325.948,181.365c-3.31,0-6.524-0.966-9.293-2.792l-14.144-9.322
					c-20.271-13.359-32.374-35.831-32.374-60.11V80.111c0-9.32,7.583-16.903,16.903-16.903s16.903,7.583,16.903,16.903v29.029
					c0,12.878,6.419,24.797,17.171,31.884l14.145,9.323c3.77,2.484,6.346,6.288,7.255,10.711s0.041,8.935-2.444,12.704
					C336.936,178.522,331.655,181.365,325.948,181.365z M287.041,75.208c-2.704,0-4.903,2.199-4.903,4.903v29.029
					c0,20.232,10.085,38.958,26.978,50.091l14.145,9.323c0.804,0.53,1.733,0.811,2.688,0.811c1.66,0,3.194-0.824,4.104-2.205
					c0.721-1.095,0.973-2.403,0.709-3.686c-0.264-1.283-1.011-2.387-2.104-3.107l-14.145-9.323
					c-14.131-9.313-22.567-24.979-22.567-41.903V80.111C291.944,77.407,289.745,75.208,287.041,75.208z"/>
			</g>
		</g>
		<g>
			<path class="st1" d="M332.971,152.934c-33.63-5.004-64.951,18.202-69.954,51.833l-1.52,10.213
				c-2.545,17.104-16.371,29.894-33.621,31.104c-32.213,2.259-56.876,28.92-57.236,60.649h-5.819
				c-21.12,0-38.302,17.182-38.302,38.302v46.853c0,6.021,4.882,10.903,10.903,10.903s10.903-4.882,10.903-10.903v-46.853
				c0-9.096,7.4-16.495,16.496-16.495h9.491c3.185,8.774,8.293,16.573,14.782,22.928c12.14,11.888,29.112,18.725,47.397,17.442
				c36.14-2.534,70.691-17.481,97.284-42.084c26.594-24.603,44.177-57.889,49.509-93.724l1.52-10.214
				C389.808,189.257,366.605,157.937,332.971,152.934z"/>
		</g>
		<g>
			<path class="st7" d="M333.775,326.826c26.593-24.603,44.177-57.889,49.508-93.723l1.52-10.214
				c2.601-17.476-2.428-34.318-12.566-47.177c1.727,7.365,2.134,15.168,0.953,23.105l-1.519,10.213
				c-5.332,35.835-22.916,69.121-49.509,93.724c-26.594,24.604-61.144,39.55-97.284,42.084
				c-18.285,1.283-35.257-5.554-47.398-17.442c-0.019-0.018-0.037-0.036-0.056-0.055c-1.348-1.324-3.52,0.087-2.855,1.857
				c3.195,8.505,8.199,16.076,14.524,22.27c12.14,11.888,29.113,18.725,47.398,17.442
				C272.63,366.377,307.181,351.43,333.775,326.826z"/>
		</g>
		<g>
			<path class="st2" d="M137.421,408.792c-9.32,0-16.903-7.583-16.903-16.903v-46.853c0-24.428,19.874-44.302,44.302-44.302h0.147
				c1.464-14.723,7.728-28.563,17.969-39.481c11.675-12.446,27.486-19.959,44.519-21.153c14.421-1.013,25.979-11.705,28.106-26.002
				l1.52-10.213c2.656-17.851,12.104-33.599,26.604-44.343c14.5-10.743,32.317-15.2,50.167-12.542l0,0
				c17.852,2.655,33.6,12.104,44.344,26.604c10.743,14.5,15.197,32.317,12.54,50.168l-1.52,10.214
				c-5.531,37.182-23.774,71.717-51.369,97.245c-27.593,25.528-63.44,41.035-100.939,43.665
				c-19.261,1.343-38.213-5.625-52.015-19.14c-6.177-6.05-11.186-13.319-14.643-21.216h-5.433c-5.787,0-10.496,4.709-10.496,10.496
				v46.853C154.324,401.209,146.741,408.792,137.421,408.792z M164.82,312.734c-17.812,0-32.302,14.49-32.302,32.302v46.853
				c0,2.704,2.2,4.903,4.903,4.903s4.903-2.199,4.903-4.903v-46.853c0-12.404,10.091-22.496,22.496-22.496h9.491
				c2.524,0,4.778,1.58,5.64,3.952c2.81,7.74,7.423,14.895,13.341,20.689c11.352,11.116,26.942,16.852,42.779,15.743
				c34.783-2.438,68.035-16.823,93.629-40.503c25.596-23.68,42.518-55.714,47.649-90.202l1.52-10.214
				c2.185-14.682-1.478-29.334-10.313-41.258c-8.835-11.925-21.787-19.695-36.468-21.879l0,0
				c-14.683-2.184-29.333,1.479-41.257,10.314c-11.925,8.836-19.695,21.786-21.879,36.467l-1.52,10.213
				c-2.961,19.908-19.055,34.797-39.136,36.207c-28.641,2.008-51.332,26.05-51.657,54.732c-0.037,3.287-2.712,5.932-6,5.932H164.82z
				"/>
		</g>
	</g>
</g>
</svg>
