<?xml version="1.0" encoding="iso-8859-1"?>
<!-- Generator: Adobe Illustrator 22.0.1, SVG Export Plug-In . SVG Version: 6.00 Build 0)  -->
<svg version="1.1" id="Icons" xmlns="http://www.w3.org/2000/svg" xmlns:xlink="http://www.w3.org/1999/xlink" x="0px" y="0px"
	 viewBox="0 0 512 512" style="enable-background:new 0 0 512 512;" xml:space="preserve">
<g>
	<path id="XMLID_1686_" style="fill:#FB80A5;" d="M512,255.904c0,70.692-28.654,134.692-74.981,181.019S326.692,511.904,256,511.904
		S121.308,483.25,74.981,436.924S0,326.597,0,255.904S28.654,121.212,74.981,74.885S185.308-0.096,256-0.096
		s134.692,28.654,181.019,74.981S512,185.212,512,255.904z"/>
	<g id="XMLID_1961_">
		<g id="XMLID_2036_">
			<path id="XMLID_1770_" style="fill:#F9B27A;" d="M286.12,186.304l-9.3,7.945l-9.3,7.945l-5.86,5.01l-5.86,5.01
				c-0.37,0.315-0.737,0.63-1.102,0.949c-0.365,0.319-0.728,0.641-1.088,0.971c-1.6,1.4-3.173,2.835-4.717,4.296
				c-1.545,1.461-3.062,2.949-4.552,4.454c-6.755,6.82-12.98,14.128-18.703,21.826s-10.943,15.789-15.688,24.174
				c-2.83,5-6.49,9.473-10.79,13.234c-4.3,3.761-9.24,6.811-14.63,8.966v105.355v105.355c-17.255-5.01-33.76-11.785-49.305-20.119
				s-30.13-18.226-43.545-29.471c-3.61-3.02-7.135-6.14-10.57-9.354s-6.78-6.521-10.03-9.916v-61.52v-61.52
				c0-4.555-1.202-8.943-3.388-12.766s-5.353-7.084-9.283-9.384c-7.35-4.305-13.517-10.405-17.905-17.697
				s-6.995-15.777-7.225-24.852c-0.005-0.09-0.008-0.185-0.009-0.283s-0.001-0.197-0.001-0.297
				c-0.005-0.115-0.008-0.235-0.009-0.356s-0.001-0.244-0.001-0.364v-87.8v-87.8c0-2.615,0.53-5.105,1.487-7.368
				s2.342-4.297,4.052-6.002c1.395-1.395,3.005-2.575,4.779-3.484s3.711-1.546,5.761-1.856c0.455-0.065,0.92-0.115,1.392-0.149
				s0.952-0.051,1.437-0.051c0.11,0,0.218,0,0.325,0.001s0.215,0.004,0.325,0.009c1.965,0.065,3.852,0.433,5.621,1.055
				s3.419,1.5,4.909,2.585c2.345,1.72,4.278,3.97,5.624,6.573s2.106,5.558,2.106,8.688v38.665v38.665
				c0,1.27,0.515,2.418,1.347,3.248s1.982,1.343,3.252,1.343h0.97h0.97c1.275,0,2.427-0.513,3.261-1.343s1.349-1.978,1.349-3.248
				v-48.36v-48.36c0-2.73,0.577-5.328,1.619-7.673s2.546-4.438,4.401-6.158c0.885-0.835,1.85-1.58,2.882-2.225
				s2.132-1.19,3.287-1.625c0.185-0.07,0.368-0.135,0.551-0.196s0.369-0.119,0.559-0.174c0.825-0.265,1.677-0.47,2.552-0.613
				s1.773-0.222,2.688-0.237c3.685-0.075,7.14,0.965,10.077,2.799s5.357,4.461,6.972,7.561c0.715,1.36,1.272,2.81,1.651,4.324
				s0.579,3.091,0.579,4.706v48.115v48.115c0,1.27,0.515,2.418,1.348,3.248s1.983,1.343,3.253,1.343h1.21h1.21
				c1.275,0,2.425-0.513,3.256-1.343c0.831-0.83,1.344-1.978,1.344-3.248v-56.12v-56.12c0-0.225,0.005-0.45,0.014-0.674
				c0.009-0.224,0.021-0.446,0.036-0.666c0.165-2.345,0.758-4.57,1.698-6.6c0.94-2.03,2.228-3.865,3.783-5.43
				c1.72-1.71,3.76-3.095,6.024-4.052s4.751-1.487,7.366-1.487c2.025,0,3.975,0.32,5.804,0.911c1.829,0.591,3.536,1.454,5.076,2.539
				c2.425,1.71,4.43,3.977,5.829,6.616c1.399,2.639,2.191,5.649,2.191,8.844v56.12v56.12c0,0.63,0.128,1.232,0.359,1.782
				c0.231,0.55,0.566,1.047,0.981,1.468c0.42,0.42,0.917,0.755,1.47,0.985c0.553,0.23,1.16,0.355,1.8,0.355
				c1.27,0,2.423-0.513,3.258-1.343s1.353-1.978,1.353-3.248v-48.36v-48.36c0-5.16,2.067-9.84,5.419-13.253
				s7.986-5.557,13.121-5.647c5.3-0.105,10.115,2.09,13.605,5.637s5.655,8.447,5.655,13.752v65.11v65.11
				c0,3.23,1.897,5.72,4.41,6.875s5.64,0.975,8.1-1.135l12.295-10.5l12.295-10.5l3.975-3.395l3.975-3.395
				c0.9-0.78,1.857-1.455,2.856-2.029c0.999-0.574,2.039-1.046,3.104-1.421c3.585-1.27,7.452-1.417,11.077-0.481
				c3.625,0.936,7.007,2.956,9.622,6.021c3.39,3.97,4.85,8.94,4.47,13.764S290.09,182.919,286.12,186.304z"/>
			<path id="XMLID_1730_" style="fill:#F69E68;" d="M91.68,328.944v61.63v61.63c-3.61-3.02-7.135-6.14-10.57-9.354
				s-6.78-6.521-10.03-9.916v-61.52v-61.52c0-4.555-1.202-8.943-3.388-12.766s-5.353-7.084-9.283-9.384
				c-7.35-4.305-13.517-10.405-17.905-17.697s-6.995-15.777-7.225-24.852c-0.005-0.09-0.008-0.185-0.009-0.283
				s-0.001-0.197-0.001-0.297c-0.005-0.115-0.008-0.235-0.009-0.356s-0.001-0.244-0.001-0.364v-87.8v-87.8
				c0-2.615,0.53-5.105,1.487-7.368s2.342-4.297,4.052-6.002c1.395-1.395,3.005-2.575,4.779-3.484s3.711-1.546,5.761-1.856v90.41
				v90.41c0,1.935,0.125,3.855,0.371,5.75s0.614,3.765,1.099,5.6c1.045,3.965,2.63,7.765,4.711,11.291
				c2.081,3.526,4.659,6.779,7.689,9.649c4.54,4.31,8.59,9.04,12.111,14.102s6.514,10.458,8.939,16.098
				c2.42,5.635,4.275,11.515,5.525,17.553S91.68,322.679,91.68,328.944z"/>
			<path id="XMLID_2038_" style="fill:#F69E68;" d="M160.154,255.389c-0.354-0.172-0.706-0.35-1.056-0.535
				c-0.35-0.185-0.699-0.376-1.046-0.573c-8.114-4.614-13.776-12.065-16.399-20.465c-2.623-8.4-2.205-17.75,1.841-26.161
				c4.433-9.213,12.221-15.624,21.139-18.547c8.918-2.923,18.966-2.358,27.92,2.379c0.182,0.096,0.362,0.194,0.542,0.292
				c0.179,0.099,0.358,0.199,0.535,0.3c1.143,0.654,1.517,1.856,1.277,2.908c-0.24,1.052-1.095,1.954-2.41,2.011
				c-6.142,0.266-12.133,2.113-17.36,5.351s-9.689,7.867-12.774,13.697c-3.084,5.829-4.401,12.122-4.138,18.264
				c0.263,6.142,2.105,12.134,5.339,17.362c0.69,1.115,0.427,2.33-0.303,3.124C162.529,255.59,161.333,255.962,160.154,255.389z"/>
			<path id="XMLID_2037_" style="fill:#F69E68;" d="M210.934,179.168c0,0.836-0.116,1.664-0.344,2.48s-0.568,1.621-1.018,2.413
				c-3.527-6.303-13.754-11.843-28.185-15.808c-14.431-3.964-33.066-6.353-53.412-6.353s-38.981,2.389-53.412,6.353
				c-14.431,3.964-24.657,9.505-28.185,15.808c-0.449-0.792-0.79-1.597-1.018-2.413c-0.228-0.816-0.344-1.644-0.344-2.48
				c0-7.473,9.285-14.236,24.298-19.131s35.752-7.922,58.66-7.922s43.647,3.027,58.66,7.922S210.934,171.695,210.934,179.168z"/>
		</g>
		<g id="XMLID_2034_">
			<path id="XMLID_2035_" style="fill:#FFFFFF;" d="M340.882,472.832c-16.879,0-32.185-6.866-43.271-17.952
				s-17.952-26.392-17.952-43.271v-30.306v-30.306c0-6.02-2.449-11.479-6.402-15.432s-9.412-6.402-15.432-6.402h-51.589h-51.589
				c-5.285,0-10.078,2.15-13.549,5.621s-5.621,8.264-5.621,13.549c0,2.071-0.839,3.946-2.197,5.303s-3.232,2.197-5.303,2.197
				s-3.946-0.839-5.303-2.197s-2.197-3.232-2.197-5.303c0-9.421,3.832-17.963,10.019-24.151s14.73-10.019,24.15-10.019h51.589
				h51.589c10.155,0,19.364,4.131,26.034,10.801s10.801,15.879,10.801,26.034v30.306v30.306c0,12.744,5.184,24.299,13.554,32.669
				s19.925,13.554,32.669,13.554s24.3-5.184,32.67-13.554s13.554-19.925,13.554-32.669v-44.974v-44.974
				c0-2.071,0.839-3.946,2.197-5.303s3.232-2.197,5.303-2.197s3.946,0.839,5.303,2.197s2.197,3.232,2.197,5.303v44.974v44.974
				c0,16.879-6.866,32.185-17.952,43.271S357.761,472.832,340.882,472.832z"/>
		</g>
		<g id="XMLID_1985_">
			<path id="XMLID_2033_" style="fill:#98B6D7;" d="M346.209,279.985v-5.076v-5.076h-3.796h-3.796h-0.001h-0.001
				c-0.576,0-1.141-0.043-1.695-0.122c-0.554-0.08-1.095-0.197-1.624-0.345c-0.053-0.015-0.108-0.028-0.162-0.041
				s-0.109-0.026-0.161-0.043c-0.024-0.008-0.048-0.017-0.071-0.026c-0.023-0.009-0.047-0.018-0.071-0.026
				c-1.19-0.386-2.298-0.951-3.295-1.661s-1.883-1.566-2.629-2.537c-0.795-1.033-1.431-2.195-1.868-3.448
				c-0.438-1.254-0.676-2.6-0.676-4.003v-39.732v-39.732h0.001h0.001v-50.934V76.247c0-3.383,1.371-6.446,3.589-8.664
				c2.217-2.217,5.28-3.589,8.664-3.589h3.796h3.796v-5.076v-5.076c0-3.383,1.371-6.446,3.589-8.664s5.28-3.589,8.664-3.589h-17.401
				H323.66c-3.383,0-6.446,1.371-8.664,3.589s-3.589,5.28-3.589,8.664v113.071v113.071c0,3.383,1.371,6.446,3.589,8.664
				s5.28,3.589,8.664,3.589h17.401h17.401c-3.383,0-6.446-1.371-8.664-3.589S346.209,283.368,346.209,279.985z"/>
			<path id="XMLID_2032_" style="fill:#A1C0EA;" d="M478.739,279.985V166.914V53.842c0-3.383-1.371-6.446-3.589-8.664
				s-5.28-3.589-8.664-3.589h-54.012h-54.012c-3.383,0-6.446,1.371-8.664,3.589s-3.589,5.28-3.589,8.664v5.076v5.076h52.66h52.66
				c3.383,0,6.446,1.371,8.664,3.589c2.217,2.217,3.589,5.28,3.589,8.664v50.934v50.934h0.001h0.001v39.732v39.732
				c0,1.403-0.239,2.75-0.676,4.003c-0.437,1.254-1.074,2.415-1.868,3.448c-0.746,0.97-1.632,1.827-2.629,2.537
				s-2.105,1.274-3.295,1.661c-0.024,0.008-0.047,0.017-0.071,0.026c-0.023,0.009-0.047,0.018-0.071,0.026
				c-0.053,0.016-0.107,0.03-0.161,0.043s-0.109,0.026-0.162,0.041c-0.528,0.149-1.07,0.266-1.624,0.345
				c-0.554,0.08-1.119,0.122-1.695,0.122h-0.001h-0.001h-13.409h-13.409c-1.232,0-2.416,0.204-3.522,0.577
				c-1.106,0.374-2.133,0.918-3.054,1.598c-0.461,0.341-0.895,0.716-1.297,1.122c-0.402,0.406-0.773,0.844-1.11,1.309
				c-0.659,0.912-1.185,1.926-1.546,3.015s-0.558,2.253-0.558,3.463v5.66v5.66h26.43h26.43c3.383,0,6.446-1.371,8.664-3.589
				S478.739,283.368,478.739,279.985z"/>
			<path id="XMLID_2031_" style="fill:#A1C0EA;" d="M373.273,273.08c-0.147-0.147-0.298-0.288-0.454-0.424
				c-0.156-0.137-0.315-0.269-0.477-0.399c-0.948-0.757-2.021-1.363-3.184-1.779c-1.163-0.417-2.416-0.644-3.723-0.644h-9.612
				h-9.612v5.076v5.076c0,3.383,1.371,6.446,3.589,8.664s5.28,3.589,8.664,3.589h9.029h9.029v-5.659v-5.659
				c0-1.531-0.31-2.989-0.871-4.315C375.087,275.277,374.276,274.083,373.273,273.08z"/>
			<path id="XMLID_2030_" style="fill:#8AA4BD;" d="M326.364,76.247v50.934v50.934h9.922h9.922v-57.061V63.994h-3.796h-3.796
				c-3.383,0-6.446,1.371-8.664,3.589C327.736,69.8,326.364,72.863,326.364,76.247z"/>
			<path id="XMLID_2029_" style="fill:#95B2D2;" d="M328.907,265.032c0.746,0.97,1.632,1.827,2.629,2.537s2.105,1.274,3.295,1.661
				c-1.189-0.387-2.297-0.951-3.294-1.661C330.539,266.859,329.653,266.003,328.907,265.032z"/>
			<path id="XMLID_2028_" style="fill:#95B2D2;" d="M335.296,269.365c-0.053-0.015-0.108-0.028-0.162-0.041
				c-0.054-0.013-0.108-0.026-0.161-0.043c0.053,0.016,0.107,0.03,0.161,0.043S335.243,269.35,335.296,269.365z"/>
			<path id="XMLID_2027_" style="fill:#95B2D2;" d="M455.315,269.23c1.19-0.386,2.298-0.951,3.295-1.661s1.883-1.566,2.629-2.537
				c-0.746,0.97-1.633,1.826-2.63,2.537C457.613,268.279,456.505,268.843,455.315,269.23z"/>
			<path id="XMLID_2026_" style="fill:#95B2D2;" d="M455.173,269.282c-0.053,0.016-0.107,0.03-0.161,0.043
				c-0.054,0.013-0.109,0.026-0.162,0.041c0.053-0.015,0.108-0.028,0.162-0.041S455.121,269.298,455.173,269.282z"/>
			<path id="XMLID_2025_" style="fill:#95B2D2;" d="M365.437,269.833h-0.001h-0.001c1.307,0,2.56,0.228,3.723,0.644
				c1.163,0.417,2.237,1.023,3.184,1.779c-0.947-0.757-2.021-1.363-3.183-1.779S366.743,269.833,365.437,269.833z"/>
			<path id="XMLID_2023_" style="fill:#95B2D2;" d="M418.137,272.008c0.92-0.68,1.948-1.224,3.054-1.598
				c1.106-0.374,2.289-0.577,3.522-0.577h-0.001h-0.001c-1.232,0-2.415,0.204-3.52,0.577S419.057,271.328,418.137,272.008z"/>
			<path id="XMLID_2022_" style="fill:#95B2D2;" d="M413.627,280.917c0-1.211,0.197-2.375,0.558-3.463s0.887-2.103,1.546-3.015
				c-0.659,0.912-1.185,1.926-1.546,3.014s-0.558,2.252-0.558,3.462V280.917L413.627,280.917z"/>
			<path id="XMLID_2021_" style="fill:#95B2D2;" d="M463.782,178.116v-50.934V76.247c0-3.383-1.371-6.446-3.589-8.664
				c-2.217-2.217-5.28-3.589-8.664-3.589h-52.66h-52.66v57.061v57.061h58.786H463.782z"/>
			<path id="XMLID_2020_" style="fill:#95B2D2;" d="M373.273,273.08c1.003,1.003,1.815,2.197,2.376,3.524
				c0.561,1.326,0.871,2.784,0.871,4.315v5.659v5.659l0,0h0v-5.661v-5.661c0-1.53-0.31-2.987-0.871-4.313
				C375.087,275.277,374.276,274.083,373.273,273.08z"/>
			<path id="XMLID_2018_" style="fill:#E92433;" d="M338.615,269.833h0.001h0.001c-0.576,0-1.142-0.043-1.696-0.122
				c-0.554-0.08-1.096-0.197-1.625-0.345c0.528,0.149,1.07,0.266,1.624,0.345C337.473,269.79,338.039,269.833,338.615,269.833z"/>
			<path id="XMLID_2017_" style="fill:#E92433;" d="M326.364,178.116h-0.001h-0.001v39.732v39.732c0,1.403,0.239,2.75,0.676,4.003
				c0.437,1.254,1.074,2.415,1.868,3.448c-0.794-1.033-1.43-2.194-1.867-3.448s-0.676-2.6-0.676-4.004v-39.732V178.116z"/>
			<path id="XMLID_2016_" style="fill:#E92433;" d="M334.973,269.282c-0.024-0.008-0.048-0.017-0.071-0.026
				c-0.023-0.009-0.047-0.018-0.071-0.026c0.024,0.008,0.047,0.017,0.071,0.026C334.925,269.265,334.948,269.274,334.973,269.282z"
				/>
			<path id="XMLID_2015_" style="fill:#E92433;" d="M455.315,269.23c-0.024,0.008-0.047,0.017-0.071,0.026
				c-0.023,0.009-0.047,0.018-0.071,0.026c0.024-0.008,0.048-0.017,0.071-0.026C455.268,269.247,455.291,269.238,455.315,269.23z"/>
			<path id="XMLID_2014_" style="fill:#E92433;" d="M451.532,269.833c0.576,0,1.141-0.043,1.695-0.122
				c0.554-0.08,1.095-0.197,1.624-0.345c-0.529,0.149-1.071,0.266-1.625,0.345c-0.554,0.08-1.12,0.122-1.696,0.122h0.001H451.532z"
				/>
			<path id="XMLID_2013_" style="fill:#E92433;" d="M415.73,274.439c0.336-0.465,0.707-0.902,1.11-1.309
				c0.402-0.406,0.836-0.781,1.297-1.122c-0.461,0.341-0.895,0.716-1.297,1.122C416.437,273.537,416.066,273.974,415.73,274.439z"/>
			<polygon id="XMLID_2012_" style="fill:#E92433;" points="413.626,280.918 413.626,286.578 413.626,292.237 413.627,292.237 
				413.627,292.237 413.627,286.577 413.627,280.917 413.627,280.918 			"/>
			<path id="XMLID_2011_" style="fill:#E92433;" d="M372.342,272.257c0.162,0.129,0.322,0.262,0.477,0.399
				c0.156,0.137,0.307,0.278,0.454,0.424c-0.147-0.147-0.298-0.288-0.454-0.424C372.663,272.518,372.504,272.386,372.342,272.257z"
				/>
			<path id="XMLID_2010_" style="fill:#E92433;" d="M461.239,265.032c0.795-1.033,1.431-2.195,1.868-3.448
				c0.438-1.254,0.676-2.6,0.676-4.003v-39.732v-39.732h-0.001h-0.001v39.732v39.732c0,1.404-0.239,2.75-0.676,4.004
				S462.033,263.999,461.239,265.032z"/>
			<path id="XMLID_2009_" style="fill:#BC2336;" d="M326.364,257.58c0,1.404,0.239,2.75,0.676,4.004s1.073,2.415,1.867,3.448
				c0.746,0.97,1.633,1.826,2.63,2.537c0.997,0.71,2.105,1.274,3.294,1.661c0.024,0.008,0.047,0.017,0.071,0.026
				c0.023,0.009,0.047,0.018,0.071,0.026c0.053,0.016,0.107,0.03,0.161,0.043c0.054,0.013,0.109,0.026,0.162,0.041
				c0.529,0.149,1.071,0.266,1.625,0.345c0.554,0.08,1.12,0.122,1.696,0.122h3.796h3.796v-45.859v-45.859h-9.922h-9.922v39.732
				V257.58z"/>
			<path id="XMLID_2008_" style="fill:#E92433;" d="M413.627,280.917L413.627,280.917v-0.002c0-1.21,0.196-2.374,0.558-3.462
				s0.887-2.103,1.546-3.014c0.336-0.465,0.707-0.902,1.11-1.309c0.402-0.406,0.836-0.781,1.297-1.122
				c0.92-0.68,1.948-1.224,3.053-1.598s2.288-0.577,3.52-0.577h0.001h0.001h13.409h13.409c0.576,0,1.142-0.043,1.696-0.122
				c0.554-0.08,1.096-0.197,1.625-0.345c0.053-0.015,0.108-0.028,0.162-0.041c0.054-0.013,0.108-0.026,0.161-0.043
				c0.024-0.008,0.048-0.017,0.071-0.026c0.023-0.009,0.047-0.018,0.071-0.026c1.189-0.387,2.297-0.951,3.294-1.661
				c0.997-0.71,1.883-1.566,2.63-2.537c0.794-1.033,1.43-2.194,1.867-3.448s0.676-2.6,0.676-4.004v-39.732v-39.732h-58.786h-58.786
				v45.859v45.859h9.612h9.612h0.001h0.001c1.306,0,2.559,0.228,3.722,0.644s2.236,1.023,3.183,1.779
				c0.162,0.129,0.322,0.262,0.477,0.399c0.156,0.137,0.307,0.278,0.454,0.424c1.003,1.003,1.815,2.197,2.376,3.523
				c0.561,1.326,0.871,2.783,0.871,4.313v5.661v5.661h18.553h18.553v-5.659L413.627,280.917L413.627,280.917L413.627,280.917z"/>
			<path id="XMLID_2007_" style="fill:#8097A9;" d="M412.692,292.235v12.239v12.239c0,3.166-1.284,6.032-3.36,8.105
				s-4.943,3.356-8.109,3.356h-6.618h-6.618c-3.166,0-6.034-1.282-8.109-3.356s-3.36-4.939-3.36-8.105v-12.239v-12.239h18.087
				H412.692z"/>
			<path id="XMLID_2006_" style="fill:#8AA4BD;" d="M412.692,292.235v12.239v12.239c0,3.166-1.284,6.032-3.36,8.105
				s-4.943,3.356-8.109,3.356H399.8h-1.423c-3.166,0-6.034-1.282-8.109-3.356s-3.36-4.939-3.36-8.105v-12.239v-12.239H399.8H412.692
				z"/>
			<path id="XMLID_2005_" style="fill:#B7223C;" d="M346.209,248.362c0,2.707,1.097,5.157,2.871,6.931s4.224,2.871,6.931,2.871
				s5.157-1.097,6.931-2.871s2.871-4.224,2.871-6.931c0-2.707-1.097-5.157-2.871-6.931c-1.774-1.774-4.224-2.871-6.931-2.871
				s-5.157,1.097-6.931,2.871C347.306,243.205,346.209,245.655,346.209,248.362z"/>
			<path id="XMLID_2004_" style="fill:#B7223C;" d="M385.271,203.554c0,2.707,1.097,5.157,2.871,6.931
				c1.774,1.774,4.224,2.871,6.931,2.871s5.157-1.097,6.931-2.871c1.774-1.774,2.871-4.224,2.871-6.931
				c0-2.707-1.097-5.157-2.871-6.931c-1.774-1.774-4.224-2.871-6.931-2.871s-5.157,1.097-6.931,2.871
				C386.368,198.397,385.271,200.847,385.271,203.554z"/>
			<path id="XMLID_2003_" style="fill:#B7223C;" d="M423.078,248.362c0,2.707,1.097,5.157,2.871,6.931
				c1.774,1.774,4.224,2.871,6.931,2.871s5.157-1.097,6.931-2.871c1.774-1.774,2.871-4.224,2.871-6.931
				c0-2.707-1.097-5.157-2.871-6.931c-1.774-1.774-4.224-2.871-6.931-2.871s-5.157,1.097-6.931,2.871
				C424.175,243.205,423.078,245.655,423.078,248.362z"/>
			<path id="XMLID_2002_" style="fill:#B7223C;" d="M425.879,213.356c0,1.933,0.784,3.684,2.051,4.951
				c1.267,1.267,3.017,2.051,4.951,2.051c1.933,0,3.684-0.784,4.951-2.051c1.267-1.267,2.051-3.017,2.051-4.951
				c0-1.933-0.784-3.684-2.051-4.951s-3.017-2.051-4.951-2.051c-1.933,0-3.684,0.784-4.951,2.051
				C426.662,209.672,425.879,211.422,425.879,213.356z"/>
			<path id="XMLID_2001_" style="fill:#B7223C;" d="M388.072,247.662c0,1.933,0.784,3.684,2.051,4.951
				c1.267,1.267,3.017,2.051,4.951,2.051s3.684-0.784,4.951-2.051c1.267-1.267,2.051-3.017,2.051-4.951
				c0-1.933-0.784-3.684-2.051-4.951c-1.267-1.267-3.017-2.051-4.951-2.051s-3.684,0.784-4.951,2.051
				C388.855,243.978,388.072,245.729,388.072,247.662z"/>
			<path id="XMLID_2000_" style="fill:#8AA4BD;" d="M414.678,41.59h-19.605h-19.605v-4.601v-4.601c0-3.452,1.399-6.577,3.661-8.84
				c2.262-2.262,5.388-3.661,8.84-3.661h7.104h7.104c3.452,0,6.577,1.399,8.84,3.661c2.262,2.262,3.661,5.388,3.661,8.84v4.601
				V41.59z"/>
			<path id="XMLID_1999_" style="fill:#79899A;" d="M388.072,30.738c0,1.933,0.784,3.684,2.051,4.951
				c1.267,1.267,3.017,2.051,4.951,2.051s3.684-0.784,4.951-2.051c1.267-1.267,2.051-3.017,2.051-4.951s-0.784-3.684-2.051-4.951
				c-1.267-1.267-3.017-2.051-4.951-2.051s-3.684,0.784-4.951,2.051C388.855,27.055,388.072,28.805,388.072,30.738z"/>
			
				<polyline id="XMLID_1998_" style="fill:none;stroke:#FFFFFF;stroke-width:8;stroke-linecap:round;stroke-miterlimit:10;" points="
				471.154,130.507 459.077,130.507 446.999,130.507 			"/>
			
				<polyline id="XMLID_1997_" style="fill:none;stroke:#FFFFFF;stroke-width:8;stroke-linecap:round;stroke-miterlimit:10;" points="
				471.154,144.159 465.115,144.159 459.077,144.159 			"/>
			
				<polyline id="XMLID_1996_" style="fill:none;stroke:#FFFFFF;stroke-width:8;stroke-linecap:round;stroke-miterlimit:10;" points="
				471.154,158.204 459.077,158.204 446.999,158.204 			"/>
			
				<polyline id="XMLID_1995_" style="fill:none;stroke:#FFFFFF;stroke-width:8;stroke-linecap:round;stroke-miterlimit:10;" points="
				471.154,171.856 465.115,171.856 459.077,171.856 			"/>
			
				<polyline id="XMLID_1994_" style="fill:none;stroke:#FFFFFF;stroke-width:8;stroke-linecap:round;stroke-miterlimit:10;" points="
				471.154,185.467 459.077,185.467 446.999,185.467 			"/>
			
				<polyline id="XMLID_1993_" style="fill:none;stroke:#FFFFFF;stroke-width:8;stroke-linecap:round;stroke-miterlimit:10;" points="
				471.154,199.12 465.115,199.12 459.077,199.12 			"/>
			
				<polyline id="XMLID_1992_" style="fill:none;stroke:#FFFFFF;stroke-width:8;stroke-linecap:round;stroke-miterlimit:10;" points="
				471.154,212.653 459.077,212.653 446.999,212.653 			"/>
			
				<polyline id="XMLID_1991_" style="fill:none;stroke:#FFFFFF;stroke-width:8;stroke-linecap:round;stroke-miterlimit:10;" points="
				471.154,226.306 465.115,226.306 459.077,226.306 			"/>
			
				<polyline id="XMLID_1990_" style="fill:none;stroke:#FFFFFF;stroke-width:8;stroke-linecap:round;stroke-miterlimit:10;" points="
				471.154,240.136 459.077,240.136 446.999,240.136 			"/>
			
				<polyline id="XMLID_1989_" style="fill:none;stroke:#FFFFFF;stroke-width:8;stroke-linecap:round;stroke-miterlimit:10;" points="
				471.154,267.131 459.077,267.131 446.999,267.131 			"/>
			
				<polyline id="XMLID_1988_" style="fill:none;stroke:#FFFFFF;stroke-width:8;stroke-linecap:round;stroke-miterlimit:10;" points="
				471.154,253.788 465.115,253.788 459.077,253.788 			"/>
			<path id="XMLID_1987_" style="fill:#FFFFFF;" d="M433.898,121.055h-38.825h-38.825c-2.32,0-4.421-0.941-5.942-2.461
				c-1.521-1.521-2.461-3.621-2.461-5.942v-12.245V88.162c0-2.32,0.941-4.421,2.461-5.942c1.521-1.521,3.621-2.461,5.942-2.461
				h38.825h38.825c2.32,0,4.421,0.941,5.942,2.461c1.521,1.521,2.461,3.621,2.461,5.942v12.245v12.245
				c0,2.32-0.941,4.421-2.461,5.942C438.319,120.114,436.218,121.055,433.898,121.055z"/>
			<path id="XMLID_1986_" style="fill:#E92433;" d="M384.589,104.24c0,2.766,1.121,5.27,2.934,7.083s4.317,2.934,7.083,2.934
				c2.766,0,5.27-1.121,7.083-2.934s2.934-4.317,2.934-7.083c0-2.124-1.477-5.399-3.297-8.627c-1.82-3.228-3.982-6.409-5.353-8.348
				c-0.333-0.472-0.85-0.707-1.367-0.707s-1.033,0.236-1.367,0.707c-1.37,1.938-3.533,5.12-5.353,8.348
				C386.066,98.841,384.589,102.115,384.589,104.24z"/>
		</g>
		<path id="XMLID_1984_" style="fill:#C9CCCB;" d="M158.829,348.832v13.835v13.835c0,1.61-0.655,3.068-1.712,4.122
			c-1.057,1.055-2.517,1.708-4.127,1.708h-25.165h-25.165c-1.61,0-3.067-0.652-4.122-1.708c-1.055-1.055-1.708-2.512-1.708-4.122
			v-13.835v-13.835c0-1.61,0.653-3.068,1.708-4.123s2.513-1.707,4.122-1.707h25.165h25.165c1.61,0,3.07,0.652,4.127,1.707
			S158.829,347.222,158.829,348.832z"/>
		<path id="XMLID_1983_" style="fill:#FFFFFF;" d="M158.829,348.832v13.835v13.835c0,1.61-0.655,3.068-1.712,4.122
			c-1.057,1.055-2.517,1.708-4.127,1.708h-18h-18c-1.61,0-3.068-0.652-4.123-1.708c-1.055-1.055-1.707-2.512-1.707-4.122v-13.835
			v-13.835c0-1.61,0.652-3.068,1.707-4.123s2.513-1.707,4.123-1.707h18h18c1.61,0,3.07,0.652,4.127,1.707
			S158.829,347.222,158.829,348.832z"/>
		<g id="XMLID_1980_">
			<path id="XMLID_1982_" style="fill:#BC2336;" d="M290.418,93.008c0,6.638-2.221,12.758-5.961,17.657s-8.997,8.575-15.07,10.327
				c-1.284,0.373-2.607,0.659-3.959,0.852c-1.352,0.193-2.734,0.292-4.138,0.292c-8.045,0-15.327-3.259-20.597-8.53
				c-5.271-5.271-8.53-12.553-8.53-20.597c0-6.177,4.295-15.698,9.586-25.085s11.579-18.64,15.567-24.278
				c0.969-1.37,2.471-2.055,3.972-2.055c1.501,0,3.003,0.685,3.972,2.055c0.599,0.847,1.251,1.775,1.942,2.773
				s1.424,2.067,2.185,3.195c4.311,6.369,9.569,14.593,13.749,22.537S290.418,87.758,290.418,93.008z"/>
			<path id="XMLID_1981_" style="fill:#E92433;" d="M290.418,93.008c0,6.638-2.221,12.758-5.961,17.657s-8.997,8.575-15.07,10.327
				c-6.073-1.752-11.329-5.429-15.067-10.327s-5.958-11.018-5.958-17.657c0-5.25,3.102-12.914,7.281-20.858
				c4.179-7.944,9.435-16.168,13.744-22.537c4.311,6.369,9.569,14.593,13.749,22.537S290.418,87.758,290.418,93.008z"/>
		</g>
		<g id="XMLID_1962_">
			<path id="XMLID_1979_" style="fill:#BC2336;" d="M367.744,393.477c0,6.638-2.221,12.758-5.961,17.657
				c-3.74,4.898-8.997,8.575-15.07,10.327c-1.284,0.373-2.607,0.659-3.959,0.852c-1.352,0.193-2.734,0.292-4.138,0.292
				c-8.045,0-15.327-3.259-20.597-8.53c-5.271-5.271-8.53-12.553-8.53-20.597c0-6.177,4.295-15.698,9.586-25.085
				c5.291-9.387,11.579-18.64,15.567-24.278c0.969-1.37,2.471-2.055,3.972-2.055c1.501,0,3.003,0.685,3.972,2.055
				c0.599,0.847,1.251,1.775,1.942,2.773c0.692,0.998,1.424,2.067,2.185,3.195c4.311,6.369,9.569,14.593,13.749,22.537
				C364.642,380.563,367.744,388.227,367.744,393.477z"/>
			<path id="XMLID_1978_" style="fill:#E92433;" d="M367.744,393.477c0,6.638-2.221,12.758-5.961,17.657
				c-3.74,4.898-8.997,8.575-15.07,10.327c-6.073-1.752-11.329-5.429-15.067-10.327c-3.738-4.898-5.958-11.018-5.958-17.657
				c0-5.25,3.102-12.914,7.281-20.858c4.179-7.944,9.435-16.168,13.744-22.537c4.311,6.369,9.569,14.593,13.749,22.537
				C364.642,380.563,367.744,388.227,367.744,393.477z"/>
		</g>
	</g>
</g>
</svg>
