<?xml version="1.0" encoding="utf-8"?>
<!-- Generator: Adobe Illustrator 22.1.0, SVG Export Plug-In . SVG Version: 6.00 Build 0)  -->
<svg version="1.1" id="Icon_Set" xmlns="http://www.w3.org/2000/svg" xmlns:xlink="http://www.w3.org/1999/xlink" x="0px" y="0px"
	 viewBox="0 0 512 512" style="enable-background:new 0 0 512 512;" xml:space="preserve">
<style type="text/css">
	.st0{fill:#F0C48A;}
	.st1{fill:#FD919E;}
	.st2{fill:#4C4372;}
	.st3{fill:#D3E6F8;}
	.st4{fill:#A4CFF2;}
	.st5{fill:#7BABF1;}
	.st6{fill:#FFFFFF;}
	.st7{fill:#E8677D;}
	.st8{fill:none;stroke:#4C4372;stroke-width:12;stroke-linecap:round;stroke-linejoin:round;stroke-miterlimit:10;}
</style>
<g id="Spine">
	<g>
		<g>
			<circle class="st0" cx="256" cy="256" r="207"/>
		</g>
	</g>
	<g>
		<g>
			<rect x="227.39" y="101.142" class="st5" width="58.891" height="301.421"/>
		</g>
		<g>
			<g>
				<g>
					<path class="st6" d="M325.749,94.275h-15.722v-9.354c0-6.888-5.584-12.473-12.473-12.473h-19.128c-4.33,0-7.84,3.51-7.84,7.839
						s-3.51,7.839-7.839,7.839h-13.495c-4.33,0-7.839-3.51-7.839-7.839s-3.51-7.839-7.839-7.839h-19.127
						c-6.889,0-12.473,5.585-12.473,12.473v9.354h-15.722c-7.119,0-12.891,5.771-12.891,12.892l0,0
						c0,7.119,5.772,12.891,12.891,12.891h15.954c1.795,14.547,14.188,25.812,29.221,25.812h49.147
						c15.033,0,27.426-11.265,29.221-25.812h15.954c7.119,0,12.891-5.771,12.891-12.891l0,0
						C338.64,100.046,332.868,94.275,325.749,94.275z"/>
				</g>
				<g>
					<path class="st3" d="M325.749,94.275h-15.722v-9.354c0-6.888-5.584-12.473-12.473-12.473h-11.273v72.863
						c12.365-2.43,21.951-12.598,23.513-25.255h15.954c7.119,0,12.891-5.771,12.891-12.891
						C338.64,100.046,332.868,94.275,325.749,94.275z"/>
				</g>
				<g>
					<path class="st2" d="M280.573,151.869h-49.147c-16.048,0-29.882-10.779-34.116-25.812h-11.059
						c-10.416,0-18.891-8.475-18.891-18.891c0-10.417,8.475-18.892,18.891-18.892h9.723v-3.354c0-10.186,8.287-18.473,18.473-18.473
						h19.127c7.631,0,13.84,6.209,13.84,13.84c0,1.015,0.825,1.84,1.839,1.84h13.496c1.014,0,1.839-0.825,1.839-1.84
						c0-7.631,6.209-13.84,13.84-13.84h19.128c10.186,0,18.472,8.287,18.472,18.473v3.354h9.723
						c10.416,0,18.891,8.475,18.891,18.892c0,10.416-8.475,18.891-18.891,18.891H314.69
						C310.455,141.089,296.621,151.869,280.573,151.869z M186.251,100.274c-3.8,0-6.891,3.092-6.891,6.892s3.091,6.891,6.891,6.891
						h15.954c3.029,0,5.584,2.259,5.955,5.266c1.445,11.714,11.447,20.547,23.266,20.547h49.147c11.818,0,21.82-8.834,23.267-20.548
						c0.371-3.007,2.926-5.265,5.955-5.265h15.954c3.8,0,6.891-3.091,6.891-6.891s-3.091-6.892-6.891-6.892h-15.723
						c-3.313,0-6-2.687-6-6v-9.354c0-3.569-2.903-6.473-6.472-6.473h-19.128c-1.015,0-1.84,0.825-1.84,1.84
						c0,7.631-6.208,13.84-13.839,13.84h-13.496c-7.631,0-13.839-6.209-13.839-13.84c0-1.015-0.825-1.84-1.84-1.84h-19.127
						c-3.569,0-6.473,2.903-6.473,6.473v9.354c0,3.313-2.687,6-6,6H186.251z"/>
				</g>
				<g>
					<path class="st2" d="M227.391,150.764c-3.313,0-6-2.687-6-6v-35.604c0-3.313,2.687-6,6-6s6,2.687,6,6v35.604
						C233.391,148.077,230.704,150.764,227.391,150.764z"/>
				</g>
			</g>
			<g>
				<g>
					<path class="st6" d="M325.749,167.695h-15.722v-9.354c0-6.888-5.584-12.473-12.473-12.473h-19.128
						c-4.33,0-7.84,3.51-7.84,7.839s-3.51,7.839-7.839,7.839h-13.495c-4.33,0-7.839-3.51-7.839-7.839s-3.51-7.839-7.839-7.839
						h-19.127c-6.889,0-12.473,5.585-12.473,12.473v9.354h-15.722c-7.119,0-12.891,5.771-12.891,12.892l0,0
						c0,7.119,5.772,12.891,12.891,12.891h15.954c1.795,14.547,14.188,25.812,29.221,25.812h49.147
						c15.033,0,27.426-11.265,29.221-25.812h15.954c7.119,0,12.891-5.771,12.891-12.891l0,0
						C338.64,173.467,332.868,167.695,325.749,167.695z"/>
				</g>
				<g>
					<path class="st3" d="M325.749,167.695h-15.722v-9.354c0-6.888-5.584-12.473-12.473-12.473h-11.273v72.863
						c12.365-2.43,21.951-12.598,23.513-25.255h15.954c7.119,0,12.891-5.771,12.891-12.891
						C338.64,173.467,332.868,167.695,325.749,167.695z"/>
				</g>
				<g>
					<path class="st2" d="M280.573,225.29h-49.147c-16.048,0-29.882-10.779-34.116-25.812h-11.059
						c-10.416,0-18.891-8.475-18.891-18.891c0-10.417,8.475-18.892,18.891-18.892h9.723v-3.354c0-10.186,8.287-18.473,18.473-18.473
						h19.127c7.631,0,13.84,6.209,13.84,13.84c0,1.014,0.825,1.839,1.839,1.839h13.496c1.014,0,1.839-0.825,1.839-1.839
						c0-7.631,6.209-13.84,13.84-13.84h19.128c10.186,0,18.472,8.287,18.472,18.473v3.354h9.723
						c10.416,0,18.891,8.475,18.891,18.892c0,10.416-8.475,18.891-18.891,18.891H314.69
						C310.455,214.511,296.621,225.29,280.573,225.29z M186.251,173.695c-3.8,0-6.891,3.092-6.891,6.892s3.091,6.891,6.891,6.891
						h15.954c3.029,0,5.584,2.259,5.955,5.266c1.445,11.714,11.447,20.547,23.266,20.547h49.147c11.818,0,21.82-8.834,23.267-20.548
						c0.371-3.007,2.926-5.265,5.955-5.265h15.954c3.8,0,6.891-3.091,6.891-6.891s-3.091-6.892-6.891-6.892h-15.723
						c-3.313,0-6-2.687-6-6v-9.354c0-3.569-2.903-6.473-6.472-6.473h-19.128c-1.015,0-1.84,0.825-1.84,1.84
						c0,7.631-6.208,13.839-13.839,13.839h-13.496c-7.631,0-13.839-6.208-13.839-13.839c0-1.015-0.825-1.84-1.84-1.84h-19.127
						c-3.569,0-6.473,2.903-6.473,6.473v9.354c0,3.313-2.687,6-6,6H186.251z"/>
				</g>
				<g>
					<path class="st2" d="M227.391,224.184c-3.313,0-6-2.687-6-6v-35.604c0-3.313,2.687-6,6-6s6,2.687,6,6v35.604
						C233.391,221.497,230.704,224.184,227.391,224.184z"/>
				</g>
			</g>
			<g>
				<g>
					<path class="st6" d="M325.749,241.116h-15.722v-9.354c0-6.888-5.584-12.473-12.473-12.473h-19.128
						c-4.33,0-7.84,3.51-7.84,7.839c0,4.33-3.51,7.839-7.839,7.839h-13.495c-4.33,0-7.839-3.51-7.839-7.839
						c0-4.33-3.51-7.839-7.839-7.839h-19.127c-6.889,0-12.473,5.585-12.473,12.473v9.354h-15.722
						c-7.119,0-12.891,5.771-12.891,12.892l0,0c0,7.119,5.772,12.891,12.891,12.891h15.954
						c1.795,14.547,14.188,25.812,29.221,25.812h49.147c15.033,0,27.426-11.265,29.221-25.812h15.954
						c7.119,0,12.891-5.771,12.891-12.891l0,0C338.64,246.887,332.868,241.116,325.749,241.116z"/>
				</g>
				<g>
					<path class="st3" d="M325.749,241.116h-15.722v-9.354c0-6.888-5.584-12.473-12.473-12.473h-11.273v72.863
						c12.365-2.43,21.951-12.598,23.513-25.255h15.954c7.119,0,12.891-5.771,12.891-12.891
						C338.64,246.887,332.868,241.116,325.749,241.116z"/>
				</g>
				<g>
					<path class="st2" d="M280.573,298.71h-49.147c-16.048,0-29.882-10.779-34.116-25.812h-11.059
						c-10.416,0-18.891-8.475-18.891-18.891c0-10.417,8.475-18.892,18.891-18.892h9.723v-3.354c0-10.186,8.287-18.473,18.473-18.473
						h19.127c7.631,0,13.84,6.208,13.84,13.839c0,1.015,0.825,1.84,1.839,1.84h13.496c1.014,0,1.839-0.825,1.839-1.84
						c0-7.631,6.209-13.839,13.84-13.839h19.128c10.186,0,18.472,8.287,18.472,18.473v3.354h9.723
						c10.416,0,18.891,8.475,18.891,18.892c0,10.416-8.475,18.891-18.891,18.891H314.69
						C310.455,287.931,296.621,298.71,280.573,298.71z M186.251,247.116c-3.8,0-6.891,3.092-6.891,6.892s3.091,6.891,6.891,6.891
						h15.954c3.029,0,5.584,2.259,5.955,5.266c1.445,11.713,11.447,20.546,23.266,20.546h49.147c11.818,0,21.82-8.833,23.267-20.547
						c0.371-3.007,2.926-5.265,5.955-5.265h15.954c3.8,0,6.891-3.091,6.891-6.891s-3.091-6.892-6.891-6.892h-15.723
						c-3.313,0-6-2.687-6-6v-9.354c0-3.569-2.903-6.473-6.472-6.473h-19.128c-1.015,0-1.84,0.825-1.84,1.839
						c0,7.631-6.208,13.84-13.839,13.84h-13.496c-7.631,0-13.839-6.209-13.839-13.84c0-1.014-0.825-1.839-1.84-1.839h-19.127
						c-3.569,0-6.473,2.903-6.473,6.473v9.354c0,3.313-2.687,6-6,6H186.251z"/>
				</g>
				<g>
					<path class="st2" d="M227.391,297.604c-3.313,0-6-2.687-6-6V256c0-3.313,2.687-6,6-6s6,2.687,6,6v35.604
						C233.391,294.918,230.704,297.604,227.391,297.604z"/>
				</g>
			</g>
			<g>
				<g>
					<path class="st6" d="M325.749,314.536h-15.722v-9.354c0-6.888-5.584-12.473-12.473-12.473h-19.128c-4.33,0-7.84,3.51-7.84,7.84
						s-3.51,7.839-7.839,7.839h-13.495c-4.33,0-7.839-3.51-7.839-7.839s-3.51-7.84-7.839-7.84h-19.127
						c-6.889,0-12.473,5.585-12.473,12.473v9.354h-15.722c-7.119,0-12.891,5.771-12.891,12.892l0,0
						c0,7.119,5.772,12.891,12.891,12.891h15.954c1.795,14.547,14.188,25.812,29.221,25.812h49.147
						c15.033,0,27.426-11.265,29.221-25.812h15.954c7.119,0,12.891-5.771,12.891-12.891l0,0
						C338.64,320.308,332.868,314.536,325.749,314.536z"/>
				</g>
				<g>
					<path class="st3" d="M325.749,314.536h-15.722v-9.354c0-6.888-5.584-12.473-12.473-12.473h-11.273v72.863
						c12.365-2.43,21.951-12.598,23.513-25.255h15.954c7.119,0,12.891-5.771,12.891-12.891
						C338.64,320.308,332.868,314.536,325.749,314.536z"/>
				</g>
				<g>
					<path class="st2" d="M280.573,372.131h-49.147c-16.049,0-29.883-10.779-34.117-25.812h-11.058
						c-10.416,0-18.891-8.475-18.891-18.891c0-10.417,8.475-18.892,18.891-18.892h9.723v-3.354c0-10.186,8.287-18.473,18.473-18.473
						h19.127c7.631,0,13.84,6.209,13.84,13.84c0,1.015,0.825,1.84,1.839,1.84h13.496c1.014,0,1.839-0.825,1.839-1.84
						c0-7.631,6.209-13.84,13.84-13.84h19.128c10.186,0,18.472,8.287,18.472,18.473v3.354h9.723
						c10.416,0,18.891,8.475,18.891,18.892c0,10.416-8.475,18.891-18.891,18.891H314.69
						C310.455,361.352,296.621,372.131,280.573,372.131z M186.251,320.536c-3.8,0-6.891,3.092-6.891,6.892s3.091,6.891,6.891,6.891
						h15.954c3.029,0,5.584,2.259,5.955,5.266c1.445,11.714,11.447,20.547,23.266,20.547h49.147c11.818,0,21.82-8.834,23.267-20.548
						c0.371-3.007,2.926-5.265,5.955-5.265h15.954c3.8,0,6.891-3.091,6.891-6.891s-3.091-6.892-6.891-6.892h-15.723
						c-3.313,0-6-2.687-6-6v-9.354c0-3.569-2.903-6.473-6.472-6.473h-19.128c-1.015,0-1.84,0.825-1.84,1.84
						c0,7.631-6.208,13.84-13.839,13.84h-13.496c-7.631,0-13.839-6.209-13.839-13.84c0-1.015-0.825-1.84-1.84-1.84h-19.127
						c-3.569,0-6.473,2.903-6.473,6.473v9.354c0,3.313-2.687,6-6,6H186.251z"/>
				</g>
				<g>
					<path class="st2" d="M227.391,371.025c-3.313,0-6-2.687-6-6v-35.604c0-3.313,2.687-6,6-6s6,2.687,6,6v35.604
						C233.391,368.339,230.704,371.025,227.391,371.025z"/>
				</g>
			</g>
			<g>
				<g>
					<path class="st6" d="M325.749,387.957h-15.722v-9.354c0-6.888-5.584-12.473-12.473-12.473h-19.128c-4.33,0-7.84,3.51-7.84,7.84
						s-3.51,7.84-7.839,7.84h-13.495c-4.33,0-7.839-3.51-7.839-7.84s-3.51-7.84-7.839-7.84h-19.127
						c-6.889,0-12.473,5.585-12.473,12.473v9.354h-15.722c-7.119,0-12.891,5.771-12.891,12.892l0,0
						c0,7.119,5.772,12.891,12.891,12.891h15.954c1.795,14.547,14.188,25.812,29.221,25.812h49.147
						c15.033,0,27.426-11.265,29.221-25.812h15.954c7.119,0,12.891-5.771,12.891-12.891l0,0
						C338.64,393.728,332.868,387.957,325.749,387.957z"/>
				</g>
				<g>
					<path class="st3" d="M325.749,387.957h-15.722v-9.354c0-6.888-5.584-12.473-12.473-12.473h-11.273v72.863
						c12.365-2.43,21.951-12.598,23.513-25.255h15.954c7.119,0,12.891-5.771,12.891-12.891
						C338.64,393.728,332.868,387.957,325.749,387.957z"/>
				</g>
				<g>
					<path class="st2" d="M280.573,445.552h-49.147c-16.048,0-29.882-10.779-34.116-25.812h-11.059
						c-10.416,0-18.891-8.475-18.891-18.891c0-10.417,8.475-18.892,18.891-18.892h9.723v-3.354c0-10.186,8.287-18.473,18.473-18.473
						h19.127c7.631,0,13.84,6.209,13.84,13.84c0,1.014,0.825,1.839,1.839,1.839h13.496c1.014,0,1.839-0.825,1.839-1.839
						c0-7.631,6.209-13.84,13.84-13.84h19.128c10.186,0,18.472,8.287,18.472,18.473v3.354h9.723
						c10.416,0,18.891,8.475,18.891,18.892c0,10.416-8.475,18.891-18.891,18.891H314.69
						C310.455,434.772,296.621,445.552,280.573,445.552z M186.251,393.957c-3.8,0-6.891,3.092-6.891,6.892s3.091,6.891,6.891,6.891
						h15.954c3.029,0,5.584,2.259,5.955,5.266c1.445,11.714,11.447,20.547,23.266,20.547h49.147c11.818,0,21.82-8.834,23.267-20.548
						c0.371-3.007,2.926-5.265,5.955-5.265h15.954c3.8,0,6.891-3.091,6.891-6.891s-3.091-6.892-6.891-6.892h-15.723
						c-3.313,0-6-2.687-6-6v-9.354c0-3.569-2.903-6.473-6.472-6.473h-19.128c-1.015,0-1.84,0.825-1.84,1.84
						c0,7.631-6.208,13.839-13.839,13.839h-13.496c-7.631,0-13.839-6.208-13.839-13.839c0-1.015-0.825-1.84-1.84-1.84h-19.127
						c-3.569,0-6.473,2.903-6.473,6.473v9.354c0,3.313-2.687,6-6,6H186.251z"/>
				</g>
				<g>
					<path class="st2" d="M227.391,444.445c-3.313,0-6-2.687-6-6v-35.604c0-3.313,2.687-6,6-6s6,2.687,6,6v35.604
						C233.391,441.759,230.704,444.445,227.391,444.445z"/>
				</g>
			</g>
		</g>
	</g>
</g>
</svg>
