<?xml version="1.0" encoding="utf-8"?>
<!-- Generator: Adobe Illustrator 22.1.0, SVG Export Plug-In . SVG Version: 6.00 Build 0)  -->
<svg version="1.1" id="Icon_Set" xmlns="http://www.w3.org/2000/svg" xmlns:xlink="http://www.w3.org/1999/xlink" x="0px" y="0px"
	 viewBox="0 0 512 512" style="enable-background:new 0 0 512 512;" xml:space="preserve">
<style type="text/css">
	.st0{fill:#F0C48A;}
	.st1{fill:#FD919E;}
	.st2{fill:#4C4372;}
	.st3{fill:#D3E6F8;}
	.st4{fill:#A4CFF2;}
	.st5{fill:#7BABF1;}
	.st6{fill:#FFFFFF;}
	.st7{fill:#E8677D;}
	.st8{fill:none;stroke:#4C4372;stroke-width:12;stroke-linecap:round;stroke-linejoin:round;stroke-miterlimit:10;}
</style>
<g id="Urine_Sample">
	<g>
		<g>
			<circle class="st0" cx="256" cy="256" r="207"/>
		</g>
	</g>
	<g>
		<g>
			<rect x="156.928" y="182.091" class="st3" width="198.144" height="227.103"/>
		</g>
		<g>
			<rect x="316.852" y="182.091" class="st4" width="38.22" height="227.103"/>
		</g>
		<g>
			<rect x="179.789" y="204.475" class="st6" width="66.336" height="39.886"/>
		</g>
		<g>
			<rect x="127.799" y="122.805" class="st4" width="256.401" height="59.286"/>
		</g>
		<g>
			<rect x="316.852" y="122.805" class="st5" width="67.349" height="59.286"/>
		</g>
		<g>
			<path class="st2" d="M384.2,188.092H127.8c-3.313,0-6-2.687-6-6v-59.286c0-3.313,2.687-6,6-6h256.4c3.313,0,6,2.687,6,6v59.286
				C390.2,185.405,387.514,188.092,384.2,188.092z M133.8,176.092h244.4v-47.286H133.8V176.092z"/>
		</g>
		<g>
			<path class="st2" d="M355.072,415.194H156.928c-3.313,0-6-2.687-6-6V182.092c0-3.313,2.687-6,6-6h198.145c3.313,0,6,2.687,6,6
				v227.103C361.072,412.508,358.386,415.194,355.072,415.194z M162.928,403.194h186.145V188.092H162.928V403.194z"/>
		</g>
		<g>
			<path class="st2" d="M355.072,158.448H156.928c-3.313,0-6-2.687-6-6s2.687-6,6-6h198.145c3.313,0,6,2.687,6,6
				S358.386,158.448,355.072,158.448z"/>
		</g>
		<g>
			<path class="st2" d="M246.125,250.361h-66.336c-3.313,0-6-2.687-6-6v-39.886c0-3.313,2.687-6,6-6h66.336c3.313,0,6,2.687,6,6
				v39.886C252.125,247.675,249.438,250.361,246.125,250.361z M185.789,238.361h54.336v-27.886h-54.336V238.361z"/>
		</g>
		<g>
			<path class="st6" d="M341.075,204.475L341.075,204.475c7.73,0,13.997-6.267,13.997-13.997v-38.03h-27.994v38.03
				C327.078,198.209,333.345,204.475,341.075,204.475z"/>
		</g>
		<g>
			<path class="st2" d="M341.075,210.476c-11.026,0-19.997-8.971-19.997-19.997v-38.03c0-3.313,2.687-6,6-6h27.994
				c3.313,0,6,2.687,6,6v38.03C361.072,201.505,352.102,210.476,341.075,210.476z M333.078,158.448v32.03
				c0,4.409,3.588,7.997,7.997,7.997s7.997-3.588,7.997-7.997v-32.03H333.078z"/>
		</g>
		<g>
			<path class="st1" d="M156.928,304.473c0,0,53.394-21.557,99.072,0c45.678,21.557,99.073-4.79,99.073-4.79v109.512H156.928
				V304.473z"/>
		</g>
		<g>
			<path class="st7" d="M316.852,409.194h38.22V299.683c0,0-16.12,7.952-38.22,11.544V409.194z"/>
		</g>
		<g>
			<path class="st2" d="M355.072,415.194H156.928c-3.313,0-6-2.687-6-6V304.473c0-2.446,1.485-4.647,3.754-5.563
				c2.28-0.921,56.375-22.281,103.879,0.138c42.567,20.087,93.35-4.493,93.856-4.745c1.861-0.917,4.062-0.81,5.823,0.285
				c1.761,1.095,2.832,3.021,2.832,5.096v109.512C361.072,412.508,358.386,415.194,355.072,415.194z M162.928,403.194h186.145
				v-94.441c-17.536,6.726-58.545,18.65-95.633,1.146c-36.08-17.025-77.935-5.401-90.512-1.203V403.194z"/>
		</g>
	</g>
</g>
</svg>
