<?xml version="1.0" encoding="utf-8"?>
<!-- Generator: Adobe Illustrator 22.1.0, SVG Export Plug-In . SVG Version: 6.00 Build 0)  -->
<svg version="1.1" id="Icon_Set" xmlns="http://www.w3.org/2000/svg" xmlns:xlink="http://www.w3.org/1999/xlink" x="0px" y="0px"
	 viewBox="0 0 512 512" style="enable-background:new 0 0 512 512;" xml:space="preserve">
<style type="text/css">
	.st0{fill:#F0C48A;}
	.st1{fill:#FD919E;}
	.st2{fill:#4C4372;}
	.st3{fill:#D3E6F8;}
	.st4{fill:#A4CFF2;}
	.st5{fill:#7BABF1;}
	.st6{fill:#FFFFFF;}
	.st7{fill:#E8677D;}
	.st8{fill:none;stroke:#4C4372;stroke-width:12;stroke-linecap:round;stroke-linejoin:round;stroke-miterlimit:10;}
</style>
<g id="Type_Of_Pain">
	<g>
		<g>
			<circle class="st0" cx="256" cy="256" r="207"/>
		</g>
	</g>
	<g>
		<g>
			<g>
				<path class="st6" d="M333.181,295.796h-51.199V261.57h-52.008v34.226h-51.155c-21.857,0-39.576,17.718-39.576,39.576v77.482
					h233.514v-77.482C372.757,313.515,355.038,295.796,333.181,295.796z"/>
			</g>
			<g>
				<path class="st5" d="M323.981,219.066v-52.003c0-37.51-30.408-67.917-67.917-67.917h0c-37.51,0-67.917,30.408-67.917,67.917
					v52.003h21.209h94.975H323.981z"/>
			</g>
			<g>
				<path class="st2" d="M323.981,225.066H188.146c-3.313,0-6-2.686-6-6v-52.003c0-40.758,33.159-73.917,73.918-73.917
					c40.758,0,73.917,33.159,73.917,73.917v52.003C329.981,222.38,327.295,225.066,323.981,225.066z M194.146,213.066h123.835
					v-46.003c0-34.141-27.775-61.917-61.917-61.917s-61.918,27.776-61.918,61.917V213.066z"/>
			</g>
			<g>
				<path class="st3" d="M316.168,237.585H195.832c-11.513,0-20.846-9.333-20.846-20.846v0c0-11.513,9.333-20.846,20.846-20.846
					h120.335c11.513,0,20.846,9.333,20.846,20.846v0C337.013,228.252,327.68,237.585,316.168,237.585z"/>
			</g>
			<g>
				<path class="st2" d="M316.168,243.585H195.832c-14.802,0-26.845-12.043-26.845-26.846s12.043-26.846,26.845-26.846h120.336
					c14.802,0,26.845,12.043,26.845,26.846S330.97,243.585,316.168,243.585z M195.832,201.894c-8.186,0-14.845,6.66-14.845,14.846
					s6.659,14.846,14.845,14.846h120.336c8.186,0,14.845-6.66,14.845-14.846s-6.659-14.846-14.845-14.846H195.832z"/>
			</g>
			<g>
				<path class="st3" d="M333.181,295.796h-24.017c21.857,0,39.575,17.719,39.575,39.576v77.483h24.017v-77.483
					C372.757,313.515,355.038,295.796,333.181,295.796z"/>
			</g>
			<g>
				<g>
					<path class="st2" d="M186.661,418.854c-3.313,0-6-2.686-6-6v-39.703c0-3.314,2.687-6,6-6s6,2.686,6,6v39.703
						C192.661,416.168,189.975,418.854,186.661,418.854z"/>
				</g>
				<g>
					<path class="st2" d="M325.339,418.854c-3.313,0-6-2.686-6-6v-39.703c0-3.314,2.687-6,6-6s6,2.686,6,6v39.703
						C331.339,416.168,328.652,418.854,325.339,418.854z"/>
				</g>
			</g>
			<g>
				<path class="st2" d="M372.757,418.854H139.243c-3.313,0-6-2.686-6-6v-77.482c0-25.13,20.445-45.575,45.575-45.575h45.156V261.57
					c0-3.314,2.687-6,6-6h52.008c3.313,0,6,2.686,6,6v28.226h45.199c25.13,0,45.575,20.445,45.575,45.575v77.482
					C378.757,416.168,376.07,418.854,372.757,418.854z M145.243,406.854h221.514v-71.482c0-18.514-15.062-33.575-33.575-33.575
					h-51.199c-3.313,0-6-2.686-6-6V267.57h-40.008v28.226c0,3.314-2.687,6-6,6h-51.156c-18.514,0-33.575,15.062-33.575,33.575
					V406.854z"/>
			</g>
			<g>
				<path class="st6" d="M279.701,158.75c-21.649,23.643-63.148,32.855-81.369,35.871c-0.449,2.918-0.684,5.906-0.684,8.949v27.144
					c0,32.227,26.125,58.352,58.352,58.352h0c32.227,0,58.352-26.125,58.352-58.352V203.57c0-2.804-0.21-5.558-0.592-8.257
					C308.599,192.678,287.671,180.857,279.701,158.75z"/>
			</g>
			<g>
				<g>
					<path class="st2" d="M229.806,223.142c-3.313,0-6-2.686-6-6v-11.318c0-3.314,2.687-6,6-6s6,2.686,6,6v11.318
						C235.806,220.455,233.119,223.142,229.806,223.142z"/>
				</g>
				<g>
					<path class="st2" d="M282.194,223.142c-3.313,0-6-2.686-6-6v-11.318c0-3.314,2.687-6,6-6s6,2.686,6,6v11.318
						C288.194,220.455,285.508,223.142,282.194,223.142z"/>
				</g>
			</g>
			<g>
				<path class="st2" d="M256,295.066c-35.484,0-64.353-28.868-64.353-64.352V203.57c0-3.297,0.254-6.615,0.754-9.862
					c0.395-2.563,2.392-4.583,4.95-5.006c16.58-2.744,57.364-11.549,77.924-34.003c1.417-1.549,3.541-2.244,5.604-1.831
					c2.06,0.412,3.753,1.872,4.466,3.848c7.299,20.245,27.224,31.253,31.144,33.254c1.739,0.888,2.938,2.567,3.212,4.501
					c0.433,3.051,0.652,6.113,0.652,9.1v27.144C320.353,266.198,291.484,295.066,256,295.066z M203.785,199.761
					c-0.092,1.268-0.138,2.54-0.138,3.808v27.144c0,28.867,23.485,52.352,52.353,52.352s52.353-23.485,52.353-52.352V203.57
					c0-1.47-0.065-2.965-0.196-4.47c-7.396-4.219-21.761-13.993-30.443-30.135C265.83,179.133,243.473,192.514,203.785,199.761z"/>
			</g>
		</g>
		<g>
			<g>
				<circle class="st1" cx="282.194" cy="289.066" r="15.029"/>
			</g>
			<g>
				<path class="st2" d="M282.194,310.095c-11.595,0-21.028-9.434-21.028-21.029s9.434-21.029,21.028-21.029
					c11.596,0,21.029,9.434,21.029,21.029S293.79,310.095,282.194,310.095z M282.194,280.037c-4.979,0-9.028,4.05-9.028,9.029
					s4.05,9.029,9.028,9.029s9.029-4.05,9.029-9.029S287.173,280.037,282.194,280.037z"/>
			</g>
		</g>
		<g>
			<g>
				<circle class="st1" cx="256.064" cy="134.568" r="15.029"/>
			</g>
			<g>
				<path class="st2" d="M256.064,155.597c-11.596,0-21.029-9.434-21.029-21.029s9.434-21.029,21.029-21.029
					c11.595,0,21.028,9.434,21.028,21.029S267.659,155.597,256.064,155.597z M256.064,125.54c-4.979,0-9.029,4.05-9.029,9.029
					s4.051,9.029,9.029,9.029s9.028-4.05,9.028-9.029S261.043,125.54,256.064,125.54z"/>
			</g>
		</g>
		<g>
			<g>
				<circle class="st1" cx="284.297" cy="373.151" r="15.029"/>
			</g>
			<g>
				<path class="st2" d="M284.297,394.18c-11.596,0-21.029-9.434-21.029-21.029s9.434-21.029,21.029-21.029
					s21.029,9.434,21.029,21.029S295.893,394.18,284.297,394.18z M284.297,364.122c-4.979,0-9.029,4.05-9.029,9.029
					s4.051,9.029,9.029,9.029s9.029-4.05,9.029-9.029S289.275,364.122,284.297,364.122z"/>
			</g>
		</g>
		<g>
			<g>
				<circle class="st1" cx="219.803" cy="354.325" r="15.029"/>
			</g>
			<g>
				<path class="st2" d="M219.804,375.354c-11.596,0-21.029-9.434-21.029-21.029c0-11.595,9.434-21.029,21.029-21.029
					c11.595,0,21.028,9.434,21.028,21.029C240.832,365.92,231.398,375.354,219.804,375.354z M219.804,345.296
					c-4.979,0-9.029,4.05-9.029,9.029c0,4.979,4.051,9.029,9.029,9.029s9.028-4.05,9.028-9.029
					C228.832,349.346,224.782,345.296,219.804,345.296z"/>
			</g>
		</g>
	</g>
</g>
</svg>
