<?xml version="1.0" encoding="utf-8"?>
<!-- Generator: Adobe Illustrator 22.1.0, SVG Export Plug-In . SVG Version: 6.00 Build 0)  -->
<svg version="1.1" id="Icon_Set" xmlns="http://www.w3.org/2000/svg" xmlns:xlink="http://www.w3.org/1999/xlink" x="0px" y="0px"
	 viewBox="0 0 512 512" style="enable-background:new 0 0 512 512;" xml:space="preserve">
<style type="text/css">
	.st0{fill:#F0C48A;}
	.st1{fill:#FD919E;}
	.st2{fill:#4C4372;}
	.st3{fill:#D3E6F8;}
	.st4{fill:#A4CFF2;}
	.st5{fill:#7BABF1;}
	.st6{fill:#FFFFFF;}
	.st7{fill:#E8677D;}
	.st8{fill:none;stroke:#4C4372;stroke-width:12;stroke-linecap:round;stroke-linejoin:round;stroke-miterlimit:10;}
</style>
<g id="Pill_Bottle">
	<g>
		<g>
			<circle class="st0" cx="256" cy="256" r="207"/>
		</g>
	</g>
	<g>
		<g>
			<path class="st3" d="M326.242,175.149V146.08H225.896v29.069c0,10.645-8.629,19.274-19.274,19.274h0
				c-10.645,0-19.274,8.629-19.274,19.274v138.894c0,10.645,8.629,19.274,19.274,19.274h138.894
				c10.645,0,19.274-8.629,19.274-19.274V213.697c0-10.645-8.629-19.274-19.274-19.274h0
				C334.871,194.423,326.242,185.794,326.242,175.149z"/>
		</g>
		<g>
			<path class="st4" d="M338.373,224.277V324.45c0,17.784-7.065,34.839-19.64,47.414h0h26.783c10.645,0,19.274-8.629,19.274-19.274
				V213.697c0-10.676-8.736-19.2-19.411-19.274c-10.582-0.074-19.137-8.674-19.137-19.273V146.08h-21.27v44.796
				c0,12.974,10.518,23.492,23.492,23.492h0C333.936,214.367,338.373,218.804,338.373,224.277z"/>
		</g>
		<g>
			<path class="st5" d="M335.29,146.08H216.848c-6.898,0-12.491-5.592-12.491-12.491v-28.427c0-6.898,5.592-12.491,12.491-12.491
				H335.29c6.898,0,12.491,5.592,12.491,12.491v28.427C347.781,140.488,342.189,146.08,335.29,146.08z"/>
		</g>
		<g>
			<rect x="187.348" y="225.835" class="st6" width="177.442" height="106.241"/>
		</g>
		<g>
			<rect x="338.373" y="225.835" class="st3" width="26.417" height="106.241"/>
		</g>
		<g>
			<g>
				<polygon class="st1" points="312.839,266.647 288.682,266.647 288.682,242.49 263.456,242.49 263.456,266.647 239.299,266.647 
					239.299,291.874 263.456,291.874 263.456,316.031 288.682,316.031 288.682,291.874 312.839,291.874 				"/>
			</g>
			<g>
				<path class="st2" d="M288.683,322.031h-25.227c-3.313,0-6-2.687-6-6v-18.157h-18.157c-3.313,0-6-2.687-6-6v-25.227
					c0-3.313,2.687-6,6-6h18.157V242.49c0-3.313,2.687-6,6-6h25.227c3.313,0,6,2.687,6,6v18.157h18.156c3.313,0,6,2.687,6,6v25.227
					c0,3.313-2.687,6-6,6h-18.156v18.157C294.683,319.344,291.996,322.031,288.683,322.031z M269.456,310.031h13.227v-18.157
					c0-3.313,2.687-6,6-6h18.156v-13.227h-18.156c-3.313,0-6-2.687-6-6V248.49h-13.227v18.157c0,3.313-2.687,6-6,6h-18.157v13.227
					h18.157c3.313,0,6,2.687,6,6V310.031z"/>
			</g>
		</g>
		<g>
			<path class="st2" d="M335.29,152.08H216.848c-10.196,0-18.491-8.295-18.491-18.491v-28.427c0-10.196,8.295-18.491,18.491-18.491
				H335.29c10.196,0,18.491,8.295,18.491,18.491v28.427C353.781,143.785,345.486,152.08,335.29,152.08z M216.848,98.671
				c-3.579,0-6.491,2.912-6.491,6.491v28.427c0,3.579,2.912,6.491,6.491,6.491H335.29c3.579,0,6.491-2.912,6.491-6.491v-28.427
				c0-3.579-2.912-6.491-6.491-6.491H216.848z"/>
		</g>
		<g>
			<path class="st2" d="M345.516,377.865H206.622c-13.937,0-25.274-11.338-25.274-25.274V213.697
				c0-13.936,11.338-25.274,25.274-25.274c7.319,0,13.274-5.955,13.274-13.274V146.08c0-3.313,2.687-6,6-6h100.346
				c3.313,0,6,2.687,6,6v29.069c0,7.319,5.954,13.274,13.273,13.274c13.937,0,25.274,11.338,25.274,25.274v138.894
				C370.79,366.527,359.452,377.865,345.516,377.865z M231.896,152.08v23.069c0,13.936-11.338,25.274-25.274,25.274
				c-7.319,0-13.274,5.955-13.274,13.274v138.894c0,7.319,5.955,13.274,13.274,13.274h138.894c7.319,0,13.274-5.955,13.274-13.274
				V213.697c0-7.319-5.955-13.274-13.274-13.274c-13.936,0-25.273-11.338-25.273-25.274V152.08H231.896z"/>
		</g>
		<g>
			<g>
				<path class="st2" d="M226.436,133.881c-3.313,0-6-2.687-6-6v-17.354c0-3.313,2.687-6,6-6s6,2.687,6,6v17.354
					C232.436,131.194,229.749,133.881,226.436,133.881z"/>
			</g>
			<g>
				<path class="st2" d="M251.253,133.881c-3.313,0-6-2.687-6-6v-17.354c0-3.313,2.687-6,6-6s6,2.687,6,6v17.354
					C257.253,131.194,254.566,133.881,251.253,133.881z"/>
			</g>
			<g>
				<path class="st2" d="M276.069,133.881c-3.313,0-6-2.687-6-6v-17.354c0-3.313,2.687-6,6-6s6,2.687,6,6v17.354
					C282.069,131.194,279.383,133.881,276.069,133.881z"/>
			</g>
			<g>
				<path class="st2" d="M300.886,133.881c-3.313,0-6-2.687-6-6v-17.354c0-3.313,2.687-6,6-6s6,2.687,6,6v17.354
					C306.886,131.194,304.199,133.881,300.886,133.881z"/>
			</g>
			<g>
				<path class="st2" d="M325.702,133.881c-3.313,0-6-2.687-6-6v-17.354c0-3.313,2.687-6,6-6s6,2.687,6,6v17.354
					C331.702,131.194,329.016,133.881,325.702,133.881z"/>
			</g>
		</g>
		<g>
			<path class="st2" d="M364.79,338.076H187.348c-3.313,0-6-2.687-6-6V225.835c0-3.313,2.687-6,6-6H364.79c3.313,0,6,2.687,6,6
				v106.241C370.79,335.39,368.104,338.076,364.79,338.076z M193.348,326.076H358.79v-94.241H193.348V326.076z"/>
		</g>
		<g>
			<g>
				<path class="st1" d="M226.614,356.465h-44.402c-8.68,0-15.716,7.036-15.716,15.716v0c0,8.68,7.036,15.716,15.716,15.716h44.402
					c8.68,0,15.716-7.036,15.716-15.716v0C242.329,363.502,235.293,356.465,226.614,356.465z"/>
			</g>
			<g>
				<path class="st6" d="M182.212,356.466c-8.68,0-15.716,7.036-15.716,15.715l0,0c0,8.68,7.036,15.716,15.716,15.716h22.201
					v-31.431H182.212z"/>
			</g>
			<g>
				<path class="st2" d="M226.613,393.897h-44.401c-11.975,0-21.716-9.742-21.716-21.716s9.741-21.716,21.716-21.716h44.401
					c11.975,0,21.716,9.742,21.716,21.716S238.588,393.897,226.613,393.897z M182.212,362.465c-5.357,0-9.716,4.358-9.716,9.716
					s4.358,9.716,9.716,9.716h44.401c5.357,0,9.716-4.358,9.716-9.716s-4.358-9.716-9.716-9.716H182.212z"/>
			</g>
			<g>
				<path class="st2" d="M204.413,393.897h-22.201c-11.975,0-21.716-9.742-21.716-21.716s9.741-21.716,21.716-21.716h22.201
					c3.313,0,6,2.687,6,6v31.432C210.413,391.21,207.727,393.897,204.413,393.897z M182.212,362.465
					c-5.357,0-9.716,4.358-9.716,9.716s4.358,9.716,9.716,9.716h16.201v-19.432H182.212z"/>
			</g>
		</g>
		<g>
			<g>
				<path class="st1" d="M207.328,387.897h-44.402c-8.68,0-15.716,7.036-15.716,15.716v0c0,8.68,7.036,15.716,15.716,15.716h44.402
					c8.68,0,15.716-7.036,15.716-15.716v0C223.043,394.933,216.007,387.897,207.328,387.897z"/>
			</g>
			<g>
				<path class="st6" d="M162.926,387.897c-8.68,0-15.716,7.036-15.716,15.715l0,0c0,8.68,7.036,15.716,15.716,15.716h22.201
					v-31.431H162.926z"/>
			</g>
			<g>
				<path class="st2" d="M207.328,425.329h-44.402c-11.975,0-21.716-9.742-21.716-21.716s9.741-21.716,21.716-21.716h44.402
					c11.975,0,21.716,9.742,21.716,21.716S219.303,425.329,207.328,425.329z M162.926,393.897c-5.357,0-9.716,4.358-9.716,9.716
					s4.358,9.716,9.716,9.716h44.402c5.357,0,9.716-4.358,9.716-9.716s-4.358-9.716-9.716-9.716H162.926z"/>
			</g>
			<g>
				<path class="st2" d="M185.127,425.329h-22.201c-11.975,0-21.716-9.742-21.716-21.716c0-11.974,9.741-21.715,21.716-21.715
					h22.201c3.313,0,6,2.687,6,6v31.432C191.127,422.642,188.44,425.329,185.127,425.329z M162.926,393.897
					c-5.357,0-9.716,4.358-9.716,9.715c0,5.357,4.358,9.716,9.716,9.716h16.201v-19.432H162.926z"/>
			</g>
		</g>
	</g>
</g>
</svg>
