<?xml version="1.0" encoding="utf-8"?>
<!-- Generator: Adobe Illustrator 22.1.0, SVG Export Plug-In . SVG Version: 6.00 Build 0)  -->
<svg version="1.1" id="Icon_Set" xmlns="http://www.w3.org/2000/svg" xmlns:xlink="http://www.w3.org/1999/xlink" x="0px" y="0px"
	 viewBox="0 0 512 512" style="enable-background:new 0 0 512 512;" xml:space="preserve">
<style type="text/css">
	.st0{fill:#F0C48A;}
	.st1{fill:#FD919E;}
	.st2{fill:#4C4372;}
	.st3{fill:#D3E6F8;}
	.st4{fill:#A4CFF2;}
	.st5{fill:#7BABF1;}
	.st6{fill:#FFFFFF;}
	.st7{fill:#E8677D;}
	.st8{fill:none;stroke:#4C4372;stroke-width:12;stroke-linecap:round;stroke-linejoin:round;stroke-miterlimit:10;}
</style>
<g id="Broken_Arm">
	<g>
		<g>
			<circle class="st0" cx="256" cy="256" r="207"/>
		</g>
	</g>
	<g>
		<g>
			<g>
				<path class="st6" d="M328.747,277.503H280.49v-32.26h-49.02v32.26h-48.216c-20.601,0-37.302,16.701-37.302,37.302v82.777
					c0,12.298,9.969,22.267,22.267,22.267h197.83V314.805C366.049,294.203,349.348,277.503,328.747,277.503z"/>
			</g>
			<g>
				<path class="st5" d="M320.076,205.181v-49.015c0-35.355-28.661-64.015-64.015-64.015h0c-35.355,0-64.015,28.661-64.015,64.015
					v49.015h19.99h89.518H320.076z"/>
			</g>
			<g>
				<path class="st2" d="M320.075,211.181h-128.03c-3.313,0-6-2.687-6-6v-49.015c0-38.606,31.409-70.015,70.015-70.015
					c38.607,0,70.015,31.409,70.015,70.015v49.015C326.075,208.495,323.389,211.181,320.075,211.181z M198.045,199.181h116.03
					v-43.015c0-31.99-26.025-58.015-58.015-58.015c-31.99,0-58.016,26.025-58.016,58.015V199.181z"/>
			</g>
			<g>
				<path class="st3" d="M312.711,222.636H199.289c-10.851,0-19.648-8.797-19.648-19.648v0c0-10.851,8.797-19.648,19.648-19.648
					h113.421c10.851,0,19.648,8.797,19.648,19.648v0C332.359,213.84,323.562,222.636,312.711,222.636z"/>
			</g>
			<g>
				<path class="st2" d="M312.711,228.636H199.29c-14.142,0-25.648-11.506-25.648-25.648s11.506-25.648,25.648-25.648h113.421
					c14.142,0,25.647,11.506,25.647,25.648S326.853,228.636,312.711,228.636z M199.29,189.34c-7.525,0-13.648,6.123-13.648,13.648
					s6.123,13.648,13.648,13.648h113.421c7.525,0,13.647-6.123,13.647-13.648s-6.122-13.648-13.647-13.648H199.29z"/>
			</g>
			<g>
				<path class="st3" d="M328.747,277.503H306.11c20.601,0,37.302,16.701,37.302,37.302v105.045h22.637V314.804
					C366.049,294.203,349.348,277.503,328.747,277.503z"/>
			</g>
			<g>
				<g>
					<path class="st2" d="M321.354,425.849c-3.313,0-6-2.687-6-6v-69.436c0-3.313,2.687-6,6-6s6,2.687,6,6v69.436
						C327.354,423.163,324.668,425.849,321.354,425.849z"/>
				</g>
			</g>
			<g>
				<path class="st2" d="M366.049,425.849h-197.83c-15.586,0-28.267-12.681-28.267-28.268v-82.777
					c0-23.876,19.425-43.302,43.301-43.302h42.217v-26.26c0-3.313,2.686-6,6-6h49.02c3.313,0,6,2.687,6,6v26.26h42.258
					c23.877,0,43.302,19.425,43.302,43.302v105.044C372.049,423.163,369.362,425.849,366.049,425.849z M183.253,283.503
					c-17.26,0-31.301,14.042-31.301,31.302v82.777c0,8.97,7.297,16.268,16.267,16.268h191.83v-99.044
					c0-17.26-14.042-31.302-31.302-31.302h-48.258c-3.313,0-6-2.687-6-6v-26.26h-37.02v26.26c0,3.313-2.687,6-6,6H183.253z"/>
			</g>
			<g>
				<path class="st6" d="M278.339,148.33c-20.405,22.285-59.52,30.968-76.694,33.81c-0.423,2.75-0.644,5.567-0.644,8.435v25.584
					c0,30.376,24.624,55,55,55h0c30.376,0,55-24.624,55-55v-25.584c0-2.643-0.198-5.239-0.558-7.783
					C305.577,180.309,285.852,169.167,278.339,148.33z"/>
			</g>
			<g>
				<g>
					<path class="st2" d="M231.311,209.367c-3.313,0-6-2.687-6-6V192.7c0-3.313,2.687-6,6-6s6,2.687,6,6v10.667
						C237.311,206.681,234.624,209.367,231.311,209.367z"/>
				</g>
				<g>
					<path class="st2" d="M280.689,209.367c-3.313,0-6-2.687-6-6V192.7c0-3.313,2.687-6,6-6s6,2.687,6,6v10.667
						C286.689,206.681,284.003,209.367,280.689,209.367z"/>
				</g>
			</g>
			<g>
				<path class="st2" d="M256,277.159c-33.636,0-61-27.364-61-61v-25.584c0-3.124,0.24-6.269,0.714-9.348
					c0.395-2.563,2.392-4.583,4.951-5.006c15.592-2.581,53.943-10.858,73.249-31.942c1.418-1.55,3.541-2.246,5.604-1.832
					c2.06,0.413,3.753,1.872,4.466,3.848c6.836,18.961,25.512,29.277,29.186,31.153c1.74,0.888,2.939,2.568,3.213,4.502
					c0.41,2.894,0.618,5.796,0.618,8.625v25.584C317,249.795,289.636,277.159,256,277.159z M207.11,187.277
					c-0.073,1.099-0.11,2.2-0.11,3.298v25.584c0,27.019,21.981,49,49,49s49-21.981,49-49v-25.584c0-1.316-0.057-2.655-0.169-4.004
					c-6.99-4.009-20.284-13.12-28.466-28.075C265.074,168.053,244.065,180.487,207.11,187.277z"/>
			</g>
		</g>
		<g>
			<path class="st2" d="M258.422,425.849h-90.203c-15.586,0-28.267-12.681-28.267-28.268v-22.268c0-3.313,2.686-6,6-6
				c3.313,0,6,2.687,6,6v22.268c0,8.97,7.297,16.268,16.267,16.268h90.203c8.97,0,16.268-7.298,16.268-16.268
				s-7.298-16.268-16.268-16.268h-72.098c-3.313,0-6-2.687-6-6s2.687-6,6-6h72.098c15.587,0,28.268,12.681,28.268,28.268
				S274.009,425.849,258.422,425.849z"/>
		</g>
		<g>
			<polygon class="st1" points="306.11,277.503 221.47,419.849 168.219,419.849 280.49,277.503 			"/>
		</g>
		<g>
			<path class="st2" d="M221.47,425.849h-53.251c-2.299,0-4.396-1.313-5.399-3.382c-1.003-2.068-0.736-4.528,0.688-6.333
				l112.271-142.347c1.138-1.442,2.874-2.284,4.711-2.284l0,0l25.621,0c2.157,0,4.148,1.158,5.216,3.034
				c1.066,1.875,1.044,4.179-0.059,6.033l-84.641,142.346C225.545,424.734,223.586,425.849,221.47,425.849z M180.593,413.849h37.464
				l77.506-130.346l-12.164,0L180.593,413.849z"/>
		</g>
	</g>
</g>
</svg>
