<?xml version="1.0" encoding="utf-8"?>
<!-- Generator: Adobe Illustrator 22.1.0, SVG Export Plug-In . SVG Version: 6.00 Build 0)  -->
<svg version="1.1" id="Icon_Set" xmlns="http://www.w3.org/2000/svg" xmlns:xlink="http://www.w3.org/1999/xlink" x="0px" y="0px"
	 viewBox="0 0 512 512" style="enable-background:new 0 0 512 512;" xml:space="preserve">
<style type="text/css">
	.st0{fill:#F0C48A;}
	.st1{fill:#FD919E;}
	.st2{fill:#4C4372;}
	.st3{fill:#D3E6F8;}
	.st4{fill:#A4CFF2;}
	.st5{fill:#7BABF1;}
	.st6{fill:#FFFFFF;}
	.st7{fill:#E8677D;}
	.st8{fill:none;stroke:#4C4372;stroke-width:12;stroke-linecap:round;stroke-linejoin:round;stroke-miterlimit:10;}
</style>
<g id="Online_Pharmacy">
	<g>
		<g>
			<circle class="st0" cx="256" cy="256" r="207"/>
		</g>
	</g>
	<g>
		<g>
			<path class="st5" d="M331.293,414.165H180.707c-11.99,0-21.709-9.72-21.709-21.709V119.544c0-11.99,9.72-21.709,21.709-21.709
				h150.585c11.99,0,21.709,9.72,21.709,21.709v272.911C353.002,404.445,343.282,414.165,331.293,414.165z"/>
		</g>
		<g>
			<path class="st1" d="M158.998,378.736v13.72c0,11.989,9.72,21.709,21.709,21.709h150.585c11.99,0,21.709-9.72,21.709-21.709
				v-13.72H158.998z"/>
		</g>
		<g>
			<path class="st7" d="M353.002,378.736h-36.963v35.429h15.254c11.987,0,21.705-9.716,21.709-21.702V378.736z"/>
		</g>
		<g>
			<circle class="st6" cx="256" cy="313.898" r="38.381"/>
		</g>
		<g>
			<path class="st1" d="M279.556,132.334h-47.112c-7.717,0-14.53-5.039-16.789-12.419l-6.758-22.08h94.206l-6.758,22.08
				C294.086,127.294,287.273,132.334,279.556,132.334z"/>
		</g>
		<g>
			<path class="st2" d="M279.556,138.334h-47.111c-10.423,0-19.476-6.696-22.526-16.663l-6.759-22.08
				c-0.557-1.819-0.218-3.795,0.913-5.324c1.132-1.53,2.922-2.432,4.824-2.432h94.207c1.902,0,3.692,0.902,4.824,2.432
				c1.131,1.53,1.47,3.505,0.913,5.324l-6.759,22.08C299.031,131.637,289.979,138.334,279.556,138.334z M217.008,103.835
				l4.385,14.323c1.497,4.89,5.938,8.175,11.052,8.175h47.111c5.113,0,9.555-3.285,11.052-8.175l4.385-14.323H217.008z"/>
		</g>
		<g>
			<path class="st2" d="M256,358.258c-11.365,0-22.73-4.326-31.382-12.978c-17.304-17.304-17.304-45.46-0.001-62.764
				c17.305-17.304,45.462-17.304,62.765,0c17.304,17.304,17.304,45.46,0.001,62.764c-0.001,0-0.001,0-0.001,0
				C278.73,353.932,267.365,358.258,256,358.258z M256,281.532c-8.293,0-16.584,3.156-22.897,9.469
				c-12.625,12.625-12.625,33.168,0.001,45.793c12.624,12.625,33.168,12.625,45.794,0c12.625-12.625,12.625-33.168,0-45.793
				C272.585,284.689,264.291,281.532,256,281.532z M283.14,341.037h0.01H283.14z"/>
		</g>
		<g>
			<path class="st2" d="M228.86,347.037c-1.536,0-3.071-0.586-4.242-1.757c-2.344-2.343-2.344-6.142,0-8.485l54.279-54.279
				c2.342-2.344,6.143-2.343,8.484,0c2.344,2.343,2.344,6.142,0,8.485l-54.279,54.279
				C231.932,346.451,230.396,347.037,228.86,347.037z"/>
		</g>
		<g>
			<path class="st2" d="M331.293,420.165H180.707c-15.278,0-27.709-12.43-27.709-27.709v-13.719c0-3.314,2.687-6,6-6h194.004
				c3.313,0,6,2.686,6,6v13.719C359.002,407.734,346.571,420.165,331.293,420.165z M164.998,384.736v7.719
				c0,8.662,7.047,15.709,15.709,15.709h150.586c8.662,0,15.709-7.047,15.709-15.709v-7.719H164.998z"/>
		</g>
		<g>
			<path class="st2" d="M331.293,420.165H180.707c-15.278,0-27.709-12.43-27.709-27.709V119.544
				c0-15.279,12.431-27.709,27.709-27.709h150.586c15.278,0,27.709,12.43,27.709,27.709v272.911
				C359.002,407.734,346.571,420.165,331.293,420.165z M180.707,103.835c-8.662,0-15.709,7.047-15.709,15.709v272.911
				c0,8.662,7.047,15.709,15.709,15.709h150.586c8.662,0,15.709-7.047,15.709-15.709V119.544c0-8.662-7.047-15.709-15.709-15.709
				H180.707z"/>
		</g>
		<g>
			<path class="st6" d="M297.292,196.318l-50.988,50.988c-8.725,8.725-22.871,8.725-31.595,0l0,0
				c-8.725-8.725-8.725-22.871,0-31.595l50.988-50.988c8.725-8.725,22.871-8.725,31.595,0l0,0
				C306.017,173.448,306.017,187.594,297.292,196.318z"/>
		</g>
		<g>
			<path class="st2" d="M230.506,259.851c-7.57,0-14.688-2.948-20.041-8.301c-11.05-11.05-11.05-29.031,0-40.081l50.989-50.988
				c5.353-5.353,12.47-8.301,20.04-8.301s14.688,2.948,20.041,8.301c11.05,11.051,11.05,29.031-0.001,40.081l-4.242-4.243
				l4.242,4.243l-50.988,50.989C245.193,256.903,238.076,259.851,230.506,259.851z M281.494,164.179
				c-4.365,0-8.469,1.7-11.555,4.786l-50.989,50.988c-6.371,6.371-6.371,16.739,0.001,23.11c3.086,3.086,7.189,4.786,11.555,4.786
				s8.469-1.7,11.555-4.786l50.989-50.989c6.371-6.371,6.371-16.739-0.001-23.11C289.963,165.879,285.859,164.179,281.494,164.179z"
				/>
		</g>
		<g>
			<path class="st1" d="M297.292,164.723L297.292,164.723c-8.725-8.725-22.87-8.725-31.595,0l-25.494,25.494l0,0l31.595,31.595
				l25.494-25.494C306.017,187.594,306.017,173.448,297.292,164.723z"/>
		</g>
		<g>
			<path class="st2" d="M271.798,227.813c-1.591,0-3.117-0.632-4.242-1.757L235.96,194.46c-1.126-1.125-1.758-2.651-1.758-4.243
				s0.632-3.117,1.758-4.243l25.494-25.494c11.051-11.051,29.03-11.049,40.081,0h-0.001c0.001,0,0.001,0,0.001,0
				c11.05,11.05,11.05,29.03,0,40.081l-25.495,25.494C274.915,227.181,273.39,227.813,271.798,227.813z M248.688,190.217
				l23.11,23.11l21.252-21.252c6.371-6.372,6.371-16.739,0-23.11h-0.001c-6.369-6.371-16.737-6.372-23.11,0L248.688,190.217z"/>
		</g>
		<g>
			<path class="st2" d="M274.141,121.084h-36.281c-3.313,0-6-2.686-6-6s2.687-6,6-6h36.281c3.313,0,6,2.686,6,6
				S277.454,121.084,274.141,121.084z"/>
		</g>
	</g>
</g>
</svg>
