<?xml version="1.0" encoding="utf-8"?>
<!-- Generator: Adobe Illustrator 22.1.0, SVG Export Plug-In . SVG Version: 6.00 Build 0)  -->
<svg version="1.1" id="Icon_Set" xmlns="http://www.w3.org/2000/svg" xmlns:xlink="http://www.w3.org/1999/xlink" x="0px" y="0px"
	 viewBox="0 0 512 512" style="enable-background:new 0 0 512 512;" xml:space="preserve">
<style type="text/css">
	.st0{fill:#F0C48A;}
	.st1{fill:#FD919E;}
	.st2{fill:#4C4372;}
	.st3{fill:#D3E6F8;}
	.st4{fill:#A4CFF2;}
	.st5{fill:#7BABF1;}
	.st6{fill:#FFFFFF;}
	.st7{fill:#E8677D;}
	.st8{fill:none;stroke:#4C4372;stroke-width:12;stroke-linecap:round;stroke-linejoin:round;stroke-miterlimit:10;}
</style>
<g id="Painful_Region">
	<g>
		<g>
			<circle class="st0" cx="256" cy="256" r="207"/>
		</g>
	</g>
	<g>
		<g>
			<path class="st6" d="M336.042,283.618h-53.097v-35.495h-53.936v35.495h-53.052c-22.667,0-41.043,18.375-41.043,41.043v80.355
				h242.17v-80.355C377.085,301.993,358.71,283.618,336.042,283.618z"/>
		</g>
		<g>
			<path class="st5" d="M326.502,204.044v-53.931c0-38.9-31.535-70.435-70.435-70.435h0c-38.9,0-70.435,31.535-70.435,70.435v53.931
				h21.995h98.496H326.502z"/>
		</g>
		<g>
			<path class="st2" d="M326.501,210.044h-140.87c-3.313,0-6-2.686-6-6v-53.931c0-42.146,34.289-76.435,76.435-76.435
				s76.435,34.289,76.435,76.435v53.931C332.501,207.357,329.815,210.044,326.501,210.044z M191.631,198.044h128.87v-47.931
				c0-35.53-28.905-64.435-64.435-64.435s-64.435,28.906-64.435,64.435V198.044z"/>
		</g>
		<g>
			<path class="st3" d="M318.398,223.249H193.602c-11.939,0-21.618-9.679-21.618-21.618v0c0-11.939,9.679-21.618,21.618-21.618
				h124.796c11.939,0,21.618,9.679,21.618,21.618v0C340.016,213.57,330.337,223.249,318.398,223.249z"/>
		</g>
		<g>
			<path class="st2" d="M318.398,229.249H193.602c-15.229,0-27.618-12.39-27.618-27.618s12.39-27.618,27.618-27.618h124.796
				c15.229,0,27.619,12.39,27.619,27.618S333.627,229.249,318.398,229.249z M193.602,186.012c-8.612,0-15.618,7.006-15.618,15.618
				s7.006,15.618,15.618,15.618h124.796c8.612,0,15.619-7.006,15.619-15.618s-7.006-15.618-15.619-15.618H193.602z"/>
		</g>
		<g>
			<path class="st3" d="M336.043,283.618h-24.907c22.667,0,41.043,18.375,41.043,41.043v80.355h24.907v-80.355
				C377.085,301.993,358.71,283.618,336.043,283.618z"/>
		</g>
		<g>
			<g>
				<path class="st2" d="M184.091,411.015c-3.313,0-6-2.686-6-6V363.84c0-3.314,2.687-6,6-6s6,2.686,6,6v41.175
					C190.091,408.329,187.405,411.015,184.091,411.015z"/>
			</g>
			<g>
				<path class="st2" d="M327.909,411.015c-3.313,0-6-2.686-6-6V363.84c0-3.314,2.687-6,6-6s6,2.686,6,6v41.175
					C333.909,408.329,331.222,411.015,327.909,411.015z"/>
			</g>
		</g>
		<g>
			<path class="st2" d="M377.085,411.015h-242.17c-3.314,0-6-2.686-6-6v-80.355c0-25.939,21.103-47.042,47.042-47.042h47.052
				v-29.495c0-3.314,2.687-6,6-6h53.937c3.313,0,6,2.686,6,6v29.495h47.097c25.939,0,47.042,21.103,47.042,47.042v80.355
				C383.085,408.329,380.399,411.015,377.085,411.015z M140.915,399.015h230.17v-74.355c0-19.323-15.72-35.042-35.042-35.042
				h-53.097c-3.313,0-6-2.686-6-6v-29.495h-41.937v29.495c0,3.314-2.686,6-6,6h-53.052c-19.322,0-35.042,15.72-35.042,35.042
				V399.015z"/>
		</g>
		<g>
			<path class="st6" d="M280.579,141.491c-22.452,24.52-65.489,34.073-84.386,37.2c-0.466,3.026-0.709,6.125-0.709,9.281v28.15
				c0,33.422,27.094,60.516,60.516,60.516h0c33.422,0,60.516-27.094,60.516-60.516v-28.15c0-2.908-0.218-5.765-0.614-8.563
				C310.549,176.677,288.845,164.418,280.579,141.491z"/>
		</g>
		<g>
			<g>
				<path class="st2" d="M228.834,208.048c-3.313,0-6-2.686-6-6V190.31c0-3.314,2.687-6,6-6s6,2.686,6,6v11.737
					C234.834,205.361,232.148,208.048,228.834,208.048z"/>
			</g>
			<g>
				<path class="st2" d="M283.166,208.048c-3.313,0-6-2.686-6-6V190.31c0-3.314,2.687-6,6-6s6,2.686,6,6v11.737
					C289.166,205.361,286.479,208.048,283.166,208.048z"/>
			</g>
		</g>
		<g>
			<path class="st2" d="M256,282.638c-36.677,0-66.516-29.839-66.516-66.516v-28.15c0-3.407,0.262-6.837,0.779-10.194
				c0.395-2.563,2.392-4.583,4.951-5.007c17.218-2.849,59.571-11.995,80.94-35.333c1.418-1.549,3.544-2.245,5.604-1.831
				c2.06,0.412,3.754,1.872,4.466,3.848c7.599,21.076,28.327,32.528,32.406,34.609c1.74,0.888,2.938,2.568,3.212,4.502
				c0.447,3.155,0.674,6.319,0.674,9.405v28.15C322.516,252.8,292.677,282.638,256,282.638z M201.64,183.835
				c-0.104,1.377-0.156,2.76-0.156,4.137v28.15c0,30.06,24.456,54.516,54.516,54.516s54.516-24.456,54.516-54.516v-28.15
				c0-1.568-0.072-3.164-0.215-4.772c-7.656-4.352-22.714-14.553-31.717-31.465C266.32,162.298,243.097,176.292,201.64,183.835z"/>
		</g>
		<g>
			<circle class="st7" cx="299.365" cy="383.556" r="48.766"/>
		</g>
		<g>
			<path class="st2" d="M299.365,438.322c-30.198,0-54.766-24.568-54.766-54.766s24.568-54.766,54.766-54.766
				c30.198,0,54.766,24.568,54.766,54.766S329.563,438.322,299.365,438.322z M299.365,340.791
				c-23.582,0-42.766,19.185-42.766,42.766s19.185,42.766,42.766,42.766c23.581,0,42.766-19.185,42.766-42.766
				S322.946,340.791,299.365,340.791z"/>
		</g>
		<g>
			<circle class="st1" cx="299.365" cy="383.556" r="25.821"/>
		</g>
		<g>
			<path class="st2" d="M299.365,415.378c-17.546,0-31.821-14.275-31.821-31.821s14.275-31.821,31.821-31.821
				c17.546,0,31.821,14.275,31.821,31.821S316.911,415.378,299.365,415.378z M299.365,363.735c-10.93,0-19.821,8.892-19.821,19.821
				s8.892,19.821,19.821,19.821c10.929,0,19.821-8.892,19.821-19.821S310.294,363.735,299.365,363.735z"/>
		</g>
		<g>
			<circle class="st2" cx="299.365" cy="383.556" r="7.438"/>
		</g>
	</g>
</g>
</svg>
