<?xml version="1.0" encoding="utf-8"?>
<!-- Generator: Adobe Illustrator 22.1.0, SVG Export Plug-In . SVG Version: 6.00 Build 0)  -->
<svg version="1.1" id="Icon_Set" xmlns="http://www.w3.org/2000/svg" xmlns:xlink="http://www.w3.org/1999/xlink" x="0px" y="0px"
	 viewBox="0 0 512 512" style="enable-background:new 0 0 512 512;" xml:space="preserve">
<style type="text/css">
	.st0{fill:#F0C48A;}
	.st1{fill:#FD919E;}
	.st2{fill:#4C4372;}
	.st3{fill:#D3E6F8;}
	.st4{fill:#A4CFF2;}
	.st5{fill:#7BABF1;}
	.st6{fill:#FFFFFF;}
	.st7{fill:#E8677D;}
	.st8{fill:none;stroke:#4C4372;stroke-width:12;stroke-linecap:round;stroke-linejoin:round;stroke-miterlimit:10;}
</style>
<g id="Injury">
	<g>
		<g>
			<path class="st0" d="M49.003,254.829C49.634,141.045,142.067,49.001,255.998,49C370.136,48.999,463.001,141.864,463,256.002
				c-0.001,113.931-92.045,206.365-205.829,206.995C142.387,463.633,48.367,369.613,49.003,254.829z"/>
		</g>
	</g>
	<g>
		<g>
			<path class="st6" d="M145.862,114.854L145.862,114.854c-7.611,7.611-7.611,19.951,0,27.562l76.806,76.806l-82.687,82.687
				l57.318,57.318c16.331,16.331,42.81,16.331,59.141,0l0.971-0.971l64.598,64.598l63.043-63.043l-64.625-64.625
				c8.966-9.532,8.813-24.515-0.504-33.832l-53.229-53.229L250.23,191.66l-76.806-76.806
				C165.813,107.243,153.473,107.243,145.862,114.854z"/>
		</g>
		<g>
			<path class="st2" d="M322.01,428.854c-1.591,0-3.117-0.632-4.242-1.757l-60.514-60.513c-18.77,15.466-46.658,14.425-64.198-3.114
				l-57.317-57.318c-2.343-2.343-2.343-6.142,0.001-8.485l78.443-78.444l-72.562-72.563c-4.814-4.814-7.466-11.215-7.466-18.024
				c0-6.809,2.651-13.209,7.466-18.024l4.242,4.243l-4.242-4.243c4.814-4.814,11.215-7.466,18.023-7.466s13.209,2.651,18.023,7.466
				l146.499,146.5c10.237,10.236,11.691,25.788,4.229,37.556l60.9,60.9c2.344,2.343,2.344,6.142,0,8.485l-63.042,63.043
				C325.127,428.222,323.602,428.854,322.01,428.854z M257.41,352.256c1.592,0,3.118,0.632,4.243,1.757l60.356,60.356l54.558-54.558
				l-60.382-60.382c-2.293-2.293-2.35-5.992-0.128-8.354c6.822-7.253,6.657-18.444-0.376-25.478l-146.5-146.5
				c-2.548-2.548-5.936-3.951-9.538-3.951c-3.604,0-6.991,1.403-9.539,3.951s-3.95,5.935-3.95,9.538c0,3.603,1.402,6.991,3.95,9.539
				l76.806,76.806c2.344,2.343,2.344,6.142,0,8.485l-78.443,78.444l53.074,53.075c13.967,13.966,36.69,13.966,50.657,0l0.969-0.97
				C254.293,352.889,255.818,352.256,257.41,352.256z"/>
		</g>
		<g>
			<path class="st3" d="M151.154,230.395L151.154,230.395c-7.611,7.611-7.611,19.951,0,27.562l34.239,34.239
				c7.611,7.611,19.951,7.611,27.562,0l0,0c7.611-7.611,7.611-19.951,0-27.562l-34.239-34.239
				C171.105,222.784,158.765,222.784,151.154,230.395z"/>
		</g>
		<g>
			<path class="st3" d="M132.655,267.021L132.655,267.021c-7.611,7.611-7.611,19.951,0,27.562l25.175,25.175
				c7.611,7.611,19.951,7.611,27.562,0l0,0c7.611-7.611,7.611-19.951,0-27.562l-25.175-25.175
				C152.606,259.41,140.266,259.41,132.655,267.021z"/>
		</g>
		<g>
			<path class="st3" d="M178.716,202.833L178.716,202.833c-7.611,7.611-7.611,19.951,0,27.562l34.239,34.239
				c7.611,7.611,19.951,7.611,27.562,0l0,0c7.611-7.611,7.611-19.951,0-27.562l-34.239-34.239
				C198.667,195.222,186.327,195.222,178.716,202.833z"/>
		</g>
		<g>
			<path class="st2" d="M199.174,303.893c-6.527,0-13.055-2.485-18.023-7.454L146.911,262.2c-4.813-4.814-7.465-11.215-7.465-18.024
				c0-6.809,2.651-13.209,7.466-18.024l-0.001,0c0.001,0,0.001,0,0.001,0c4.813-4.814,11.214-7.466,18.023-7.466
				c6.809,0,13.209,2.651,18.023,7.466l34.238,34.239c4.814,4.814,7.466,11.215,7.466,18.024c0,6.809-2.651,13.21-7.466,18.024
				C212.229,301.408,205.701,303.893,199.174,303.893z M164.936,230.687c-3.604,0-6.991,1.403-9.538,3.951c0,0,0,0-0.001,0
				c-2.548,2.548-3.95,5.936-3.95,9.539s1.402,6.99,3.95,9.538l34.239,34.239c5.259,5.259,13.816,5.259,19.077,0
				c2.548-2.548,3.95-5.936,3.95-9.539c0-3.603-1.402-6.991-3.95-9.539l-34.239-34.239
				C171.926,232.09,168.538,230.687,164.936,230.687z M151.154,230.395h0.01H151.154z"/>
		</g>
		<g>
			<path class="st2" d="M171.611,331.455c-6.527,0-13.055-2.485-18.023-7.454l-25.176-25.175
				c-4.813-4.814-7.465-11.215-7.465-18.024c0-6.809,2.651-13.21,7.466-18.024c9.938-9.938,26.109-9.938,36.047,0l25.176,25.175
				c4.813,4.814,7.465,11.215,7.465,18.024s-2.651,13.209-7.466,18.024C184.666,328.97,178.139,331.455,171.611,331.455z
				 M146.437,267.319c-3.455,0-6.908,1.314-9.539,3.945c-2.548,2.548-3.95,5.935-3.95,9.539c0,3.603,1.402,6.99,3.95,9.538
				l25.176,25.175c5.259,5.259,13.816,5.259,19.077,0c2.548-2.548,3.95-5.936,3.95-9.539s-1.402-6.99-3.95-9.538l-25.176-25.175
				C153.346,268.634,149.891,267.319,146.437,267.319z"/>
		</g>
		<g>
			<path class="st2" d="M226.736,276.33c-6.527,0-13.055-2.485-18.023-7.454l-34.239-34.239c-9.938-9.938-9.938-26.109-0.001-36.047
				l0.001,0c9.938-9.938,26.109-9.938,36.047,0l34.239,34.239c4.814,4.814,7.466,11.215,7.466,18.024
				c0,6.809-2.651,13.21-7.466,18.024C239.791,273.845,233.264,276.33,226.736,276.33z M182.959,207.075
				c-5.26,5.26-5.26,13.818,0,19.077l34.238,34.239c5.261,5.259,13.817,5.259,19.078,0c2.548-2.548,3.95-5.935,3.95-9.539
				c0-3.603-1.402-6.99-3.95-9.538l-34.239-34.239C196.775,201.816,188.219,201.816,182.959,207.075L182.959,207.075z"/>
		</g>
		<g>
			<path class="st6" d="M269.534,285.058c-25.603-25.603,0.506-49.947,0.506-49.947l-46.643,46.643
				c-7.611,7.611-19.951,7.611-27.562,0l0,0c-7.611-7.611-7.611-19.951,0-27.562L254,196.026c7.829-7.829,20.523-7.829,28.352,0
				l45.69,45.69c12.678,12.678,12.678,33.232,0,45.909h0l-28.741,28.741"/>
		</g>
		<g>
			<path class="st2" d="M309.557,312.111c-1.535,0-3.071-0.586-4.242-1.757c-2.344-2.343-2.344-6.142-0.001-8.485l18.486-18.486
				c4.998-4.998,7.75-11.644,7.75-18.712c0-7.069-2.752-13.714-7.75-18.712l-45.689-45.69c-5.478-5.478-14.391-5.477-19.868,0
				l-58.164,58.165c-2.548,2.548-3.95,5.935-3.95,9.538c0,3.603,1.402,6.991,3.95,9.539s5.936,3.951,9.538,3.951
				c3.604,0,6.991-1.403,9.538-3.951l45.959-45.959c0.463-0.479,0.762-0.761,0.835-0.83c2.396-2.232,6.135-2.133,8.408,0.221
				c2.273,2.354,2.24,6.096-0.074,8.41l-0.583,0.584c-1.884,1.967-9.27,10.341-9.412,20.773c-0.096,6.948,3.098,13.713,9.489,20.105
				c2.344,2.343,2.344,6.142,0.001,8.485c-2.344,2.343-6.144,2.343-8.485,0c-8.543-8.542-12.915-17.942-13.006-27.95l-24.646,24.646
				c-4.813,4.814-11.214,7.466-18.023,7.466c-6.809,0-13.209-2.651-18.023-7.466c-4.813-4.814-7.465-11.215-7.465-18.024
				c0-6.808,2.651-13.209,7.466-18.024l58.163-58.165c10.158-10.155,26.684-10.156,36.838,0l45.689,45.69
				c7.266,7.265,11.266,16.924,11.266,27.198c0,10.274-4,19.933-11.266,27.197L313.8,310.354
				C312.628,311.525,311.092,312.111,309.557,312.111z"/>
		</g>
		<g>
			<path class="st1" d="M224.89,166.32l-51.466-51.466c-7.611-7.611-19.951-7.611-27.562,0l0,0c-7.611,7.611-7.611,19.951,0,27.562
				l51.466,51.466L224.89,166.32z"/>
		</g>
		<g>
			<path class="st2" d="M176.946,179.5c-1.535,0-3.071-0.586-4.242-1.757c-2.344-2.343-2.344-6.142-0.001-8.485l27.562-27.562
				c2.344-2.343,6.144-2.343,8.485,0c2.344,2.343,2.344,6.142,0.001,8.485l-27.562,27.562
				C180.018,178.914,178.481,179.5,176.946,179.5z"/>
		</g>
		<g>
			<path class="st2" d="M156.035,158.589c-1.535,0-3.071-0.586-4.242-1.757c-2.344-2.343-2.344-6.142-0.001-8.485l27.562-27.562
				c2.344-2.343,6.144-2.343,8.485,0c2.344,2.343,2.344,6.142,0.001,8.485l-27.562,27.562
				C159.106,158.003,157.57,158.589,156.035,158.589z"/>
		</g>
		<g>
			<path class="st2" d="M197.327,199.882c-1.536,0-3.071-0.586-4.242-1.757l-51.465-51.466c-4.814-4.814-7.466-11.215-7.466-18.024
				c0-6.809,2.651-13.209,7.466-18.024c4.813-4.814,11.215-7.466,18.023-7.466s13.209,2.651,18.023,7.466l51.465,51.466
				c1.126,1.125,1.758,2.651,1.758,4.243s-0.632,3.117-1.758,4.243l-27.562,27.562C200.398,199.296,198.862,199.882,197.327,199.882
				z M159.644,115.146c-3.604,0-6.991,1.403-9.539,3.951s-3.95,5.935-3.95,9.538c0,3.603,1.402,6.991,3.95,9.539l47.223,47.223
				l19.077-19.077l-47.223-47.223C166.634,116.549,163.246,115.146,159.644,115.146z"/>
		</g>
		<g>
			<path class="st2" d="M150.039,187.913c-0.398,0-0.803-0.04-1.209-0.123c-3.246-0.665-5.34-3.835-4.675-7.081l3.655-17.856
				l-13.711,6.146c-3.025,1.356-6.573,0.002-7.929-3.021c-1.355-3.024-0.004-6.574,3.021-7.929l24.39-10.934
				c2.055-0.921,4.45-0.614,6.206,0.793c1.757,1.408,2.577,3.68,2.126,5.885l-6.002,29.322
				C155.33,185.955,152.83,187.912,150.039,187.913z"/>
		</g>
	</g>
</g>
</svg>
