<?xml version="1.0" encoding="utf-8"?>
<!-- Generator: Adobe Illustrator 16.0.0, SVG Export Plug-In . SVG Version: 6.00 Build 0)  -->
<!DOCTYPE svg PUBLIC "-//W3C//DTD SVG 1.1//EN" "http://www.w3.org/Graphics/SVG/1.1/DTD/svg11.dtd">
<svg version="1.1" id="Layer_1" xmlns="http://www.w3.org/2000/svg" xmlns:xlink="http://www.w3.org/1999/xlink" x="0px" y="0px"
	 width="128px" height="128px" viewBox="0 0 128 128" enable-background="new 0 0 128 128" xml:space="preserve">
<g>
	<g>
		<polygon fill="#282D33" points="53.726,99.128 49.726,99.128 49.726,80.572 64.829,72.487 66.718,76.014 53.726,82.969 		"/>
	</g>
	<g>
		<polygon fill="#282D33" points="32.688,62.327 28.688,62.327 28.688,43.772 43.791,35.685 45.679,39.21 32.688,46.168 		"/>
	</g>
	<g>
		<polygon fill="#282D33" points="74.676,62.327 70.677,62.327 70.677,43.854 85.67,34.588 87.773,37.99 74.676,46.085 		"/>
	</g>
	<g>
		<polygon fill="#282D33" points="23.059,115.326 21.053,111.865 41.022,100.291 41.022,78.294 22.056,67.302 2.094,78.872 
			0.088,75.411 22.056,62.679 45.022,75.989 45.022,102.596 		"/>
	</g>
	<g>
		<path fill="#282D33" d="M64.044,115.907l-22.965-13.312V75.989l22.965-13.311l22.965,13.311v26.606L64.044,115.907z
			 M45.079,100.291l18.965,10.993l18.965-10.993V78.294L64.044,67.302L45.079,78.294V100.291z"/>
	</g>
	<g>
		<polygon fill="#282D33" points="105.028,115.326 83.067,102.596 83.067,75.989 106.031,62.679 128,75.411 125.994,78.872 
			106.031,67.302 87.067,78.294 87.067,100.291 107.034,111.865 		"/>
	</g>
	<g>
		<polygon fill="#282D33" points="2.02,78.521 0.014,75.061 19.981,63.489 19.981,41.492 0.014,29.918 2.02,26.457 23.981,39.188 
			23.981,65.794 		"/>
	</g>
	<g>
		<path fill="#282D33" d="M43.005,79.103L20.04,65.794V39.188l22.965-13.312l22.966,13.312v26.606L43.005,79.103z M24.04,63.489
			L43.005,74.48L61.97,63.489V41.492L43.005,30.499L24.04,41.492V63.489z"/>
	</g>
	<g>
		<path fill="#282D33" d="M84.992,79.103L62.029,65.794V39.188l22.963-13.312l22.967,13.312v26.606L84.992,79.103z M66.028,63.489
			L84.992,74.48l18.967-10.991V41.492L84.992,30.499L66.028,41.492V63.489z"/>
	</g>
	<g>
		<polygon fill="#282D33" points="125.979,78.521 104.018,65.794 104.018,39.188 125.979,26.457 127.984,29.918 108.018,41.492 
			108.018,63.489 127.984,75.061 		"/>
	</g>
	<g>
		<polygon fill="#282D33" points="21.966,42.302 0,29.567 2.006,26.106 21.966,37.678 40.931,26.685 40.931,12.093 44.931,12.093 
			44.931,28.989 		"/>
	</g>
	<g>
		<polygon fill="#282D33" points="63.955,42.302 40.99,28.989 40.99,12.093 44.99,12.093 44.99,26.685 63.955,37.679 82.92,26.685 
			82.92,12.093 86.92,12.093 86.92,28.989 		"/>
	</g>
	<g>
		<polygon fill="#282D33" points="105.943,42.302 82.978,28.989 82.978,12.093 86.978,12.093 86.978,26.685 105.943,37.679 
			125.905,26.106 127.911,29.567 		"/>
	</g>
</g>
</svg>
