<?xml version="1.0" encoding="utf-8"?>
<!-- Generator: Adobe Illustrator 22.1.0, SVG Export Plug-In . SVG Version: 6.00 Build 0)  -->
<svg version="1.1" id="Icon_Set" xmlns="http://www.w3.org/2000/svg" xmlns:xlink="http://www.w3.org/1999/xlink" x="0px" y="0px"
	 viewBox="0 0 512 512" style="enable-background:new 0 0 512 512;" xml:space="preserve">
<style type="text/css">
	.st0{fill:#F0C48A;}
	.st1{fill:#FD919E;}
	.st2{fill:#4C4372;}
	.st3{fill:#D3E6F8;}
	.st4{fill:#A4CFF2;}
	.st5{fill:#7BABF1;}
	.st6{fill:#FFFFFF;}
	.st7{fill:#E8677D;}
	.st8{fill:none;stroke:#4C4372;stroke-width:12;stroke-linecap:round;stroke-linejoin:round;stroke-miterlimit:10;}
</style>
<g id="Forceps_1">
	<g>
		<g>
			<circle class="st0" cx="256" cy="256" r="207"/>
		</g>
	</g>
	<g>
		<g>
			<path class="st1" d="M269.397,271.1l-142.8,71.884c-9.35,4.707-20.748,1.293-25.971-7.779l0,0
				c-5.223-9.071-2.453-20.643,6.312-26.366l133.863-87.405l130.233-74.982c13.715-7.896,31.234-3.18,39.131,10.535l0,0
				c7.896,13.715,3.18,31.234-10.535,39.131L269.397,271.1z"/>
		</g>
		<g>
			<path class="st2" d="M117.753,351.092c-8.933,0-17.586-4.66-22.326-12.893c-6.807-11.821-3.191-26.925,8.231-34.384
				l133.864-87.404c0.094-0.062,0.189-0.12,0.287-0.177l130.233-74.982c16.56-9.533,37.789-3.818,47.324,12.741
				c9.535,16.561,3.819,37.79-12.741,47.325l-130.233,74.982c-0.097,0.056-0.196,0.108-0.296,0.159l-142.8,71.884
				C125.596,350.206,121.647,351.092,117.753,351.092z M243.941,226.551l-133.722,87.312c-6.095,3.98-8.025,12.041-4.393,18.349
				c3.632,6.31,11.571,8.686,18.073,5.414l142.649-71.808l130.088-74.899c5.244-3.019,8.999-7.899,10.572-13.743
				s0.777-11.949-2.243-17.193s-7.9-8.999-13.744-10.572c-5.842-1.571-11.949-0.776-17.193,2.243L243.941,226.551z M269.397,271.101
				h0.01H269.397z"/>
		</g>
		<g>
			<path class="st3" d="M299.353,297.818L180.152,404.355c-7.805,6.975-19.698,6.642-27.1-0.76l0,0
				c-7.402-7.402-7.735-19.295-0.76-27.1l106.537-119.201L365.09,151.033c11.19-11.19,29.334-11.19,40.524,0l0,0
				c11.19,11.19,11.19,29.334,0,40.524L299.353,297.818z"/>
		</g>
		<g>
			<path class="st4" d="M405.614,151.033L405.614,151.033c-1.904-1.904-4.013-3.476-6.251-4.732
				c6.126,10.916,4.554,24.987-4.733,34.273L286.955,285.42L169.168,393.371c-5.75,5.139-13.716,6.297-20.474,3.598
				c0.965,2.414,2.41,4.677,4.358,6.626c7.402,7.402,19.295,7.735,27.1,0.76l119.201-106.537l106.261-106.261
				C416.805,180.366,416.805,162.223,405.614,151.033z"/>
		</g>
		<g>
			<path class="st2" d="M167.008,415.369c-6.603,0-13.192-2.524-18.199-7.53c-9.646-9.647-10.081-25.171-0.991-35.342
				l106.537-119.201c0.075-0.084,0.152-0.165,0.231-0.244l106.261-106.261c13.512-13.514,35.498-13.514,49.009,0
				c13.512,13.512,13.512,35.496,0,49.008L303.596,302.061c-0.079,0.08-0.161,0.157-0.244,0.231L184.15,408.828
				C179.258,413.2,173.126,415.369,167.008,415.369z M263.191,261.417L156.766,380.493c-4.851,5.428-4.619,13.712,0.529,18.86
				c5.147,5.146,13.431,5.379,18.859,0.527l119.076-106.424l106.142-106.143c8.833-8.833,8.833-23.206,0-32.039
				c-8.833-8.832-23.206-8.831-32.039,0L263.191,261.417z M299.353,297.818h0.01H299.353z"/>
		</g>
		<g>
			<path class="st2" d="M356.685,246.486c-1.536,0-3.071-0.586-4.243-1.758l-40.524-40.523c-2.343-2.343-2.343-6.142,0-8.484
				c2.343-2.344,6.142-2.344,8.485,0l40.524,40.523c2.343,2.343,2.343,6.142,0,8.484C359.756,245.9,358.22,246.486,356.685,246.486z
				"/>
		</g>
		<g>
			<path class="st2" d="M337.655,265.517c-1.536,0-3.071-0.586-4.243-1.758l-40.524-40.524c-2.343-2.343-2.343-6.142,0-8.484
				c2.343-2.345,6.142-2.343,8.485,0l40.524,40.524c2.343,2.343,2.343,6.142,0,8.484
				C340.726,264.931,339.19,265.517,337.655,265.517z"/>
		</g>
		<g>
			<path class="st2" d="M318.625,284.546c-1.536,0-3.071-0.586-4.243-1.757l-40.524-40.523c-2.343-2.344-2.343-6.143,0-8.485
				c2.343-2.344,6.142-2.343,8.485-0.001l40.524,40.523c2.343,2.344,2.343,6.143,0,8.485
				C321.696,283.96,320.161,284.546,318.625,284.546z"/>
		</g>
		<g>
			<path class="st2" d="M299.595,303.576c-1.536,0-3.071-0.586-4.243-1.758l-40.524-40.524c-2.343-2.343-2.343-6.142,0-8.484
				c2.343-2.344,6.143-2.344,8.485,0l40.524,40.524c2.343,2.343,2.343,6.142,0,8.484
				C302.667,302.99,301.131,303.576,299.595,303.576z"/>
		</g>
		<g>
			<circle class="st2" cx="384.999" cy="171.648" r="9.122"/>
		</g>
	</g>
</g>
</svg>
