<?xml version="1.0" encoding="utf-8"?>
<!-- Generator: Adobe Illustrator 22.1.0, SVG Export Plug-In . SVG Version: 6.00 Build 0)  -->
<svg version="1.1" id="Icon_Set" xmlns="http://www.w3.org/2000/svg" xmlns:xlink="http://www.w3.org/1999/xlink" x="0px" y="0px"
	 viewBox="0 0 512 512" style="enable-background:new 0 0 512 512;" xml:space="preserve">
<style type="text/css">
	.st0{fill:#F0C48A;}
	.st1{fill:#FD919E;}
	.st2{fill:#4C4372;}
	.st3{fill:#D3E6F8;}
	.st4{fill:#A4CFF2;}
	.st5{fill:#7BABF1;}
	.st6{fill:#FFFFFF;}
	.st7{fill:#E8677D;}
	.st8{fill:none;stroke:#4C4372;stroke-width:12;stroke-linecap:round;stroke-linejoin:round;stroke-miterlimit:10;}
</style>
<g id="Bladder">
	<g>
		<g>
			<circle class="st0" cx="256" cy="256" r="207"/>
		</g>
	</g>
	<g>
		<g>
			<g>
				<g>
					<path class="st7" d="M208.735,234.661c-1.171,0-2.362-0.168-3.541-0.522l-35.331-10.599
						c-25.572-7.671-42.754-30.764-42.754-57.462v-27.12c0-6.796,5.51-12.306,12.306-12.306c6.796,0,12.306,5.51,12.306,12.306
						v27.12c0,15.745,10.132,29.364,25.214,33.889l35.331,10.599c6.51,1.953,10.204,8.813,8.251,15.323
						C218.919,231.219,214.029,234.661,208.735,234.661z"/>
				</g>
			</g>
			<g>
				<g>
					<path class="st7" d="M303.265,234.661c-5.293,0-10.183-3.442-11.782-8.773c-1.954-6.51,1.741-13.37,8.251-15.323l35.331-10.599
						c15.082-4.524,25.214-18.144,25.214-33.889v-27.12c0-6.796,5.51-12.306,12.306-12.306s12.306,5.51,12.306,12.306v27.12
						c0,26.698-17.181,49.791-42.754,57.462l-35.331,10.599C305.627,234.493,304.436,234.661,303.265,234.661z"/>
				</g>
			</g>
		</g>
		<g>
			<g>
				<g>
					<path class="st2" d="M208.735,240.661c-1.782,0-3.556-0.262-5.269-0.776l-35.326-10.598
						c-28.131-8.439-47.03-33.842-47.03-63.21v-27.12c0-10.094,8.212-18.306,18.306-18.306c10.095,0,18.307,8.212,18.307,18.306
						v27.12c0,13.075,8.414,24.385,20.937,28.142l35.332,10.6c4.683,1.404,8.539,4.549,10.857,8.855
						c2.318,4.305,2.821,9.256,1.416,13.939C223.961,235.295,216.753,240.661,208.735,240.661z M139.416,132.651
						c-3.477,0-6.306,2.829-6.306,6.306v27.12c0,24.028,15.463,44.812,38.478,51.716l35.33,10.599c0.597,0.18,1.206,0.27,1.817,0.27
						c2.76,0,5.241-1.849,6.035-4.496c0.484-1.614,0.311-3.319-0.487-4.803c-0.799-1.482-2.127-2.566-3.74-3.05l-35.332-10.6
						c-17.638-5.292-29.488-21.22-29.488-39.636v-27.12C145.723,135.48,142.894,132.651,139.416,132.651z"/>
				</g>
			</g>
			<g>
				<g>
					<path class="st2" d="M303.265,240.661c-8.018,0-15.226-5.366-17.529-13.049c-1.405-4.683-0.902-9.634,1.416-13.938
						c2.318-4.307,6.175-7.451,10.858-8.855l35.33-10.6c12.523-3.757,20.938-15.066,20.938-28.142v-27.12
						c0-10.094,8.212-18.306,18.307-18.306c10.094,0,18.306,8.212,18.306,18.306v27.12c0,29.368-18.899,54.771-47.029,63.21
						l-35.331,10.599C306.82,240.399,305.047,240.661,303.265,240.661z M372.584,132.651c-3.478,0-6.307,2.829-6.307,6.306v27.12
						c0,18.416-11.851,34.344-29.489,39.636l-35.33,10.6c-1.614,0.483-2.942,1.567-3.741,3.05c-0.798,1.483-0.972,3.188-0.487,4.802
						c0.794,2.648,3.275,4.497,6.035,4.497c0.611,0,1.221-0.09,1.813-0.269l35.334-10.6c23.015-6.904,38.478-27.688,38.478-51.716
						v-27.12C378.89,135.48,376.061,132.651,372.584,132.651z"/>
				</g>
			</g>
		</g>
		<g>
			<path class="st1" d="M295.889,176.321h-79.777c-25.946,0-46.98,21.035-46.98,46.98v39.888c0,43.474,31.935,79.489,73.625,85.866
				v43.051c0,7.314,5.929,13.243,13.243,13.243c7.314,0,13.243-5.929,13.243-13.243v-43.051
				c41.691-6.377,73.625-42.392,73.625-85.866v-39.888C342.868,197.355,321.835,176.321,295.889,176.321z"/>
		</g>
		<g>
			<path class="st7" d="M295.889,176.321h-23.885c25.946,0,46.98,21.035,46.98,46.98v39.888c0,43.474-31.935,79.489-73.625,85.866
				v43.051c0,2.041-0.475,3.967-1.3,5.693c2.13,4.46,6.67,7.549,11.943,7.549c7.314,0,13.243-5.929,13.243-13.243v-43.051
				c41.691-6.377,73.625-42.392,73.625-85.866v-39.888C342.868,197.355,321.835,176.321,295.889,176.321z"/>
		</g>
		<g>
			<path class="st2" d="M256,411.349c-10.61,0-19.243-8.633-19.243-19.243V354.06c-19.719-4.165-37.668-14.727-50.981-30.099
				c-14.603-16.858-22.644-38.441-22.644-60.771v-39.889c0-29.213,23.767-52.979,52.979-52.979h79.777
				c29.213,0,52.979,23.767,52.979,52.979v39.889c0,22.33-8.041,43.913-22.644,60.771c-13.313,15.372-31.263,25.934-50.981,30.099
				v38.046C275.243,402.716,266.61,411.349,256,411.349z M216.111,182.321c-22.596,0-40.979,18.384-40.979,40.979v39.889
				c0,19.445,7.001,38.237,19.714,52.916c12.587,14.533,29.925,24.128,48.818,27.019c2.93,0.447,5.093,2.967,5.093,5.931v43.051
				c0,3.994,3.249,7.243,7.243,7.243s7.243-3.249,7.243-7.243v-43.051c0-2.964,2.163-5.483,5.093-5.931
				c18.894-2.891,36.231-12.485,48.818-27.019c12.713-14.679,19.714-33.471,19.714-52.916v-39.889
				c0-22.596-18.384-40.979-40.979-40.979H216.111z"/>
		</g>
		<g>
			<path class="st3" d="M318.983,256.654v6.159c0,34.784-28.198,62.983-62.983,62.983h0c-34.785,0-62.983-28.198-62.983-62.983
				v-6.159c0,0,36.445-22.486,62.983,0S318.983,256.654,318.983,256.654z"/>
		</g>
		<g>
			<path class="st2" d="M256,331.796c-38.037,0-68.983-30.945-68.983-68.982v-6.159c0-2.081,1.078-4.014,2.85-5.106
				c0.407-0.251,10.115-6.181,23.367-9.178c18.172-4.108,34.301-0.753,46.646,9.706c9.49,8.042,21.682,10.448,36.241,7.158
				c11.322-2.561,19.63-7.636,19.713-7.687c1.851-1.142,4.175-1.192,6.074-0.133s3.076,3.064,3.076,5.239v6.159
				C324.983,300.851,294.037,331.796,256,331.796z M199.017,260.203v2.61c0,31.42,25.562,56.982,56.983,56.982
				c30.226,0,55.031-23.656,56.874-53.425c-3.844,1.62-8.678,3.34-14.107,4.567c-18.173,4.11-34.301,0.754-46.646-9.706
				c-9.491-8.044-21.685-10.449-36.241-7.158C208.494,255.745,202.391,258.485,199.017,260.203z"/>
		</g>
	</g>
</g>
</svg>
