<?xml version="1.0" encoding="utf-8"?>
<!-- Generator: Adobe Illustrator 22.1.0, SVG Export Plug-In . SVG Version: 6.00 Build 0)  -->
<svg version="1.1" id="Icon_Set" xmlns="http://www.w3.org/2000/svg" xmlns:xlink="http://www.w3.org/1999/xlink" x="0px" y="0px"
	 viewBox="0 0 512 512" style="enable-background:new 0 0 512 512;" xml:space="preserve">
<style type="text/css">
	.st0{fill:#F0C48A;}
	.st1{fill:#FD919E;}
	.st2{fill:#4C4372;}
	.st3{fill:#D3E6F8;}
	.st4{fill:#A4CFF2;}
	.st5{fill:#7BABF1;}
	.st6{fill:#FFFFFF;}
	.st7{fill:#E8677D;}
	.st8{fill:none;stroke:#4C4372;stroke-width:12;stroke-linecap:round;stroke-linejoin:round;stroke-miterlimit:10;}
</style>
<g id="Pacemaker">
	<g>
		<g>
			<circle class="st0" cx="256" cy="256" r="207"/>
		</g>
	</g>
	<g>
		<g>
			<path class="st5" d="M424.104,182.226l-44.328,0c-10.211,0-18.489-8.278-18.489-18.489v0c0-10.211,8.278-18.489,18.489-18.489
				h13.599c16.971,0,30.729,13.758,30.729,30.729V182.226z"/>
		</g>
		<g>
			<path class="st5" d="M393.376,245.043h-18.575c-17.347,0-31.409-14.062-31.409-31.409v0c0-17.347,14.062-31.409,31.409-31.409
				l49.304,0v32.089C424.104,231.285,410.347,245.043,393.376,245.043z"/>
		</g>
		<g>
			<g>
				<path class="st1" d="M105.799,214.806L105.799,214.806c-23.871,23.871-23.871,62.574,0,86.445L211.3,406.753l105.501-105.501
					c23.871-23.871,23.871-62.574,0-86.445l0,0c-23.871-23.871-62.574-23.871-86.445,0L211.3,233.862l-19.056-19.056
					C168.373,190.935,129.67,190.935,105.799,214.806z"/>
			</g>
			<g>
				<g>
					<path class="st7" d="M316.801,214.806L316.801,214.806c-16.226-16.226-39.301-21.409-59.916-15.578
						c9.714,2.748,18.883,7.932,26.529,15.577l0,0c23.871,23.871,23.871,62.574,0,86.445l-88.808,88.808l16.694,16.693
						l105.501-105.501C340.673,277.38,340.673,238.678,316.801,214.806z"/>
				</g>
			</g>
			<g>
				<path class="st2" d="M211.3,412.753c-1.535,0-3.071-0.586-4.242-1.758L101.557,305.494c-26.173-26.173-26.172-68.758,0-94.93
					c26.172-26.174,68.758-26.174,94.93,0l14.813,14.812l14.814-14.813c26.173-26.174,68.758-26.173,94.929,0
					c26.173,26.172,26.174,68.758,0.001,94.93L215.542,410.995C214.371,412.167,212.835,412.753,211.3,412.753z M149.021,202.929
					c-14.116,0-28.233,5.374-38.98,16.12c-21.493,21.494-21.493,56.467,0.001,77.961L211.3,398.268l101.26-101.259
					c21.493-21.494,21.493-56.466,0-77.96c-21.494-21.492-56.467-21.493-77.961-0.001l-19.057,19.057
					c-2.342,2.344-6.143,2.344-8.484,0l-19.056-19.056C177.255,208.303,163.138,202.929,149.021,202.929z"/>
			</g>
		</g>
		<g>
			<path class="st2" d="M216.608,344.589c-0.046,0-0.091-0.001-0.137-0.002c-2.419-0.055-4.568-1.557-5.451-3.81l-24.196-61.772
				l-15.699,30.971c-1.022,2.017-3.091,3.287-5.352,3.287H93.472c-3.313,0-6-2.687-6-6s2.687-6,6-6h68.616l20.088-39.628
				c1.069-2.108,3.281-3.4,5.639-3.28c2.362,0.113,4.438,1.604,5.3,3.805l23.845,60.877l21.068-47.356
				c0.958-2.153,3.087-3.546,5.443-3.562c2.378,0.021,4.504,1.351,5.489,3.49l11.816,25.654h74.929c3.313,0,6,2.687,6,6
				s-2.687,6-6,6h-78.771c-2.342,0-4.47-1.362-5.449-3.49l-7.88-17.106l-21.515,48.361
				C221.124,343.196,218.974,344.589,216.608,344.589z"/>
		</g>
		<g>
			<g>
				<circle class="st5" cx="277.252" cy="244.569" r="16.417"/>
			</g>
			<g>
				<path class="st2" d="M277.252,266.986c-12.36,0-22.417-10.057-22.417-22.417c0-12.361,10.057-22.418,22.417-22.418
					s22.417,10.057,22.417,22.418C299.669,256.93,289.612,266.986,277.252,266.986z M277.252,234.151
					c-5.744,0-10.417,4.674-10.417,10.418s4.673,10.417,10.417,10.417s10.417-4.673,10.417-10.417S282.996,234.151,277.252,234.151z
					"/>
			</g>
		</g>
		<g>
			<path class="st2" d="M277.252,234.151c-3.313,0-6-2.687-6-6v-46.503c0-18.446,15.007-33.453,33.453-33.453h54.793
				c3.313,0,6,2.687,6,6s-2.687,6-6,6h-54.793c-11.829,0-21.453,9.624-21.453,21.453v46.503
				C283.252,231.465,280.565,234.151,277.252,234.151z"/>
		</g>
		<g>
			<path class="st2" d="M424.104,188.226h-44.328c-13.504,0-24.489-10.985-24.489-24.489s10.985-24.489,24.489-24.489h13.6
				c20.252,0,36.729,16.477,36.729,36.729v6.249C430.104,185.539,427.418,188.226,424.104,188.226z M379.776,151.247
				c-6.887,0-12.489,5.603-12.489,12.489s5.603,12.489,12.489,12.489h38.328v-0.249c0-13.636-11.093-24.729-24.729-24.729H379.776z"
				/>
		</g>
		<g>
			<path class="st2" d="M393.376,251.043h-18.575c-20.628,0-37.409-16.781-37.409-37.408c0-20.628,16.781-37.409,37.409-37.409
				h49.304c3.313,0,6,2.687,6,6v32.089C430.104,234.566,413.628,251.043,393.376,251.043z M374.801,188.226
				c-14.011,0-25.409,11.398-25.409,25.409c0,14.01,11.398,25.408,25.409,25.408h18.575c13.636,0,24.729-11.093,24.729-24.729
				v-26.089H374.801z"/>
		</g>
	</g>
</g>
</svg>
