<?xml version="1.0" encoding="utf-8"?>
<!-- Generator: Adobe Illustrator 22.1.0, SVG Export Plug-In . SVG Version: 6.00 Build 0)  -->
<svg version="1.1" id="Icon_Set" xmlns="http://www.w3.org/2000/svg" xmlns:xlink="http://www.w3.org/1999/xlink" x="0px" y="0px"
	 viewBox="0 0 512 512" style="enable-background:new 0 0 512 512;" xml:space="preserve">
<style type="text/css">
	.st0{fill:#F0C48A;}
	.st1{fill:#FD919E;}
	.st2{fill:#4C4372;}
	.st3{fill:#D3E6F8;}
	.st4{fill:#A4CFF2;}
	.st5{fill:#7BABF1;}
	.st6{fill:#FFFFFF;}
	.st7{fill:#E8677D;}
	.st8{fill:none;stroke:#4C4372;stroke-width:12;stroke-linecap:round;stroke-linejoin:round;stroke-miterlimit:10;}
</style>
<g id="Disabled">
	<g>
		<g>
			<circle class="st0" cx="256" cy="256" r="207"/>
		</g>
	</g>
	<g>
		<g>
			<rect x="277.611" y="232.298" class="st3" width="18.983" height="46.07"/>
		</g>
		<g>
			
				<rect x="126.147" y="130.36" transform="matrix(-1.836970e-16 1 -1 -1.836970e-16 289.0336 17.7569)" class="st3" width="18.983" height="46.07"/>
		</g>
		<g>
			<path class="st2" d="M296.594,284.368h-18.983c-3.313,0-6-2.687-6-6v-46.07c0-3.313,2.687-6,6-6h18.983c3.313,0,6,2.687,6,6
				v46.07C302.594,281.681,299.908,284.368,296.594,284.368z M283.611,272.368h6.983v-34.07h-6.983V272.368z"/>
		</g>
		<g>
			<path class="st2" d="M158.673,168.887h-46.07c-3.313,0-6-2.687-6-6v-18.983c0-3.313,2.687-6,6-6h46.07c3.313,0,6,2.687,6,6
				v18.983C164.673,166.2,161.987,168.887,158.673,168.887z M118.604,156.887h34.07v-6.983h-34.07V156.887z"/>
		</g>
		<g>
			<path class="st1" d="M115.8,168.255H80.358c-8.207,0-14.86-6.653-14.86-14.86v0c0-8.207,6.653-14.86,14.86-14.86H115.8
				c8.207,0,14.86,6.653,14.86,14.86v0C130.66,161.602,124.007,168.255,115.8,168.255z"/>
		</g>
		<g>
			<g>
				<path class="st6" d="M366.137,365.801c-3.581,0-7.052-1.902-8.895-5.264l-33.93-61.903h-121.73
					c-4.501,0-8.462-2.968-9.725-7.288l-44.922-153.547c-1.571-5.371,1.509-10.999,6.88-12.571c5.371-1.572,11,1.509,12.571,6.88
					l42.79,146.259h120.137c3.701,0,7.107,2.018,8.886,5.263l36.815,67.165c2.69,4.907,0.892,11.066-4.015,13.757
					C369.453,365.399,367.783,365.801,366.137,365.801z"/>
			</g>
		</g>
		<g>
			<g>
				<path class="st1" d="M366.134,365.801c-3.87,0-7.564-2.228-9.251-5.987c-2.291-5.106-0.009-11.102,5.097-13.393l70.239-31.517
					c5.108-2.292,11.102-0.009,13.393,5.097c2.291,5.106,0.009,11.102-5.097,13.393l-70.239,31.517
					C368.929,365.515,367.52,365.801,366.134,365.801z"/>
			</g>
		</g>
		<g>
			<g>
				<path class="st2" d="M366.137,371.801c-5.898,0-11.322-3.211-14.156-8.379l-32.222-58.788H201.582
					c-7.118,0-13.485-4.771-15.484-11.604l-44.922-153.547c-1.21-4.135-0.737-8.495,1.332-12.275
					c2.069-3.78,5.486-6.529,9.622-7.739c4.135-1.209,8.495-0.737,12.275,1.332c3.781,2.069,6.529,5.487,7.739,9.623l41.527,141.943
					h115.641c5.894,0,11.315,3.21,14.147,8.378l36.815,67.166c2.071,3.778,2.547,8.138,1.34,12.274s-3.954,7.556-7.732,9.627
					C371.511,371.113,368.832,371.801,366.137,371.801z M156.666,130.818c-0.39,0-0.781,0.056-1.166,0.168
					c-1.061,0.31-1.936,1.014-2.466,1.983c-0.53,0.968-0.651,2.085-0.341,3.145l44.922,153.547c0.512,1.75,2.143,2.973,3.966,2.973
					h121.73c2.191,0,4.208,1.194,5.261,3.116l33.93,61.903c0.727,1.325,2.119,2.148,3.634,2.148c0.694,0,1.36-0.172,1.978-0.51
					c1.999-1.096,2.733-3.613,1.638-5.611l-36.815-67.166c-0.726-1.324-2.114-2.146-3.625-2.146H209.175
					c-2.665,0-5.01-1.758-5.759-4.315l-42.79-146.259c-0.31-1.06-1.014-1.936-1.982-2.465
					C158.027,130.99,157.35,130.818,156.666,130.818z"/>
			</g>
		</g>
		<g>
			<path class="st2" d="M115.8,174.255H80.358c-11.502,0-20.86-9.358-20.86-20.86c0-11.502,9.358-20.86,20.86-20.86H115.8
				c11.502,0,20.86,9.358,20.86,20.86C136.66,164.897,127.302,174.255,115.8,174.255z M80.358,144.535
				c-4.886,0-8.86,3.975-8.86,8.86c0,4.886,3.975,8.86,8.86,8.86H115.8c4.885,0,8.86-3.975,8.86-8.86c0-4.886-3.975-8.86-8.86-8.86
				H80.358z"/>
		</g>
		<g>
			<g>
				<path class="st2" d="M366.134,371.801c-6.348,0-12.128-3.741-14.725-9.531c-1.765-3.931-1.892-8.314-0.359-12.342
					s4.542-7.217,8.474-8.981l70.239-31.517c3.931-1.765,8.316-1.892,12.343-0.36c4.027,1.533,7.216,4.542,8.98,8.475
					c1.765,3.931,1.892,8.314,0.359,12.342s-4.542,7.217-8.474,8.981l-70.239,31.517
					C370.638,371.325,368.417,371.801,366.134,371.801z M436.367,320.013c-0.576,0-1.15,0.122-1.692,0.365l-70.239,31.517
					c-1.007,0.452-1.778,1.269-2.171,2.301s-0.36,2.154,0.092,3.161c0.666,1.485,2.148,2.444,3.777,2.444
					c0.579,0,1.146-0.123,1.686-0.365l70.239-31.517c1.007-0.452,1.778-1.269,2.171-2.301s0.36-2.154-0.092-3.161
					c-0.452-1.009-1.269-1.78-2.3-2.172C437.359,320.104,436.863,320.013,436.367,320.013z"/>
			</g>
		</g>
		<g>
			<circle class="st4" cx="195.097" cy="320.145" r="67.038"/>
		</g>
		<g>
			<circle class="st6" cx="195.097" cy="320.145" r="44.922"/>
		</g>
		<g>
			<path class="st2" d="M195.097,393.183c-40.273,0-73.038-32.765-73.038-73.038c0-40.273,32.765-73.038,73.038-73.038
				s73.038,32.765,73.038,73.038C268.135,360.418,235.37,393.183,195.097,393.183z M195.097,259.107
				c-33.657,0-61.038,27.381-61.038,61.038c0,33.657,27.381,61.038,61.038,61.038s61.038-27.381,61.038-61.038
				C256.135,286.488,228.753,259.107,195.097,259.107z"/>
		</g>
		<g>
			<path class="st2" d="M195.097,371.067c-28.079,0-50.922-22.844-50.922-50.922s22.843-50.922,50.922-50.922
				s50.922,22.843,50.922,50.922S223.175,371.067,195.097,371.067z M195.097,281.223c-21.461,0-38.922,17.46-38.922,38.922
				c0,21.462,17.46,38.922,38.922,38.922s38.922-17.46,38.922-38.922C234.019,298.683,216.558,281.223,195.097,281.223z"/>
		</g>
		<g>
			<circle class="st5" cx="195.097" cy="320.145" r="18.111"/>
		</g>
		<g>
			<path class="st2" d="M195.097,344.256c-13.295,0-24.111-10.816-24.111-24.111s10.816-24.111,24.111-24.111
				s24.111,10.816,24.111,24.111S208.392,344.256,195.097,344.256z M195.097,308.033c-6.678,0-12.111,5.433-12.111,12.111
				s5.433,12.111,12.111,12.111s12.111-5.433,12.111-12.111S201.775,308.033,195.097,308.033z"/>
		</g>
		<g>
			<circle class="st4" cx="366.128" cy="355.666" r="31.517"/>
		</g>
		<g>
			<path class="st2" d="M366.141,393.183c-0.154,0-0.307-0.001-0.461-0.003c-10.02-0.12-19.395-4.134-26.396-11.304
				c-7-7.17-10.79-16.637-10.67-26.658s4.134-19.395,11.304-26.396c7.17-7.001,16.666-10.789,26.658-10.67
				c20.685,0.247,37.312,17.277,37.065,37.962c-0.12,10.021-4.134,19.395-11.304,26.396
				C385.278,389.402,375.989,393.183,366.141,393.183z M366.119,330.149c-6.699,0-13.016,2.571-17.817,7.26
				c-4.877,4.761-7.607,11.137-7.689,17.953c-0.082,6.815,2.496,13.254,7.258,18.131c4.761,4.876,11.137,7.607,17.952,7.688
				c6.834,0.065,13.255-2.497,18.131-7.258s7.607-11.137,7.688-17.952c0,0,0,0,0,0c0.082-6.815-2.496-13.254-7.257-18.131
				c-4.762-4.876-11.137-7.607-17.953-7.688C366.328,330.15,366.224,330.149,366.119,330.149z"/>
		</g>
		<g>
			<circle class="st5" cx="366.128" cy="355.666" r="12.707"/>
		</g>
		<g>
			<path class="st2" d="M366.134,374.373c-0.077,0-0.153,0-0.23-0.001c-4.996-0.06-9.67-2.061-13.161-5.636
				c-3.491-3.576-5.381-8.296-5.321-13.292c0.06-4.997,2.062-9.67,5.637-13.161s8.301-5.376,13.292-5.321
				c4.997,0.06,9.67,2.062,13.161,5.637c3.491,3.575,5.381,8.295,5.321,13.292c-0.06,4.996-2.061,9.67-5.636,13.162
				C375.676,372.488,371.045,374.373,366.134,374.373z M366.125,348.959c-1.761,0-3.42,0.676-4.683,1.908
				c-1.282,1.252-2,2.928-2.021,4.719c-0.021,1.791,0.656,3.483,1.908,4.765s2.927,2,4.718,2.021
				c1.789,0.025,3.484-0.656,4.766-1.908c1.282-1.251,2-2.927,2.021-4.718v0c0.021-1.791-0.656-3.483-1.907-4.765
				c-1.252-1.282-2.928-2-4.719-2.021C366.18,348.959,366.152,348.959,366.125,348.959z"/>
		</g>
		<g>
			<g>
				<path class="st1" d="M308.154,232.298H192.732c-5.597,0-10.133-4.537-10.133-10.133c0-5.596,4.537-10.133,10.133-10.133h115.422
					c5.597,0,10.133,4.537,10.133,10.133C318.287,227.761,313.75,232.298,308.154,232.298z"/>
			</g>
		</g>
		<g>
			<g>
				<path class="st2" d="M308.154,238.298H192.732c-8.896,0-16.133-7.237-16.133-16.133s7.237-16.133,16.133-16.133h115.421
					c8.896,0,16.133,7.237,16.133,16.133S317.05,238.298,308.154,238.298z M192.732,218.031c-2.279,0-4.133,1.854-4.133,4.133
					s1.854,4.133,4.133,4.133h115.421c2.279,0,4.133-1.854,4.133-4.133s-1.854-4.133-4.133-4.133H192.732z"/>
			</g>
		</g>
	</g>
</g>
</svg>
