<?xml version="1.0" encoding="utf-8"?>
<!-- Generator: Adobe Illustrator 22.1.0, SVG Export Plug-In . SVG Version: 6.00 Build 0)  -->
<svg version="1.1" id="Icon_Set" xmlns="http://www.w3.org/2000/svg" xmlns:xlink="http://www.w3.org/1999/xlink" x="0px" y="0px"
	 viewBox="0 0 512 512" style="enable-background:new 0 0 512 512;" xml:space="preserve">
<style type="text/css">
	.st0{fill:#F0C48A;}
	.st1{fill:#FD919E;}
	.st2{fill:#4C4372;}
	.st3{fill:#D3E6F8;}
	.st4{fill:#A4CFF2;}
	.st5{fill:#7BABF1;}
	.st6{fill:#FFFFFF;}
	.st7{fill:#E8677D;}
	.st8{fill:none;stroke:#4C4372;stroke-width:12;stroke-linecap:round;stroke-linejoin:round;stroke-miterlimit:10;}
</style>
<g id="Stethoscope">
	<g>
		<g>
			<circle class="st0" cx="256" cy="256" r="207"/>
		</g>
	</g>
	<g>
		<g>
			<circle class="st4" cx="366.576" cy="293.881" r="39.944"/>
		</g>
		<g>
			<circle class="st5" cx="366.576" cy="293.881" r="16.717"/>
		</g>
		<g>
			<path class="st1" d="M150.419,161.652h9.338c10.825,0,19.601-8.775,19.601-19.601v0c0-10.825-8.775-19.601-19.601-19.601h-9.338
				c-10.825,0-19.601,8.775-19.601,19.601v0C130.818,152.876,139.594,161.652,150.419,161.652z"/>
		</g>
		<g>
			<path class="st1" d="M292.22,161.652h-9.338c-10.825,0-19.601-8.775-19.601-19.601v0c0-10.825,8.776-19.601,19.601-19.601h9.338
				c10.825,0,19.601,8.775,19.601,19.601v0C311.821,152.876,303.045,161.652,292.22,161.652z"/>
		</g>
		<g>
			<path class="st2" d="M159.756,167.651h-9.338c-14.116,0-25.601-11.484-25.601-25.601s11.484-25.601,25.601-25.601h9.338
				c14.116,0,25.601,11.484,25.601,25.601S173.873,167.651,159.756,167.651z M150.418,128.45c-7.5,0-13.601,6.101-13.601,13.601
				s6.101,13.601,13.601,13.601h9.338c7.5,0,13.601-6.101,13.601-13.601s-6.101-13.601-13.601-13.601H150.418z"/>
		</g>
		<g>
			<path class="st2" d="M292.22,167.651h-9.337c-14.117,0-25.601-11.484-25.601-25.601s11.484-25.601,25.601-25.601h9.337
				c14.116,0,25.601,11.484,25.601,25.601S306.336,167.651,292.22,167.651z M282.883,128.45c-7.5,0-13.601,6.101-13.601,13.601
				s6.102,13.601,13.601,13.601h9.337c7.5,0,13.601-6.101,13.601-13.601s-6.101-13.601-13.601-13.601H282.883z"/>
		</g>
		<g>
			<path class="st2" d="M273.29,285.966h-52.36c-3.313,0-6-2.687-6-6s2.687-6,6-6h52.36c7.258,0,13.801-4.309,16.668-10.978
				l38.532-89.628c2.454-5.708,1.901-11.957-1.516-17.145s-8.94-8.164-15.152-8.164c-3.313,0-6-2.687-6-6s2.687-6,6-6
				c10.17,0,19.581,5.07,25.174,13.563s6.535,19.142,2.519,28.485l-38.532,89.628C296.219,278.807,285.349,285.966,273.29,285.966z"
				/>
		</g>
		<g>
			<path class="st2" d="M220.93,285.966h-52.749c-12.06,0-22.93-7.159-27.693-18.238l-38.531-89.628
				c-4.017-9.343-3.075-19.992,2.519-28.485c5.594-8.493,15.004-13.563,25.174-13.563c3.313,0,6,2.687,6,6s-2.687,6-6,6
				c-6.212,0-11.735,2.976-15.152,8.164c-3.417,5.188-3.97,11.438-1.516,17.145l38.531,89.628
				c2.867,6.668,9.41,10.978,16.668,10.978h52.749c3.313,0,6,2.687,6,6S224.243,285.966,220.93,285.966z"/>
		</g>
		<g>
			<path class="st2" d="M293.948,433.55c-43.356,0-78.628-35.272-78.628-78.628l-0.39-74.924c-0.017-3.314,2.655-6.014,5.969-6.031
				c0.011,0,0.021,0,0.032,0c3.299,0,5.982,2.666,6,5.969l0.39,74.956c0,36.771,29.889,66.66,66.628,66.66
				s66.628-29.889,66.628-66.628v-21.097c0-3.313,2.687-6,6-6c3.314,0,6,2.687,6,6v21.097
				C372.576,398.277,337.304,433.55,293.948,433.55z"/>
		</g>
		<g>
			<path class="st2" d="M366.576,339.825c-25.333,0-45.944-20.61-45.944-45.944c0-25.334,20.61-45.944,45.944-45.944
				s45.944,20.61,45.944,45.944C412.52,319.214,391.91,339.825,366.576,339.825z M366.576,259.937
				c-18.717,0-33.944,15.228-33.944,33.944s15.227,33.944,33.944,33.944s33.944-15.227,33.944-33.944
				S385.293,259.937,366.576,259.937z"/>
		</g>
		<g>
			<path class="st2" d="M366.576,316.598c-12.526,0-22.717-10.191-22.717-22.717c0-12.527,10.191-22.718,22.717-22.718
				s22.717,10.191,22.717,22.718C389.293,306.407,379.103,316.598,366.576,316.598z M366.576,283.163
				c-5.91,0-10.717,4.808-10.717,10.718s4.808,10.717,10.717,10.717s10.717-4.808,10.717-10.717S372.486,283.163,366.576,283.163z"
				/>
		</g>
		<g>
			<path class="st1" d="M248.638,301.855h-55.416c-12.089,0-21.89-9.8-21.89-21.89v0c0-12.089,9.8-21.89,21.89-21.89h55.416
				c12.089,0,21.89,9.8,21.89,21.89v0C270.527,292.055,260.727,301.855,248.638,301.855z"/>
		</g>
		<g>
			<path class="st2" d="M248.638,307.855h-55.416c-15.378,0-27.89-12.511-27.89-27.889c0-15.378,12.511-27.89,27.89-27.89h55.416
				c15.378,0,27.89,12.511,27.89,27.89C276.527,295.344,264.016,307.855,248.638,307.855z M193.222,264.076
				c-8.762,0-15.89,7.128-15.89,15.89c0,8.761,7.128,15.889,15.89,15.889h55.416c8.762,0,15.89-7.128,15.89-15.889
				c0-8.762-7.128-15.89-15.89-15.89H193.222z"/>
		</g>
	</g>
</g>
</svg>
