<?xml version="1.0" encoding="utf-8"?>
<!-- Generator: Adobe Illustrator 22.1.0, SVG Export Plug-In . SVG Version: 6.00 Build 0)  -->
<svg version="1.1" id="Icon_Set" xmlns="http://www.w3.org/2000/svg" xmlns:xlink="http://www.w3.org/1999/xlink" x="0px" y="0px"
	 viewBox="0 0 512 512" style="enable-background:new 0 0 512 512;" xml:space="preserve">
<style type="text/css">
	.st0{fill:#F0C48A;}
	.st1{fill:#FD919E;}
	.st2{fill:#4C4372;}
	.st3{fill:#D3E6F8;}
	.st4{fill:#A4CFF2;}
	.st5{fill:#7BABF1;}
	.st6{fill:#FFFFFF;}
	.st7{fill:#E8677D;}
	.st8{fill:none;stroke:#4C4372;stroke-width:12;stroke-linecap:round;stroke-linejoin:round;stroke-miterlimit:10;}
</style>
<g id="Bone_Fracture">
	<g>
		<g>
			<circle class="st0" cx="256" cy="256" r="207"/>
		</g>
	</g>
	<g>
		<g>
			<circle class="st1" cx="256" cy="256" r="74.763"/>
		</g>
		<g>
			<path class="st2" d="M256,336.763c-44.533,0-80.764-36.23-80.764-80.763s36.23-80.763,80.764-80.763s80.764,36.23,80.764,80.763
				S300.533,336.763,256,336.763z M256,187.237c-37.916,0-68.764,30.847-68.764,68.763s30.848,68.763,68.764,68.763
				s68.764-30.847,68.764-68.763S293.916,187.237,256,187.237z"/>
		</g>
		<g>
			<g>
				<path class="st3" d="M309.268,163.075l-68.875,68.875l15.418,15.418l14.645,2.995l15.418,15.418l63.05-63.05l26.975,0
					c15.076,0,27.298-12.222,27.298-27.298c0-15.076-12.222-27.298-27.298-27.298l-12.035,0l0-12.035
					c0-15.076-12.222-27.298-27.298-27.298c-15.077,0-27.298,12.222-27.298,27.298L309.268,163.075z"/>
			</g>
			<g>
				<path class="st3" d="M202.732,348.925l68.875-68.875l-15.418-15.418l-14.645-2.995l-15.418-15.418l-63.05,63.05l-26.975,0
					c-15.076,0-27.298,12.222-27.298,27.298c0,15.076,12.222,27.298,27.298,27.298l12.035,0l0,12.035
					c0,15.076,12.222,27.298,27.298,27.298c15.077,0,27.298-12.222,27.298-27.298L202.732,348.925z"/>
			</g>
			<g>
				<path class="st2" d="M285.875,271.782c-1.535,0-3.071-0.586-4.242-1.757l-14.145-14.144l-12.879-2.634
					c-1.152-0.236-2.209-0.804-3.04-1.636l-15.419-15.418c-1.126-1.125-1.758-2.651-1.758-4.243s0.632-3.117,1.758-4.243
					l67.117-67.118l0.001-24.489c0-18.361,14.938-33.298,33.298-33.298s33.298,14.938,33.298,33.298v6.035h6.036
					c18.36,0,33.298,14.938,33.298,33.298s-14.938,33.298-33.298,33.298h-24.49l-61.293,61.293
					C288.946,271.196,287.41,271.782,285.875,271.782z M258.779,241.852l12.879,2.634c1.152,0.236,2.209,0.804,3.04,1.636
					l11.177,11.176l58.808-58.808c1.125-1.125,2.65-1.757,4.242-1.757H375.9c11.744,0,21.298-9.554,21.298-21.298
					s-9.554-21.298-21.298-21.298h-12.036c-3.313,0-6-2.687-6-6V136.1c0-11.744-9.554-21.298-21.298-21.298
					s-21.298,9.554-21.298,21.298l-0.001,26.975c0,1.591-0.632,3.118-1.758,4.243l-64.632,64.633L258.779,241.852z M309.268,163.075
					h0.01H309.268z"/>
			</g>
			<g>
				<path class="st2" d="M175.434,409.198c-18.36,0-33.298-14.938-33.298-33.298v-6.035H136.1c-18.36,0-33.298-14.938-33.298-33.298
					s14.938-33.298,33.298-33.298h24.49l61.293-61.293c2.342-2.343,6.143-2.343,8.484,0l14.145,14.144l12.879,2.634
					c1.152,0.236,2.209,0.804,3.04,1.636l15.419,15.418c1.126,1.125,1.758,2.651,1.758,4.243s-0.632,3.117-1.758,4.243
					l-67.117,67.118l-0.001,24.489C208.731,394.261,193.794,409.198,175.434,409.198z M136.1,315.268
					c-11.744,0-21.298,9.554-21.298,21.298s9.554,21.298,21.298,21.298h12.036c3.313,0,6,2.687,6,6V375.9
					c0,11.744,9.554,21.298,21.298,21.298s21.298-9.554,21.298-21.298l0.001-26.975c0-1.591,0.632-3.118,1.758-4.243l64.632-64.633
					l-9.901-9.901l-12.879-2.634c-1.152-0.236-2.209-0.804-3.04-1.636l-11.177-11.176l-58.808,58.808
					c-1.125,1.125-2.65,1.757-4.242,1.757H136.1z"/>
			</g>
		</g>
	</g>
</g>
</svg>
