<?xml version="1.0" encoding="utf-8"?>
<!-- Generator: Adobe Illustrator 22.1.0, SVG Export Plug-In . SVG Version: 6.00 Build 0)  -->
<svg version="1.1" id="Icon_Set" xmlns="http://www.w3.org/2000/svg" xmlns:xlink="http://www.w3.org/1999/xlink" x="0px" y="0px"
	 viewBox="0 0 512 512" style="enable-background:new 0 0 512 512;" xml:space="preserve">
<style type="text/css">
	.st0{fill:#F0C48A;}
	.st1{fill:#FD919E;}
	.st2{fill:#4C4372;}
	.st3{fill:#D3E6F8;}
	.st4{fill:#A4CFF2;}
	.st5{fill:#7BABF1;}
	.st6{fill:#FFFFFF;}
	.st7{fill:#E8677D;}
	.st8{fill:none;stroke:#4C4372;stroke-width:12;stroke-linecap:round;stroke-linejoin:round;stroke-miterlimit:10;}
</style>
<g id="DNA">
	<g>
		<g>
			<circle class="st0" cx="256" cy="256" r="207"/>
		</g>
	</g>
	<g>
		<g>
			<g>
				<g>
					<path class="st3" d="M268.883,330.746l-87.628-87.628c-4.881-4.881-4.881-12.796,0-17.678c4.881-4.881,12.796-4.881,17.678,0
						l87.628,87.628c4.881,4.881,4.881,12.796,0,17.678C281.679,335.628,273.764,335.628,268.883,330.746z"/>
				</g>
			</g>
			<g>
				<g>
					<path class="st3" d="M313.068,286.56l-87.627-87.627c-4.881-4.881-4.881-12.796,0-17.678c4.881-4.881,12.796-4.881,17.678,0
						l87.627,87.627c4.882,4.882,4.881,12.796,0,17.678C325.864,291.441,317.95,291.442,313.068,286.56z"/>
				</g>
			</g>
		</g>
		<g>
			<g>
				<g>
					<g>
						<path class="st6" d="M195.428,402.144l-85.572-85.572c-4.882-4.882-4.881-12.796,0-17.678c4.881-4.881,12.796-4.882,17.678,0
							l85.572,85.572c4.882,4.882,4.881,12.796,0,17.678C208.225,407.025,200.31,407.026,195.428,402.144z"/>
					</g>
				</g>
			</g>
			<g>
				<g>
					<g>
						<path class="st6" d="M384.466,213.106l-85.572-85.572c-4.882-4.882-4.881-12.796,0-17.678c4.881-4.881,12.796-4.882,17.678,0
							l85.572,85.572c4.882,4.882,4.881,12.796,0,17.678C397.263,217.987,389.348,217.988,384.466,213.106z"/>
					</g>
				</g>
			</g>
		</g>
		<g>
			<g>
				<g>
					<path class="st2" d="M277.722,340.407c-4.942,0-9.587-1.924-13.082-5.419l-87.627-87.627c-3.494-3.494-5.418-8.14-5.418-13.081
						c0-4.942,1.924-9.588,5.418-13.082s8.14-5.418,13.082-5.418c4.941,0,9.587,1.924,13.082,5.419l87.627,87.627
						c3.494,3.494,5.418,8.14,5.418,13.081c0,4.942-1.924,9.588-5.419,13.082C287.309,338.483,282.664,340.407,277.722,340.407z
						 M190.094,227.78c-1.736,0-3.369,0.676-4.596,1.903s-1.904,2.86-1.904,4.597s0.676,3.368,1.904,4.597l87.627,87.627l0,0
						c1.228,1.228,2.86,1.903,4.596,1.903s3.369-0.676,4.596-1.903s1.904-2.86,1.904-4.597s-0.676-3.368-1.904-4.597l-87.627-87.627
						C193.462,228.456,191.83,227.78,190.094,227.78z"/>
				</g>
			</g>
			<g>
				<g>
					<path class="st2" d="M321.907,296.221c-4.942,0-9.587-1.924-13.082-5.419l-87.627-87.627
						c-3.494-3.493-5.418-8.139-5.418-13.081c0-4.941,1.924-9.587,5.418-13.081c7.214-7.212,18.951-7.211,26.163-0.001
						l87.627,87.628c3.494,3.494,5.419,8.14,5.419,13.081c0,4.942-1.925,9.588-5.419,13.082
						C331.494,294.297,326.849,296.221,321.907,296.221z M234.28,183.597c-1.665,0-3.329,0.634-4.597,1.901
						c-1.227,1.228-1.903,2.859-1.903,4.596s0.676,3.369,1.903,4.596l87.628,87.628l0,0c1.228,1.228,2.86,1.903,4.596,1.903
						c1.736,0,3.368-0.676,4.596-1.903c1.228-1.229,1.904-2.86,1.904-4.597s-0.676-3.368-1.904-4.597l-87.627-87.627
						C237.609,184.23,235.944,183.597,234.28,183.597z"/>
				</g>
			</g>
		</g>
		<g>
			<g>
				<g>
					<g>
						<path class="st2" d="M204.267,411.805c-4.941,0-9.587-1.924-13.082-5.419l-85.572-85.572c-7.213-7.212-7.213-18.949,0-26.162
							c7.214-7.212,18.95-7.212,26.163,0l85.572,85.572c3.494,3.494,5.418,8.14,5.418,13.081c0,4.942-1.924,9.588-5.418,13.082
							S209.209,411.805,204.267,411.805z M118.695,301.235c-1.665,0-3.329,0.634-4.596,1.901c-2.534,2.534-2.534,6.657,0,9.192
							l85.572,85.572c1.228,1.228,2.86,1.903,4.596,1.903c1.736,0,3.369-0.676,4.596-1.903c1.228-1.229,1.904-2.86,1.904-4.597
							s-0.676-3.368-1.904-4.597l-85.572-85.572C122.024,301.869,120.359,301.235,118.695,301.235z"/>
					</g>
				</g>
			</g>
			<g>
				<g>
					<g>
						<path class="st2" d="M393.305,222.759c-4.737,0-9.475-1.804-13.081-5.41l-85.572-85.572c-3.494-3.494-5.418-8.14-5.418-13.081
							c0-4.942,1.924-9.588,5.418-13.082s8.14-5.418,13.082-5.418c4.941,0,9.587,1.924,13.082,5.419l85.572,85.572
							c7.213,7.212,7.213,18.949,0,26.162C402.78,220.955,398.042,222.759,393.305,222.759z M307.733,112.195
							c-1.736,0-3.369,0.676-4.596,1.903c-1.228,1.229-1.904,2.86-1.904,4.597s0.676,3.368,1.904,4.597l85.572,85.572
							c2.534,2.533,6.658,2.534,9.192-0.001c2.534-2.534,2.534-6.657,0-9.192l-85.572-85.572
							C311.101,112.871,309.469,112.195,307.733,112.195z"/>
					</g>
				</g>
			</g>
		</g>
		<g>
			<g>
				<path class="st1" d="M205.822,306.178c-21.173-21.173-15.888-60.908,11.78-88.577s67.404-32.953,88.577-11.78
					c15.356,15.356,36.985,22.353,60.904,19.701c22.879-2.536,45.263-13.716,63.027-31.48c4.881-4.881,4.881-12.796,0-17.678
					c-4.881-4.881-12.796-4.881-17.678,0c-27.668,27.668-67.403,32.952-88.576,11.779c-15.356-15.356-36.985-22.353-60.904-19.701
					c-22.88,2.537-45.264,13.717-63.028,31.481s-28.944,40.148-31.481,63.028c-2.652,23.918,4.345,45.548,19.701,60.904
					c21.173,21.173,15.889,60.908-11.779,88.576c-4.881,4.881-4.881,12.796,0,17.678c4.881,4.881,12.796,4.881,17.678,0
					c17.764-17.764,28.944-40.148,31.48-63.027C228.175,343.164,221.178,321.534,205.822,306.178z"/>
			</g>
		</g>
		<g>
			<g>
				<path class="st2" d="M185.204,439.771c-4.942,0-9.587-1.924-13.082-5.419c-3.494-3.493-5.418-8.139-5.418-13.081
					c0-4.941,1.924-9.587,5.418-13.081c12.455-12.455,20.445-27.822,22.5-43.272c1.976-14.854-1.832-27.93-10.721-36.818
					c-16.671-16.671-24.278-40.042-21.422-65.808c2.687-24.229,14.478-47.885,33.202-66.609
					c18.723-18.724,42.379-30.515,66.609-33.202c25.764-2.854,49.137,4.751,65.808,21.421c8.889,8.89,21.966,12.699,36.818,10.722
					c15.45-2.055,30.817-10.045,43.272-22.5c7.213-7.213,18.949-7.212,26.163-0.001c3.494,3.495,5.418,8.141,5.418,13.082
					c0,4.942-1.924,9.588-5.418,13.082c-18.723,18.724-42.379,30.515-66.609,33.201c-25.766,2.857-49.136-4.751-65.808-21.423
					c-18.833-18.83-54.762-13.549-80.091,11.78c-25.329,25.33-30.614,61.259-11.78,80.093c16.671,16.67,24.279,40.041,21.421,65.807
					c-2.686,24.229-14.477,47.885-33.201,66.609C194.791,437.847,190.145,439.771,185.204,439.771z M272.734,173.896
					c-2.992,0-6.034,0.169-9.121,0.512c-21.531,2.387-42.643,12.956-59.446,29.759c-16.804,16.805-27.373,37.917-29.761,59.447
					c-2.447,22.07,3.939,41.958,17.98,56.001c23.512,23.512,18.228,67.053-11.779,97.06c-1.228,1.229-1.904,2.86-1.904,4.597
					s0.676,3.368,1.903,4.596c1.228,1.229,2.86,1.904,4.597,1.904c1.736,0,3.368-0.676,4.596-1.903
					c16.804-16.805,27.373-37.916,29.76-59.446c2.447-22.07-3.938-41.958-17.98-55.999c0-0.001,0-0.001,0-0.001
					c-23.512-23.512-18.228-67.054,11.78-97.062c14.308-14.309,32.127-23.511,50.175-25.911c18.645-2.478,35.294,2.54,46.886,14.131
					c14.042,14.041,33.926,20.426,56,17.979c21.531-2.387,42.643-12.955,59.446-29.759c1.228-1.228,1.904-2.86,1.904-4.597
					s-0.676-3.368-1.904-4.597c-2.534-2.533-6.658-2.534-9.192,0.001c-14.308,14.308-32.127,23.51-50.175,25.91
					c-18.643,2.481-35.294-2.539-46.886-14.132C307.536,180.309,291.13,173.896,272.734,173.896z"/>
			</g>
		</g>
		<g>
			<g>
				<path class="st5" d="M343.557,249.048c2.652-23.918-4.345-45.548-19.701-60.904c-21.173-21.173-15.889-60.908,11.779-88.576
					c4.881-4.881,4.881-12.796,0-17.678c-4.881-4.881-12.796-4.881-17.678,0c-17.764,17.764-28.944,40.148-31.48,63.027
					c-2.652,23.918,4.345,45.548,19.701,60.904c21.173,21.173,15.888,60.908-11.78,88.577
					c-27.668,27.668-67.404,32.953-88.577,11.78c-15.356-15.356-36.985-22.353-60.904-19.701
					c-22.879,2.536-45.263,13.716-63.027,31.48c-4.881,4.881-4.881,12.796,0,17.678c4.881,4.881,12.796,4.881,17.678,0
					c27.668-27.668,67.403-32.952,88.576-11.779c15.356,15.356,36.985,22.353,60.904,19.701
					c22.88-2.537,45.264-13.717,63.028-31.481C329.84,294.312,341.02,271.928,343.557,249.048z"/>
			</g>
		</g>
		<g>
			<g>
				<path class="st2" d="M239.206,350.108c-21.577,0-40.93-7.635-55.305-22.009c-8.889-8.89-21.965-12.697-36.818-10.722
					c-15.45,2.055-30.817,10.045-43.272,22.5c-7.213,7.213-18.949,7.212-26.163,0.001c-3.494-3.495-5.418-8.141-5.418-13.082
					c0-4.942,1.924-9.588,5.418-13.082c18.723-18.724,42.379-30.515,66.609-33.201c25.764-2.856,49.136,4.751,65.808,21.423
					c18.833,18.831,54.762,13.549,80.091-11.78c25.329-25.33,30.614-61.259,11.78-80.093c-16.671-16.67-24.279-40.041-21.421-65.807
					c2.686-24.229,14.477-47.885,33.201-66.609c3.494-3.494,8.14-5.418,13.081-5.418c4.942,0,9.587,1.924,13.082,5.419
					c3.494,3.493,5.418,8.139,5.418,13.081c0,4.941-1.924,9.587-5.418,13.081c-12.455,12.455-20.445,27.822-22.5,43.272
					c-1.976,14.854,1.832,27.93,10.721,36.818c16.671,16.671,24.278,40.042,21.422,65.808l0,0
					c-2.687,24.229-14.478,47.885-33.202,66.609c-18.723,18.724-42.379,30.515-66.609,33.202
					C246.16,349.914,242.653,350.108,239.206,350.108z M154.663,304.863c14.904,0,28.068,5.095,37.724,14.751
					c14.042,14.041,33.929,20.426,56,17.979c21.531-2.387,42.643-12.956,59.446-29.759c16.804-16.805,27.373-37.917,29.761-59.447
					c2.447-22.07-3.939-41.958-17.98-56.001c-23.512-23.512-18.228-67.053,11.779-97.06c1.228-1.229,1.904-2.86,1.904-4.597
					s-0.676-3.368-1.903-4.596c-1.228-1.229-2.86-1.904-4.597-1.904c-1.736,0-3.368,0.676-4.596,1.903
					c-16.804,16.805-27.373,37.916-29.76,59.446c-2.447,22.07,3.938,41.958,17.98,55.999c23.512,23.513,18.228,67.055-11.78,97.062
					c-14.308,14.309-32.127,23.511-50.175,25.911c-18.643,2.479-35.294-2.539-46.886-14.131c-14.042-14.041-33.929-20.431-56-17.979
					c-21.531,2.387-42.643,12.955-59.446,29.759c-1.228,1.228-1.904,2.86-1.904,4.597s0.676,3.368,1.904,4.597
					c2.534,2.533,6.658,2.534,9.192-0.001c14.308-14.308,32.127-23.51,50.175-25.91
					C148.614,305.068,151.675,304.863,154.663,304.863z M343.557,249.048h0.01H343.557z"/>
			</g>
		</g>
	</g>
</g>
</svg>
