<?xml version="1.0" encoding="utf-8"?>
<!-- Generator: Adobe Illustrator 22.1.0, SVG Export Plug-In . SVG Version: 6.00 Build 0)  -->
<svg version="1.1" id="Icon_Set" xmlns="http://www.w3.org/2000/svg" xmlns:xlink="http://www.w3.org/1999/xlink" x="0px" y="0px"
	 viewBox="0 0 512 512" style="enable-background:new 0 0 512 512;" xml:space="preserve">
<style type="text/css">
	.st0{fill:#F0C48A;}
	.st1{fill:#FD919E;}
	.st2{fill:#4C4372;}
	.st3{fill:#D3E6F8;}
	.st4{fill:#A4CFF2;}
	.st5{fill:#7BABF1;}
	.st6{fill:#FFFFFF;}
	.st7{fill:#E8677D;}
	.st8{fill:none;stroke:#4C4372;stroke-width:12;stroke-linecap:round;stroke-linejoin:round;stroke-miterlimit:10;}
</style>
<g id="Spleen">
	<g>
		<g>
			<circle class="st0" cx="256" cy="256" r="207"/>
		</g>
	</g>
	<g>
		<g>
			<g>
				<path class="st1" d="M375.76,367.913c16.215-13.947,26.615-34.498,26.972-57.568c0.708-45.599-14.323-90.537-42.32-126.535
					c-27.997-35.998-67.853-61.63-112.222-72.17l-12.646-3.004c-41.643-9.894-83.417,15.84-93.307,57.485
					c-9.892,41.64,15.844,83.416,57.485,93.308l12.646,3.004c21.177,5.03,35.731,23.746,35.394,45.511
					c-0.664,42.793,33.491,78.023,76.282,78.686C343.77,386.934,361.894,379.84,375.76,367.913z"/>
			</g>
		</g>
		<g>
			<path class="st7" d="M360.412,183.809c-27.997-35.997-67.852-61.63-112.221-72.168l-12.647-3.005
				c-21.639-5.141-43.301-0.645-60.519,10.687c9.422-1.374,19.252-1.046,29.08,1.289l12.646,3.004
				c44.369,10.54,84.225,36.172,112.222,72.17c27.997,35.999,43.028,80.937,42.32,126.535c-0.357,23.07-10.757,43.621-26.972,57.569
				c-2.484,2.136-5.11,4.111-7.853,5.923c14.865-2.159,28.396-8.527,39.292-17.899c16.215-13.947,26.615-34.499,26.971-57.569
				C403.44,264.747,388.409,219.808,360.412,183.809z"/>
		</g>
		<g>
			<g>
				<path class="st2" d="M325.252,392.639c-0.434,0-0.867-0.004-1.301-0.011c-22.299-0.346-43.128-9.354-58.652-25.367
					c-15.523-16.013-23.882-37.112-23.537-59.411c0.293-18.93-12.365-35.206-30.781-39.58l-12.646-3.004
					c-21.699-5.154-40.091-18.451-51.789-37.439c-11.698-18.987-15.302-41.395-10.146-63.093
					c5.153-21.7,18.449-40.093,37.437-51.791c18.987-11.697,41.395-15.299,63.094-10.145l12.646,3.004
					c45.692,10.854,86.736,37.249,115.571,74.324c28.834,37.074,44.312,83.354,43.583,130.312
					c-0.369,23.851-10.961,46.458-29.058,62.024c-0.001,0-0.001,0-0.001,0C364.514,385.5,345.233,392.639,325.252,392.639z
					 M217.495,112.51c-13.083,0-25.946,3.615-37.365,10.649c-16.259,10.017-27.643,25.766-32.056,44.348
					c-4.414,18.58-1.329,37.767,8.688,54.025c10.017,16.26,25.766,27.645,44.346,32.058l12.646,3.004
					c23.936,5.687,40.387,26.84,40.006,51.441c-0.296,19.095,6.861,37.161,20.154,50.873c13.293,13.711,31.129,21.426,50.222,21.722
					c17.52,0.281,34.451-5.861,47.712-17.266c15.498-13.331,24.568-32.689,24.885-53.112c0.687-44.236-13.895-87.833-41.058-122.759
					s-65.828-59.792-108.872-70.016l-12.646-3.004C228.626,113.159,223.041,112.51,217.495,112.51z M375.761,367.913h0.01H375.761z"
					/>
			</g>
		</g>
		<g>
			<path class="st7" d="M303.824,249.385c6.08,6.079,6.08,15.935,0,22.016l-9.354,9.354h21.493c8.597,0,15.568,6.97,15.568,15.568
				c0,8.597-6.97,15.568-15.568,15.568h-52.628l-89.031,89.032c-6.08,6.079-15.936,6.079-22.016,0
				c-3.041-3.04-4.56-7.024-4.56-11.008c0-3.984,1.52-7.969,4.56-11.008l129.52-129.521
				C287.888,243.305,297.745,243.305,303.824,249.385z"/>
		</g>
		<g>
			<path class="st5" d="M265.34,208.255c-6.079-6.08-15.935-6.08-22.016,0l-9.354,9.354v-21.493c0-8.597-6.97-15.568-15.568-15.568
				s-15.568,6.97-15.568,15.568v52.628l-89.032,89.031c-6.079,6.08-6.079,15.936,0,22.016c3.04,3.041,7.024,4.56,11.008,4.56
				c3.984,0,7.969-1.52,11.008-4.56l129.521-129.52C271.42,224.191,271.42,214.334,265.34,208.255z"/>
		</g>
		<g>
			<path class="st2" d="M124.812,370.35c-5.763,0-11.179-2.243-15.251-6.317c-8.408-8.408-8.408-22.091,0-30.5l87.275-87.273
				v-50.144c0-11.893,9.675-21.567,21.568-21.567c11.892,0,21.567,9.675,21.567,21.567v7.057c3.958-3.541,9.012-5.477,14.363-5.477
				c5.761,0,11.177,2.243,15.25,6.317c8.408,8.408,8.408,22.091,0,30.5L140.062,364.033
				C135.989,368.106,130.573,370.35,124.812,370.35z M218.403,186.548c-5.276,0-9.568,4.292-9.568,9.567v52.629
				c0,1.592-0.632,3.117-1.757,4.243l-89.032,89.03c-3.73,3.729-3.73,9.8,0,13.53c1.807,1.807,4.209,2.802,6.766,2.802
				c2.556,0,4.958-0.995,6.765-2.802l129.522-129.52c3.729-3.73,3.729-9.801,0-13.531c-0.001,0-0.001,0-0.001,0
				c-1.807-1.807-4.209-2.802-6.764-2.802c-2.556,0-4.959,0.995-6.767,2.803l-9.354,9.354c-1.716,1.715-4.297,2.228-6.539,1.3
				c-2.242-0.929-3.704-3.116-3.704-5.543v-21.493C227.97,190.84,223.678,186.548,218.403,186.548z"/>
		</g>
		<g>
			<path class="st2" d="M163.296,411.471c-5.523,0-11.045-2.102-15.25-6.306c-4.074-4.073-6.317-9.489-6.317-15.251
				s2.244-11.178,6.317-15.251l129.52-129.521c8.409-8.411,22.093-8.409,30.5,0v-0.001c4.074,4.073,6.317,9.489,6.317,15.25
				c0,5.352-1.936,10.406-5.477,14.363h7.057c11.893,0,21.567,9.675,21.567,21.567s-9.675,21.567-21.567,21.567H265.82
				l-87.273,87.274C174.343,409.368,168.819,411.471,163.296,411.471z M292.816,250.83c-2.45,0-4.9,0.933-6.766,2.797
				l-129.52,129.521c-1.807,1.808-2.802,4.21-2.802,6.766s0.995,4.958,2.802,6.765c3.731,3.73,9.802,3.731,13.532,0l89.029-89.031
				c1.126-1.126,2.651-1.758,4.243-1.758h52.629c5.275,0,9.567-4.292,9.567-9.567s-4.292-9.567-9.567-9.567h-21.493
				c-2.427,0-4.614-1.462-5.543-3.704c-0.929-2.241-0.416-4.822,1.3-6.538l9.354-9.354c1.808-1.808,2.803-4.211,2.803-6.767
				c0-2.555-0.995-4.957-2.802-6.764c0,0,0,0,0-0.001C297.717,251.763,295.267,250.83,292.816,250.83z"/>
		</g>
	</g>
</g>
</svg>
