<?xml version="1.0" encoding="utf-8"?>
<!-- Generator: Adobe Illustrator 22.1.0, SVG Export Plug-In . SVG Version: 6.00 Build 0)  -->
<svg version="1.1" id="Icon_Set" xmlns="http://www.w3.org/2000/svg" xmlns:xlink="http://www.w3.org/1999/xlink" x="0px" y="0px"
	 viewBox="0 0 512 512" style="enable-background:new 0 0 512 512;" xml:space="preserve">
<style type="text/css">
	.st0{fill:#F0C48A;}
	.st1{fill:#FD919E;}
	.st2{fill:#4C4372;}
	.st3{fill:#D3E6F8;}
	.st4{fill:#A4CFF2;}
	.st5{fill:#7BABF1;}
	.st6{fill:#FFFFFF;}
	.st7{fill:#E8677D;}
	.st8{fill:none;stroke:#4C4372;stroke-width:12;stroke-linecap:round;stroke-linejoin:round;stroke-miterlimit:10;}
</style>
<g id="Injection">
	<g>
		<g>
			<circle class="st0" cx="256" cy="256" r="207"/>
		</g>
	</g>
	<g>
		<g>
			<path class="st3" d="M195.156,352.859l-46.015-46.015c-4.952-4.952-4.952-12.981,0-17.933l128.155-128.155l63.948,63.948
				L213.089,352.859C208.137,357.811,200.108,357.811,195.156,352.859z"/>
		</g>
		<g>
			<path class="st4" d="M183.583,341.286l11.573,11.573c4.952,4.952,12.981,4.952,17.933,0l128.155-128.155l-20.54-20.54
				L183.583,341.286z"/>
		</g>
		<g>
			<path class="st1" d="M240.297,197.755l-91.155,91.155c-4.952,4.952-4.952,12.981,0,17.933l46.015,46.015
				c4.952,4.952,12.981,4.952,17.933,0l91.155-91.155L240.297,197.755z"/>
		</g>
		<g>
			<path class="st7" d="M183.583,341.286l11.573,11.573c4.952,4.952,12.981,4.952,17.933,0l91.155-91.155l-20.54-20.54
				L183.583,341.286z"/>
		</g>
		<g>
			<path class="st5" d="M147.603,354.397L147.603,354.397c-11.301-11.301-11.301-29.623,0-40.924l4.083-4.083l40.924,40.924
				l-4.083,4.083C177.227,365.698,158.904,365.698,147.603,354.397z"/>
		</g>
		<g>
			
				<rect x="312.795" y="145.181" transform="matrix(0.7071 0.7071 -0.7071 0.7071 218.7056 -181.9332)" class="st4" width="32.341" height="55.708"/>
		</g>
		<g>
			<path class="st3" d="M369.298,173.976l-41.275-41.275c-6.261-6.261-6.261-16.412,0-22.673l0,0c6.261-6.261,16.412-6.261,22.673,0
				l41.275,41.275c6.261,6.261,6.261,16.412,0,22.673v0C385.711,180.237,375.56,180.237,369.298,173.976z"/>
		</g>
		<g>
			<path class="st2" d="M204.123,362.573c-4.99,0-9.681-1.943-13.209-5.472l-46.015-46.015c-3.528-3.528-5.472-8.219-5.472-13.209
				c0-4.99,1.943-9.681,5.472-13.209l128.155-128.155c1.125-1.125,2.651-1.757,4.243-1.757s3.118,0.632,4.243,1.757l63.948,63.948
				c1.125,1.125,1.757,2.651,1.757,4.243s-0.632,3.118-1.757,4.243L217.332,357.102C213.804,360.63,209.113,362.573,204.123,362.573
				z M277.296,169.241L153.384,293.154c-1.262,1.262-1.957,2.939-1.957,4.724c0,1.784,0.695,3.462,1.957,4.724l46.015,46.015
				c1.262,1.262,2.939,1.957,4.724,1.957c1.785,0,3.462-0.695,4.724-1.957l123.913-123.913L277.296,169.241z"/>
		</g>
		<g>
			<path class="st2" d="M168.065,368.873c-9.332,0-18.106-3.634-24.705-10.233l0,0l0,0c-6.599-6.599-10.233-15.373-10.233-24.705
				s3.634-18.106,10.233-24.705l4.083-4.083c1.125-1.125,2.651-1.758,4.243-1.758s3.117,0.632,4.243,1.757l40.924,40.924
				c1.125,1.125,1.757,2.651,1.757,4.243s-0.632,3.118-1.758,4.243l-4.083,4.083C186.171,365.238,177.397,368.873,168.065,368.873z
				 M151.688,317.875c-4.232,4.314-6.56,10.007-6.56,16.059c0,6.127,2.386,11.887,6.719,16.219l0,0
				c4.333,4.333,10.092,6.719,16.219,6.719c6.052,0,11.746-2.328,16.059-6.56L151.688,317.875z"/>
		</g>
		<g>
			<path class="st2" d="M320.704,210.165c-1.591,0-3.117-0.632-4.243-1.757l-22.869-22.869c-1.125-1.125-1.757-2.651-1.757-4.243
				s0.632-3.118,1.757-4.243l39.392-39.391c2.343-2.343,6.142-2.343,8.485,0l22.868,22.868c2.343,2.343,2.343,6.142,0,8.485
				l-39.391,39.392C323.822,209.532,322.295,210.165,320.704,210.165z M306.321,181.296l14.383,14.383l30.906-30.906l-14.383-14.383
				L306.321,181.296z"/>
		</g>
		<g>
			<path class="st2" d="M116.107,391.893c-1.536,0-3.071-0.586-4.243-1.757c-2.343-2.343-2.343-6.142,0-8.485l31.497-31.497
				c2.343-2.343,6.143-2.343,8.485,0c2.343,2.343,2.343,6.142,0,8.485l-31.497,31.497
				C119.178,391.307,117.643,391.893,116.107,391.893z"/>
		</g>
		<g>
			<g>
				<path class="st2" d="M319.973,251.975c-1.536,0-3.071-0.586-4.243-1.757l-14.71-14.71c-2.343-2.343-2.343-6.142,0-8.485
					c2.343-2.343,6.143-2.343,8.485,0l14.71,14.71c2.343,2.343,2.343,6.142,0,8.485
					C323.044,251.389,321.508,251.975,319.973,251.975z"/>
			</g>
			<g>
				<path class="st2" d="M288.446,283.501c-1.536,0-3.071-0.586-4.243-1.757l-14.71-14.71c-2.343-2.343-2.343-6.142,0-8.485
					s6.142-2.342,8.485,0l14.71,14.71c2.343,2.343,2.343,6.142,0,8.485C291.518,282.916,289.981,283.501,288.446,283.501z"/>
			</g>
			<g>
				<path class="st2" d="M256.92,315.028c-1.536,0-3.071-0.586-4.243-1.757l-14.71-14.71c-2.343-2.343-2.343-6.142,0-8.485
					c2.343-2.343,6.142-2.343,8.485,0l14.71,14.71c2.343,2.343,2.343,6.142,0,8.485C259.991,314.442,258.455,315.028,256.92,315.028
					z"/>
			</g>
			<g>
				<path class="st2" d="M225.394,346.554c-1.536,0-3.071-0.586-4.243-1.757l-14.71-14.71c-2.343-2.343-2.343-6.142,0-8.485
					c2.343-2.343,6.143-2.343,8.485,0l14.71,14.71c2.343,2.343,2.343,6.142,0,8.485C228.465,345.968,226.93,346.554,225.394,346.554
					z"/>
			</g>
		</g>
		<g>
			<path class="st2" d="M204.123,362.573c-4.99,0-9.681-1.943-13.209-5.471l-46.015-46.015c-3.528-3.528-5.471-8.219-5.471-13.209
				s1.943-9.681,5.472-13.209l91.155-91.156c1.125-1.125,2.651-1.757,4.243-1.757s3.117,0.632,4.243,1.757l63.948,63.948
				c1.125,1.125,1.757,2.651,1.757,4.243s-0.632,3.118-1.757,4.243l-91.156,91.155C213.804,360.63,209.112,362.573,204.123,362.573z
				 M240.296,206.241l-86.913,86.913c-1.262,1.262-1.957,2.939-1.957,4.724c0,1.784,0.695,3.462,1.957,4.724l46.015,46.015
				c1.262,1.262,2.939,1.957,4.724,1.957c1.785,0,3.462-0.695,4.724-1.957l86.913-86.913L240.296,206.241z"/>
		</g>
		<g>
			<path class="st4" d="M391.972,151.303l-9.203-9.203l-22.673,22.673l9.203,9.203c6.261,6.261,16.412,6.261,22.673,0l0,0
				C398.233,167.715,398.233,157.564,391.972,151.303z"/>
		</g>
		<g>
			<path class="st2" d="M380.635,184.672c-5.885,0-11.418-2.292-15.58-6.453l-41.274-41.274c-4.162-4.162-6.453-9.694-6.453-15.58
				s2.292-11.418,6.453-15.579c8.591-8.591,22.568-8.59,31.159,0l41.274,41.275c4.162,4.162,6.453,9.694,6.453,15.58
				c0,5.885-2.292,11.417-6.453,15.579C392.053,182.38,386.521,184.672,380.635,184.672z M339.361,111.337
				c-2.57,0-5.138,0.978-7.094,2.934c-3.912,3.912-3.912,10.277,0,14.188l41.274,41.274c1.895,1.895,4.415,2.938,7.094,2.938
				s5.199-1.043,7.094-2.938c3.912-3.912,3.912-10.276,0-14.188l-41.274-41.275C344.499,112.315,341.93,111.337,339.361,111.337z"/>
		</g>
	</g>
</g>
</svg>
