<?xml version="1.0" encoding="utf-8"?>
<!-- Generator: Adobe Illustrator 22.1.0, SVG Export Plug-In . SVG Version: 6.00 Build 0)  -->
<svg version="1.1" id="Icon_Set" xmlns="http://www.w3.org/2000/svg" xmlns:xlink="http://www.w3.org/1999/xlink" x="0px" y="0px"
	 viewBox="0 0 512 512" style="enable-background:new 0 0 512 512;" xml:space="preserve">
<style type="text/css">
	.st0{fill:#F0C48A;}
	.st1{fill:#FD919E;}
	.st2{fill:#4C4372;}
	.st3{fill:#D3E6F8;}
	.st4{fill:#A4CFF2;}
	.st5{fill:#7BABF1;}
	.st6{fill:#FFFFFF;}
	.st7{fill:#E8677D;}
	.st8{fill:none;stroke:#4C4372;stroke-width:12;stroke-linecap:round;stroke-linejoin:round;stroke-miterlimit:10;}
</style>
<g id="Surgery">
	<g>
		<g>
			<circle class="st0" cx="256" cy="256" r="207"/>
		</g>
	</g>
	<g>
		<g>
			<g>
				<path class="st1" d="M386.661,415.229L386.661,415.229c8.905,0,16.123-7.219,16.123-16.123v-59.124h-32.246v59.124
					C370.538,408.01,377.757,415.229,386.661,415.229z"/>
			</g>
			<g>
				<path class="st6" d="M370.538,339.982h32.246v-94.938h0c-17.809,0-32.246,14.437-32.246,32.246V339.982z"/>
			</g>
			<g>
				<path class="st2" d="M386.661,421.229c-12.198,0-22.123-9.925-22.123-22.123v-59.124c0-3.313,2.687-6,6-6h32.246
					c3.313,0,6,2.687,6,6v59.124C408.784,411.304,398.859,421.229,386.661,421.229z M376.538,345.981v53.124
					c0,5.582,4.541,10.123,10.123,10.123s10.123-4.541,10.123-10.123v-53.124H376.538z"/>
			</g>
			<g>
				<path class="st2" d="M402.784,345.981h-32.246c-3.313,0-6-2.687-6-6v-62.692c0-21.089,17.157-38.246,38.246-38.246
					c3.313,0,6,2.687,6,6v94.938C408.784,343.295,406.098,345.981,402.784,345.981z M376.538,333.981h20.246v-82.247
					c-11.591,2.721-20.246,13.146-20.246,25.555V333.981z"/>
			</g>
			<g>
				<path class="st2" d="M402.784,369.118h-32.246c-3.313,0-6-2.687-6-6s2.687-6,6-6h32.246c3.313,0,6,2.687,6,6
					S406.098,369.118,402.784,369.118z"/>
			</g>
			<g>
				<path class="st2" d="M402.784,392.62h-32.246c-3.313,0-6-2.687-6-6s2.687-6,6-6h32.246c3.313,0,6,2.687,6,6
					S406.098,392.62,402.784,392.62z"/>
			</g>
		</g>
		<g>
			<g>
				<path class="st4" d="M346.264,415.229H109.216v-78.656c0-22.188,17.987-40.175,40.175-40.175H306.09
					c22.188,0,40.175,17.987,40.175,40.175V415.229z"/>
			</g>
			<g>
				<path class="st5" d="M296.751,218.507v-52.79c0-38.078-30.868-68.946-68.946-68.946h0c-38.078,0-68.946,30.868-68.946,68.946
					v52.79h21.53h96.413H296.751z"/>
			</g>
			<g>
				<path class="st2" d="M296.751,224.507H158.859c-3.313,0-6-2.687-6-6v-52.79c0-41.325,33.62-74.945,74.945-74.945
					s74.946,33.62,74.946,74.945v52.79C302.751,221.82,300.064,224.507,296.751,224.507z M164.859,212.507h125.892v-46.79
					c0-34.708-28.237-62.945-62.946-62.945c-34.708,0-62.945,28.237-62.945,62.945V212.507z"/>
			</g>
			<g>
				<path class="st3" d="M288.819,237.306H166.662c-11.687,0-21.161-9.474-21.161-21.161v0c0-11.687,9.474-21.161,21.161-21.161
					h122.157c11.687,0,21.161,9.474,21.161,21.161v0C309.98,227.832,300.506,237.306,288.819,237.306z"/>
			</g>
			<g>
				<path class="st2" d="M288.818,243.307H166.662c-14.978,0-27.162-12.185-27.162-27.161s12.185-27.161,27.162-27.161h122.156
					c14.977,0,27.161,12.185,27.161,27.161S303.795,243.307,288.818,243.307z M166.662,200.984c-8.36,0-15.162,6.801-15.162,15.161
					s6.802,15.161,15.162,15.161h122.156c8.36,0,15.161-6.801,15.161-15.161s-6.801-15.161-15.161-15.161H166.662z"/>
			</g>
			<g>
				<path class="st5" d="M306.09,296.399h-24.38c22.188,0,40.175,17.987,40.175,40.175v78.656h24.38v-78.656
					C346.265,314.385,328.278,296.399,306.09,296.399z"/>
			</g>
			<g>
				<path class="st2" d="M346.265,421.229H109.216c-3.313,0-6-2.687-6-6v-78.655c0-25.461,20.714-46.175,46.175-46.175H306.09
					c25.461,0,46.175,20.714,46.175,46.175v78.655C352.265,418.542,349.578,421.229,346.265,421.229z M115.216,409.229h225.049
					v-72.655c0-18.844-15.331-34.175-34.175-34.175H149.391c-18.844,0-34.175,15.331-34.175,34.175V409.229z"/>
			</g>
			<g>
				<g>
					<path class="st2" d="M157.352,421.229c-3.313,0-6-2.687-6-6v-40.304c0-3.313,2.687-6,6-6s6,2.687,6,6v40.304
						C163.352,418.542,160.665,421.229,157.352,421.229z"/>
				</g>
				<g>
					<path class="st2" d="M298.128,421.229c-3.313,0-6-2.687-6-6v-40.304c0-3.313,2.687-6,6-6s6,2.687,6,6v40.304
						C304.128,418.542,301.441,421.229,298.128,421.229z"/>
				</g>
			</g>
			<g>
				<path class="st3" d="M227.718,335.094L227.718,335.094c-14.579,0-26.398-11.819-26.398-26.398v-47.042h52.796v47.042
					C254.116,323.275,242.297,335.094,227.718,335.094z"/>
			</g>
			<g>
				<path class="st2" d="M227.718,341.094c-17.864,0-32.397-14.533-32.397-32.397v-47.042c0-3.313,2.687-6,6-6h52.796
					c3.313,0,6,2.687,6,6v47.042C260.116,326.561,245.582,341.094,227.718,341.094z M207.32,267.654v41.042
					c0,11.247,9.15,20.397,20.397,20.397c11.248,0,20.398-9.15,20.398-20.397v-41.042H207.32z"/>
			</g>
			<g>
				<path class="st6" d="M251.799,157.277c-21.977,24.001-64.104,33.353-82.601,36.414c-0.456,2.962-0.694,5.995-0.694,9.085v27.555
					c0,32.715,26.521,59.236,59.236,59.236h0c32.715,0,59.236-26.521,59.236-59.236v-27.555c0-2.847-0.213-5.643-0.601-8.382
					C281.136,191.72,259.891,179.719,251.799,157.277z"/>
			</g>
			<g>
				<g>
					<path class="st2" d="M201.149,222.554c-3.313,0-6-2.687-6-6v-11.489c0-3.313,2.687-6,6-6s6,2.687,6,6v11.489
						C207.149,219.867,204.463,222.554,201.149,222.554z"/>
				</g>
				<g>
					<path class="st2" d="M254.331,222.554c-3.313,0-6-2.687-6-6v-11.489c0-3.313,2.687-6,6-6s6,2.687,6,6v11.489
						C260.331,219.867,257.645,222.554,254.331,222.554z"/>
				</g>
			</g>
			<g>
				<path class="st2" d="M227.74,295.566c-35.972,0-65.236-29.265-65.236-65.235v-27.556c0-3.34,0.257-6.704,0.765-9.997
					c0.395-2.563,2.392-4.583,4.95-5.007c16.841-2.787,58.267-11.733,79.156-34.546c1.418-1.549,3.541-2.247,5.604-1.831
					c2.06,0.412,3.753,1.872,4.466,3.848c7.422,20.588,27.674,31.773,31.658,33.807c1.74,0.889,2.939,2.569,3.213,4.504
					c0.438,3.094,0.66,6.196,0.66,9.223v27.556C292.976,266.302,263.711,295.566,227.74,295.566z M174.648,198.834
					c-0.096,1.312-0.145,2.629-0.145,3.941v27.556c0,29.354,23.882,53.235,53.236,53.235s53.235-23.881,53.235-53.235v-27.556
					c0-1.51-0.068-3.046-0.204-4.593c-7.503-4.273-22.149-14.221-30.962-30.678C237.77,177.834,215.062,191.464,174.648,198.834z"/>
			</g>
			<g>
				<g>
					<path class="st5" d="M257.99,296.399h-60.499c-7.51,0-13.598-6.088-13.598-13.598v-28.338c0-7.51,6.088-13.598,13.598-13.598
						h60.499c7.51,0,13.598,6.088,13.598,13.598V282.8C271.588,290.31,265.5,296.399,257.99,296.399z"/>
				</g>
				<g>
					<path class="st2" d="M257.989,302.398H197.49c-10.807,0-19.598-8.792-19.598-19.599v-28.338
						c0-10.807,8.791-19.599,19.598-19.599h60.499c10.807,0,19.599,8.792,19.599,19.599V282.8
						C277.588,293.606,268.796,302.398,257.989,302.398z M197.49,246.863c-4.189,0-7.598,3.409-7.598,7.599V282.8
						c0,4.189,3.408,7.599,7.598,7.599h60.499c4.189,0,7.599-3.409,7.599-7.599v-28.338c0-4.189-3.409-7.599-7.599-7.599H197.49z"/>
				</g>
			</g>
			<g>
				<path class="st2" d="M257.983,246.864c-1.066,0-2.146-0.284-3.122-0.881c-2.828-1.728-3.72-5.42-1.992-8.248l28.386-46.47
					c1.728-2.828,5.421-3.72,8.248-1.992s3.72,5.42,1.992,8.248l-28.386,46.47C261.979,245.843,260.005,246.864,257.983,246.864z"/>
			</g>
			<g>
				<path class="st2" d="M197.496,246.864c-2.039,0-4.026-1.039-5.151-2.915l-28.292-47.172c-1.704-2.842-0.782-6.527,2.06-8.231
					c2.842-1.703,6.527-0.782,8.231,2.06l28.292,47.172c1.704,2.842,0.782,6.527-2.06,8.231
					C199.61,246.588,198.546,246.864,197.496,246.864z"/>
			</g>
		</g>
	</g>
</g>
</svg>
