<?xml version="1.0" encoding="utf-8"?>
<!-- Generator: Adobe Illustrator 22.1.0, SVG Export Plug-In . SVG Version: 6.00 Build 0)  -->
<svg version="1.1" id="Icon_Set" xmlns="http://www.w3.org/2000/svg" xmlns:xlink="http://www.w3.org/1999/xlink" x="0px" y="0px"
	 viewBox="0 0 512 512" style="enable-background:new 0 0 512 512;" xml:space="preserve">
<style type="text/css">
	.st0{fill:#F0C48A;}
	.st1{fill:#FD919E;}
	.st2{fill:#4C4372;}
	.st3{fill:#D3E6F8;}
	.st4{fill:#A4CFF2;}
	.st5{fill:#7BABF1;}
	.st6{fill:#FFFFFF;}
	.st7{fill:#E8677D;}
	.st8{fill:none;stroke:#4C4372;stroke-width:12;stroke-linecap:round;stroke-linejoin:round;stroke-miterlimit:10;}
</style>
<g id="Gall_Bladder">
	<g>
		<g>
			<circle class="st0" cx="256" cy="256" r="207"/>
		</g>
	</g>
	<g>
		<g>
			<path class="st5" d="M412.518,142.31c-4.245-5.445-12.102-6.415-17.544-2.171l-14.156,11.039v-27.326
				c0-6.903-5.597-12.5-12.5-12.5s-12.5,5.597-12.5,12.5v46.822l-31.509,24.571v-81.394c0-6.903-5.597-12.5-12.5-12.5
				s-12.5,5.597-12.5,12.5v80.628c-9.426-5.644-21.339-10.354-34.704-10.189c-18.896,0.278-36.032,9.966-50.935,28.792
				c-4.285,5.412-3.37,13.274,2.043,17.559c2.296,1.817,5.032,2.7,7.75,2.7c3.688-0.001,7.342-1.626,9.809-4.743
				c9.982-12.61,20.612-19.107,31.594-19.309c0.187-0.003,0.37-0.005,0.556-0.005c14.979,0,28.215,11.037,33.888,16.546v172.318
				c0,6.903,5.597,12.5,12.5,12.5s12.5-5.597,12.5-12.5V226.949l86.038-67.096C415.792,155.607,416.763,147.753,412.518,142.31z"/>
		</g>
		<g>
			<path class="st2" d="M311.81,416.648c-10.201,0-18.5-8.299-18.5-18.5V228.433c-5.502-4.961-16.336-13.148-27.888-13.148
				l-0.462,0.004c-9.084,0.167-18.168,5.897-26.983,17.033c-3.528,4.459-8.817,7.018-14.511,7.02c-4.146,0-8.221-1.419-11.476-3.996
				c-3.875-3.066-6.323-7.458-6.895-12.367c-0.571-4.908,0.804-9.746,3.871-13.62c16.075-20.308,34.766-30.761,55.551-31.066
				c9.578-0.131,19.235,1.99,28.792,6.285v-70.725c0-10.201,8.299-18.5,18.5-18.5s18.5,8.299,18.5,18.5v69.105l19.509-15.213
				v-43.893c0-10.201,8.299-18.5,18.5-18.5s18.5,8.299,18.5,18.5v15.039l4.467-3.483c3.895-3.039,8.744-4.381,13.646-3.771
				c4.905,0.606,9.279,3.087,12.318,6.984l0,0c6.272,8.043,4.832,19.691-3.213,25.965l-83.728,65.294v168.27
				C330.31,408.35,322.011,416.648,311.81,416.648z M265.422,203.284c16.777,0,31.052,11.429,38.067,18.241
				c1.164,1.13,1.82,2.683,1.82,4.305v172.318c0,3.584,2.916,6.5,6.5,6.5s6.5-2.916,6.5-6.5V226.949
				c0-1.849,0.853-3.595,2.311-4.731l86.038-67.096c2.826-2.204,3.333-6.297,1.129-9.123c0,0,0,0-0.001,0
				c-1.066-1.369-2.604-2.24-4.327-2.454c-1.72-0.21-3.427,0.258-4.795,1.325l-14.156,11.039c-1.807,1.41-4.26,1.668-6.322,0.66
				c-2.061-1.006-3.367-3.099-3.367-5.392v-27.326c0-3.584-2.916-6.5-6.5-6.5s-6.5,2.916-6.5,6.5v46.822
				c0,1.849-0.853,3.595-2.311,4.731l-31.509,24.571c-1.807,1.41-4.261,1.668-6.322,0.66c-2.061-1.006-3.367-3.099-3.367-5.392
				v-81.394c0-3.584-2.916-6.5-6.5-6.5s-6.5,2.916-6.5,6.5v80.628c0,2.16-1.161,4.154-3.041,5.22
				c-1.881,1.065-4.187,1.038-6.041-0.071c-10.563-6.325-21.162-9.508-31.548-9.338c-16.991,0.25-32.574,9.171-46.305,26.516
				c-1.077,1.361-1.561,3.061-1.359,4.785c0.2,1.725,1.061,3.268,2.422,4.345c1.161,0.92,2.554,1.405,4.026,1.405
				c2.003-0.001,3.863-0.899,5.104-2.467c11.151-14.087,23.327-21.349,36.188-21.584
				C264.99,203.286,265.205,203.284,265.422,203.284z"/>
		</g>
		<g>
			<path class="st3" d="M212.615,303.241c1.401-16.457,9.001-31.143,21.02-41.954c2.62-2.357,5.011-5.103,7.079-8.213
				c11.738-17.653,8.645-40.348-6.909-50.689s-37.677-4.413-49.415,13.24c-2.068,3.11-3.675,6.377-4.835,9.705
				c-5.319,15.265-15.922,27.956-30.555,35.615c-15.762,8.249-30.935,21.626-40.863,36.557
				c-20.946,31.502-10.606,57.986,13.301,73.882c23.907,15.896,52.329,15.184,73.275-16.318
				C204.642,340.134,211.106,320.967,212.615,303.241z"/>
		</g>
		<g>
			<path class="st4" d="M233.806,202.385c-2.044-1.359-4.204-2.43-6.436-3.237c7.574,11.638,7.377,28.308-1.704,41.965
				c-2.068,3.11-4.459,5.856-7.079,8.213c-12.019,10.811-19.619,25.498-21.02,41.954c-1.509,17.726-7.974,36.893-17.901,51.824
				c-20.017,30.104-46.858,32.078-70.065,18.321c3.399,3.663,7.382,6.995,11.839,9.958c23.907,15.896,52.329,15.185,73.275-16.317
				c9.928-14.932,16.393-34.099,17.901-51.824c1.401-16.457,9.001-31.144,21.02-41.954c2.62-2.356,5.011-5.103,7.079-8.213
				C252.452,235.421,249.359,212.727,233.806,202.385z"/>
		</g>
		<g>
			<path class="st2" d="M152.104,387.584c-11.253,0-22.855-3.804-33.986-11.205c-13.817-9.187-22.804-21.188-25.988-34.709
				c-3.52-14.94,0.289-31.362,11.013-47.491c10.375-15.602,26.076-29.653,43.078-38.551c12.954-6.779,22.781-18.24,27.671-32.272
				c1.347-3.866,3.199-7.586,5.505-11.053c6.485-9.755,15.975-16.712,26.72-19.591c11.022-2.952,22.035-1.292,31.013,4.677
				c18.283,12.156,22.134,38.627,8.583,59.008c-2.306,3.467-5.019,6.613-8.062,9.352c-11.048,9.938-17.815,23.434-19.055,38.002l0,0
				c-1.628,19.121-8.511,39.036-18.884,54.638c-10.724,16.129-24.394,25.993-39.531,28.528
				C157.516,387.362,154.818,387.584,152.104,387.584z M216.697,203.294c-2.449,0-4.957,0.334-7.477,1.009
				c-7.922,2.122-14.965,7.323-19.833,14.645c-1.748,2.629-3.149,5.44-4.165,8.356c-5.897,16.923-17.772,30.758-33.438,38.957
				c-15.046,7.873-29.494,20.794-38.65,34.562c-8.966,13.484-12.103,26.302-9.325,38.096c2.474,10.5,9.719,19.998,20.953,27.468
				c11.232,7.468,22.791,10.473,33.435,8.694c11.95-2.001,22.556-9.854,31.521-23.338c9.153-13.768,15.479-32.09,16.919-49.011
				c1.499-17.618,9.663-33.922,22.986-45.906c2.297-2.065,4.348-4.445,6.096-7.074c9.887-14.87,7.538-33.878-5.235-42.371
				C226.416,204.677,221.681,203.294,216.697,203.294z M212.615,303.241h0.01H212.615z"/>
		</g>
	</g>
</g>
</svg>
