<?xml version="1.0" encoding="utf-8"?>
<!-- Generator: Adobe Illustrator 22.1.0, SVG Export Plug-In . SVG Version: 6.00 Build 0)  -->
<svg version="1.1" id="Icon_Set" xmlns="http://www.w3.org/2000/svg" xmlns:xlink="http://www.w3.org/1999/xlink" x="0px" y="0px"
	 viewBox="0 0 512 512" style="enable-background:new 0 0 512 512;" xml:space="preserve">
<style type="text/css">
	.st0{fill:#F0C48A;}
	.st1{fill:#FD919E;}
	.st2{fill:#4C4372;}
	.st3{fill:#D3E6F8;}
	.st4{fill:#A4CFF2;}
	.st5{fill:#7BABF1;}
	.st6{fill:#FFFFFF;}
	.st7{fill:#E8677D;}
	.st8{fill:none;stroke:#4C4372;stroke-width:12;stroke-linecap:round;stroke-linejoin:round;stroke-miterlimit:10;}
</style>
<g id="Plaster">
	<g>
		<g>
			<circle class="st0" cx="256" cy="256" r="207"/>
		</g>
	</g>
	<g>
		<g>
			<path class="st1" d="M388.178,388.178L388.178,388.178c-26.822,26.822-70.31,26.822-97.132,0L123.822,220.954
				c-26.822-26.822-26.822-70.31,0-97.132l0,0c26.822-26.822,70.31-26.822,97.132,0l167.224,167.224
				C415,317.868,415,361.356,388.178,388.178z"/>
		</g>
		<g>
			
				<rect x="247.099" y="299.92" transform="matrix(0.7071 -0.7071 0.7071 0.7071 -130.801 315.7816)" class="st7" width="137.365" height="31.723"/>
		</g>
		<g>
			<path class="st2" d="M339.611,414.259c-19.124,0-38.249-7.279-52.808-21.839L119.58,225.197
				c-29.119-29.119-29.119-76.499,0-105.617c29.117-29.119,76.499-29.12,105.616,0L392.42,286.803
				c29.119,29.119,29.119,76.499,0,105.617C377.861,406.98,358.736,414.259,339.611,414.259z M172.388,109.735
				c-16.051,0-32.103,6.11-44.323,18.33c-24.439,24.44-24.439,64.207,0,88.646l167.224,167.224c24.441,24.44,64.206,24.441,88.647,0
				c24.439-24.44,24.439-64.207,0-88.646L216.712,128.065C204.491,115.845,188.439,109.735,172.388,109.735z"/>
		</g>
		<g>
			<path class="st3" d="M123.822,388.178L123.822,388.178c-26.822-26.822-26.822-70.31,0-97.132l167.224-167.224
				c26.822-26.822,70.31-26.822,97.132,0l0,0c26.822,26.822,26.822,70.31,0,97.132L220.954,388.178
				C194.132,415,150.644,415,123.822,388.178z"/>
		</g>
		<g>
			<g>
				<g>
					<circle class="st5" cx="313.404" cy="167.752" r="13.371"/>
				</g>
				<g>
					<circle class="st5" cx="344.248" cy="198.596" r="13.371"/>
				</g>
				<g>
					<circle class="st5" cx="343.458" cy="137.697" r="13.371"/>
				</g>
				<g>
					<circle class="st5" cx="374.303" cy="168.542" r="13.371"/>
				</g>
			</g>
			<g>
				<g>
					<circle class="st5" cx="137.697" cy="343.458" r="13.371"/>
				</g>
				<g>
					<circle class="st5" cx="168.542" cy="374.303" r="13.371"/>
				</g>
				<g>
					<circle class="st5" cx="167.752" cy="313.404" r="13.371"/>
				</g>
				<g>
					<circle class="st5" cx="198.596" cy="344.248" r="13.371"/>
				</g>
			</g>
		</g>
		<g>
			<path class="st2" d="M172.389,414.259c-19.125,0-38.25-7.279-52.809-21.839c-29.119-29.119-29.119-76.499,0-105.617
				L286.804,119.58c29.118-29.119,76.5-29.118,105.616,0c29.119,29.119,29.119,76.499,0,105.617L225.196,392.42
				C210.638,406.98,191.513,414.259,172.389,414.259z M339.612,109.735c-16.052,0-32.104,6.11-44.324,18.33L128.064,295.289
				c-24.439,24.44-24.439,64.207,0,88.646c24.443,24.441,64.208,24.44,88.647,0l167.224-167.224
				c24.439-24.44,24.439-64.207,0-88.646C371.715,115.845,355.663,109.735,339.612,109.735z"/>
		</g>
		<g>
			<g>
				<g>
					<path class="st2" d="M313.403,187.114c-4.961,0-9.921-1.888-13.697-5.665c-7.553-7.553-7.553-19.842-0.001-27.396
						c7.555-7.553,19.843-7.553,27.396,0c7.553,7.553,7.553,19.843,0,27.396C323.324,185.226,318.364,187.114,313.403,187.114z
						 M313.403,160.383c-1.888,0-3.775,0.718-5.213,2.156c-2.873,2.874-2.874,7.551,0,10.425c2.875,2.874,7.551,2.874,10.426,0
						c2.874-2.874,2.873-7.551-0.001-10.425C317.179,161.102,315.291,160.383,313.403,160.383z"/>
				</g>
				<g>
					<path class="st2" d="M344.248,217.968c-5.174,0-10.038-2.015-13.697-5.674c-7.554-7.553-7.554-19.842,0-27.395
						c3.659-3.659,8.523-5.674,13.697-5.674c5.175,0,10.039,2.015,13.698,5.674c3.658,3.658,5.674,8.523,5.674,13.698
						c0,5.174-2.016,10.039-5.674,13.697l0,0c-0.001,0-0.001,0-0.001,0C354.287,215.953,349.423,217.968,344.248,217.968z
						 M344.248,191.225c-1.969,0-3.82,0.767-5.213,2.159c-2.874,2.874-2.874,7.55,0,10.424c1.393,1.393,3.244,2.159,5.213,2.159
						s3.82-0.767,5.212-2.159c0.001,0,0.001,0,0.001,0c1.393-1.392,2.159-3.243,2.159-5.211c0-1.969-0.767-3.82-2.159-5.212
						C348.068,191.992,346.217,191.225,344.248,191.225z"/>
				</g>
				<g>
					<path class="st2" d="M343.458,157.069c-5.175,0-10.039-2.015-13.698-5.674c-3.658-3.658-5.674-8.523-5.674-13.698
						c0-5.174,2.016-10.039,5.675-13.698c3.658-3.658,8.522-5.673,13.697-5.673c5.174,0,10.038,2.015,13.697,5.674
						c7.554,7.553,7.554,19.842,0,27.395l0,0C353.496,155.054,348.632,157.069,343.458,157.069z M352.913,147.152h0.01H352.913z
						 M343.458,130.326c-1.969,0-3.82,0.767-5.212,2.159c-1.394,1.393-2.16,3.244-2.16,5.212c0,1.969,0.767,3.82,2.159,5.212
						c1.393,1.393,3.244,2.16,5.213,2.16s3.82-0.767,5.213-2.159c2.874-2.874,2.874-7.55,0-10.424
						C347.278,131.093,345.427,130.326,343.458,130.326z"/>
				</g>
				<g>
					<path class="st2" d="M374.303,187.905c-4.961,0-9.921-1.888-13.697-5.665c-7.553-7.553-7.553-19.843,0-27.396
						s19.842-7.553,27.395,0s7.553,19.842,0.001,27.396c0,0,0,0-0.001,0C384.224,186.017,379.264,187.905,374.303,187.905z
						 M383.758,177.998h0.01H383.758z M374.303,161.174c-1.888,0-3.775,0.719-5.213,2.156c-2.874,2.874-2.873,7.551,0.001,10.425
						c2.873,2.874,7.55,2.875,10.425,0c2.873-2.874,2.874-7.551,0-10.425C378.078,161.893,376.19,161.174,374.303,161.174z"/>
				</g>
			</g>
			<g>
				<g>
					<path class="st2" d="M137.697,362.82c-4.961,0-9.921-1.888-13.697-5.665c-7.553-7.553-7.553-19.842-0.001-27.396
						c7.555-7.553,19.843-7.553,27.396,0c7.553,7.553,7.553,19.843,0,27.396C147.618,360.932,142.658,362.82,137.697,362.82z
						 M137.697,336.089c-1.888,0-3.775,0.718-5.213,2.156c-2.873,2.874-2.874,7.551,0,10.425c2.875,2.874,7.551,2.874,10.426,0
						c2.874-2.874,2.873-7.551-0.001-10.425C141.473,336.808,139.585,336.089,137.697,336.089z"/>
				</g>
				<g>
					<path class="st2" d="M168.542,393.674c-5.174,0-10.038-2.015-13.697-5.674c-7.554-7.553-7.554-19.842,0-27.395
						c3.659-3.659,8.523-5.674,13.697-5.674c5.175,0,10.039,2.015,13.698,5.674c3.658,3.658,5.674,8.523,5.674,13.698
						c0,5.174-2.016,10.039-5.674,13.697l0,0C178.581,391.659,173.717,393.674,168.542,393.674z M168.542,366.931
						c-1.969,0-3.82,0.767-5.213,2.159c-2.874,2.874-2.874,7.55,0,10.424c1.393,1.393,3.244,2.159,5.213,2.159
						s3.82-0.767,5.212-2.159c0.001,0,0.001,0,0.001,0c1.393-1.392,2.159-3.243,2.159-5.211c0-1.969-0.767-3.82-2.159-5.212
						C172.362,367.698,170.511,366.931,168.542,366.931z"/>
				</g>
				<g>
					<path class="st2" d="M167.752,332.775c-5.175,0-10.039-2.015-13.698-5.674c-3.658-3.658-5.674-8.523-5.674-13.698
						c0-5.174,2.016-10.039,5.675-13.698c3.658-3.658,8.522-5.673,13.697-5.673c5.174,0,10.038,2.015,13.697,5.674
						c7.554,7.553,7.554,19.842,0,27.395l0,0C177.79,330.76,172.926,332.775,167.752,332.775z M177.207,322.858h0.01H177.207z
						 M167.752,306.032c-1.969,0-3.82,0.767-5.212,2.159c-1.394,1.393-2.16,3.244-2.16,5.212c0,1.969,0.767,3.82,2.159,5.212
						c1.393,1.393,3.244,2.16,5.213,2.16s3.82-0.767,5.213-2.159c2.874-2.874,2.874-7.55,0-10.424
						C171.572,306.799,169.721,306.032,167.752,306.032z"/>
				</g>
				<g>
					<path class="st2" d="M198.597,363.611c-4.961,0-9.921-1.888-13.697-5.665c-7.553-7.553-7.553-19.843,0-27.396
						s19.842-7.553,27.395,0s7.553,19.842,0.001,27.396c0,0,0,0-0.001,0C208.518,361.723,203.558,363.611,198.597,363.611z
						 M208.052,353.704h0.01H208.052z M198.597,336.88c-1.888,0-3.775,0.719-5.213,2.156c-2.874,2.874-2.873,7.551,0.001,10.425
						c2.873,2.874,7.55,2.875,10.425,0c2.873-2.874,2.874-7.551,0-10.425C202.372,337.599,200.484,336.88,198.597,336.88z"/>
				</g>
			</g>
		</g>
		<g>
			<g>
				<g>
					<path class="st2" d="M313.403,187.114c-4.961,0-9.921-1.888-13.697-5.665c-7.553-7.553-7.553-19.842-0.001-27.396
						c7.555-7.553,19.843-7.553,27.396,0c7.553,7.553,7.553,19.843,0,27.396C323.324,185.226,318.364,187.114,313.403,187.114z
						 M313.403,160.383c-1.888,0-3.775,0.718-5.213,2.156c-2.873,2.874-2.874,7.551,0,10.425c2.875,2.874,7.551,2.874,10.426,0
						c2.874-2.874,2.873-7.551-0.001-10.425C317.179,161.102,315.291,160.383,313.403,160.383z"/>
				</g>
				<g>
					<path class="st2" d="M344.248,217.968c-5.174,0-10.038-2.015-13.697-5.674c-7.554-7.553-7.554-19.842,0-27.395
						c3.659-3.659,8.523-5.674,13.697-5.674c5.175,0,10.039,2.015,13.698,5.674c3.658,3.658,5.674,8.523,5.674,13.698
						c0,5.174-2.016,10.039-5.674,13.697l0,0c-0.001,0-0.001,0-0.001,0C354.287,215.953,349.423,217.968,344.248,217.968z
						 M344.248,191.225c-1.969,0-3.82,0.767-5.213,2.159c-2.874,2.874-2.874,7.55,0,10.424c1.393,1.393,3.244,2.159,5.213,2.159
						s3.82-0.767,5.212-2.159c0.001,0,0.001,0,0.001,0c1.393-1.392,2.159-3.243,2.159-5.211c0-1.969-0.767-3.82-2.159-5.212
						C348.068,191.992,346.217,191.225,344.248,191.225z"/>
				</g>
				<g>
					<path class="st2" d="M343.458,157.069c-5.175,0-10.039-2.015-13.698-5.674c-3.658-3.658-5.674-8.523-5.674-13.698
						c0-5.174,2.016-10.039,5.675-13.698c3.658-3.658,8.522-5.673,13.697-5.673c5.174,0,10.038,2.015,13.697,5.674
						c7.554,7.553,7.554,19.842,0,27.395l0,0C353.496,155.054,348.632,157.069,343.458,157.069z M352.913,147.152h0.01H352.913z
						 M343.458,130.326c-1.969,0-3.82,0.767-5.212,2.159c-1.394,1.393-2.16,3.244-2.16,5.212c0,1.969,0.767,3.82,2.159,5.212
						c1.393,1.393,3.244,2.16,5.213,2.16s3.82-0.767,5.213-2.159c2.874-2.874,2.874-7.55,0-10.424
						C347.278,131.093,345.427,130.326,343.458,130.326z"/>
				</g>
				<g>
					<path class="st2" d="M374.303,187.905c-4.961,0-9.921-1.888-13.697-5.665c-7.553-7.553-7.553-19.843,0-27.396
						s19.842-7.553,27.395,0s7.553,19.842,0.001,27.396c0,0,0,0-0.001,0C384.224,186.017,379.264,187.905,374.303,187.905z
						 M383.758,177.998h0.01H383.758z M374.303,161.174c-1.888,0-3.775,0.719-5.213,2.156c-2.874,2.874-2.873,7.551,0.001,10.425
						c2.873,2.874,7.55,2.875,10.425,0c2.873-2.874,2.874-7.551,0-10.425C378.078,161.893,376.19,161.174,374.303,161.174z"/>
				</g>
			</g>
			<g>
				<g>
					<path class="st2" d="M137.697,362.82c-4.961,0-9.921-1.888-13.697-5.665c-7.553-7.553-7.553-19.842-0.001-27.396
						c7.555-7.553,19.843-7.553,27.396,0c7.553,7.553,7.553,19.843,0,27.396C147.618,360.932,142.658,362.82,137.697,362.82z
						 M137.697,336.089c-1.888,0-3.775,0.718-5.213,2.156c-2.873,2.874-2.874,7.551,0,10.425c2.875,2.874,7.551,2.874,10.426,0
						c2.874-2.874,2.873-7.551-0.001-10.425C141.473,336.808,139.585,336.089,137.697,336.089z"/>
				</g>
				<g>
					<path class="st2" d="M168.542,393.674c-5.174,0-10.038-2.015-13.697-5.674c-7.554-7.553-7.554-19.842,0-27.395
						c3.659-3.659,8.523-5.674,13.697-5.674c5.175,0,10.039,2.015,13.698,5.674c3.658,3.658,5.674,8.523,5.674,13.698
						c0,5.174-2.016,10.039-5.674,13.697l0,0C178.581,391.659,173.717,393.674,168.542,393.674z M168.542,366.931
						c-1.969,0-3.82,0.767-5.213,2.159c-2.874,2.874-2.874,7.55,0,10.424c1.393,1.393,3.244,2.159,5.213,2.159
						s3.82-0.767,5.212-2.159c0.001,0,0.001,0,0.001,0c1.393-1.392,2.159-3.243,2.159-5.211c0-1.969-0.767-3.82-2.159-5.212
						C172.362,367.698,170.511,366.931,168.542,366.931z"/>
				</g>
				<g>
					<path class="st2" d="M167.752,332.775c-5.175,0-10.039-2.015-13.698-5.674c-3.658-3.658-5.674-8.523-5.674-13.698
						c0-5.174,2.016-10.039,5.675-13.698c3.658-3.658,8.522-5.673,13.697-5.673c5.174,0,10.038,2.015,13.697,5.674
						c7.554,7.553,7.554,19.842,0,27.395l0,0C177.79,330.76,172.926,332.775,167.752,332.775z M177.207,322.858h0.01H177.207z
						 M167.752,306.032c-1.969,0-3.82,0.767-5.212,2.159c-1.394,1.393-2.16,3.244-2.16,5.212c0,1.969,0.767,3.82,2.159,5.212
						c1.393,1.393,3.244,2.16,5.213,2.16s3.82-0.767,5.213-2.159c2.874-2.874,2.874-7.55,0-10.424
						C171.572,306.799,169.721,306.032,167.752,306.032z"/>
				</g>
				<g>
					<path class="st2" d="M198.597,363.611c-4.961,0-9.921-1.888-13.697-5.665c-7.553-7.553-7.553-19.843,0-27.396
						s19.842-7.553,27.395,0s7.553,19.842,0.001,27.396c0,0,0,0-0.001,0C208.518,361.723,203.558,363.611,198.597,363.611z
						 M208.052,353.704h0.01H208.052z M198.597,336.88c-1.888,0-3.775,0.719-5.213,2.156c-2.874,2.874-2.873,7.551,0.001,10.425
						c2.873,2.874,7.55,2.875,10.425,0c2.873-2.874,2.874-7.551,0-10.425C202.372,337.599,200.484,336.88,198.597,336.88z"/>
				</g>
			</g>
		</g>
		<g>
			<path class="st6" d="M225.796,329.015l-42.811-42.811c-7.766-7.766-7.766-20.357,0-28.123l75.096-75.096
				c7.766-7.766,20.357-7.766,28.123,0l42.811,42.811c7.766,7.766,7.766,20.357,0,28.123l-75.096,75.096
				C246.153,336.781,233.562,336.781,225.796,329.015z"/>
		</g>
		<g>
			<path class="st2" d="M239.857,340.839c-6.915,0-13.415-2.692-18.304-7.582l-42.811-42.811c-4.89-4.889-7.583-11.39-7.583-18.304
				s2.693-13.415,7.583-18.304l75.096-75.096c4.889-4.889,11.389-7.582,18.304-7.582s13.415,2.692,18.304,7.582l42.811,42.811
				c4.89,4.889,7.583,11.39,7.583,18.304s-2.693,13.415-7.583,18.304l-75.096,75.096
				C253.272,338.147,246.772,340.839,239.857,340.839z M230.038,324.772c2.623,2.623,6.11,4.067,9.819,4.067
				s7.196-1.444,9.819-4.067l75.096-75.096c2.623-2.623,4.067-6.11,4.067-9.819s-1.444-7.196-4.067-9.819l-42.811-42.811
				c-2.623-2.623-6.11-4.067-9.819-4.067s-7.196,1.444-9.819,4.067l-75.096,75.096c-2.623,2.623-4.067,6.11-4.067,9.819
				s1.444,7.196,4.067,9.819L230.038,324.772z"/>
		</g>
	</g>
</g>
</svg>
