<?xml version="1.0" encoding="utf-8"?>
<!-- Generator: Adobe Illustrator 22.1.0, SVG Export Plug-In . SVG Version: 6.00 Build 0)  -->
<svg version="1.1" id="Icon_Set" xmlns="http://www.w3.org/2000/svg" xmlns:xlink="http://www.w3.org/1999/xlink" x="0px" y="0px"
	 viewBox="0 0 512 512" style="enable-background:new 0 0 512 512;" xml:space="preserve">
<style type="text/css">
	.st0{fill:#F0C48A;}
	.st1{fill:#FD919E;}
	.st2{fill:#4C4372;}
	.st3{fill:#D3E6F8;}
	.st4{fill:#A4CFF2;}
	.st5{fill:#7BABF1;}
	.st6{fill:#FFFFFF;}
	.st7{fill:#E8677D;}
	.st8{fill:none;stroke:#4C4372;stroke-width:12;stroke-linecap:round;stroke-linejoin:round;stroke-miterlimit:10;}
</style>
<g id="Ambulance">
	<g>
		<g>
			<circle class="st0" cx="256" cy="256" r="207"/>
		</g>
	</g>
	<g>
		<g>
			<path class="st1" d="M263.598,119.737L263.598,119.737c13.197,0,23.896,10.699,23.896,23.896v37.714h-47.792v-37.714
				C239.702,130.436,250.401,119.737,263.598,119.737z"/>
		</g>
		<g>
			<path class="st6" d="M326.877,181.347H140.226c-11.829,0-21.418,9.589-21.418,21.418v65.298v54.41h274.384v-54.41
				L326.877,181.347z"/>
		</g>
		<g>
			<rect x="239.702" y="178.246" class="st3" width="23.896" height="144.226"/>
		</g>
		<g>
			<path class="st5" d="M346.225,206.647h-26.578c-16.959,0-30.708,13.748-30.708,30.708v0c0,16.959,13.748,30.708,30.708,30.708
				h73.544L346.225,206.647z"/>
		</g>
		<g>
			<path class="st4" d="M411.365,361.406H100.635c-3.989,0-7.223-3.234-7.223-7.223v-24.489c0-3.989,3.234-7.223,7.223-7.223
				h310.731c3.989,0,7.223,3.234,7.223,7.223v24.489C418.588,358.173,415.354,361.406,411.365,361.406z"/>
		</g>
		<g>
			<path class="st7" d="M263.598,119.737L263.598,119.737c-2.748,0-5.384,0.469-7.841,1.323
				c9.344,3.246,16.055,12.123,16.055,22.573v37.714h15.682v-37.714C287.494,130.436,276.795,119.737,263.598,119.737z"/>
		</g>
		<g>
			<polygon class="st1" points="228.238,236.321 204.117,236.321 204.117,212.2 178.928,212.2 178.928,236.321 154.807,236.321 
				154.807,261.511 178.928,261.511 178.928,285.632 204.117,285.632 204.117,261.511 228.238,261.511 			"/>
		</g>
		<g>
			<path class="st2" d="M204.117,291.632h-25.189c-3.313,0-6-2.686-6-6v-18.121h-18.121c-3.313,0-6-2.686-6-6v-25.189
				c0-3.314,2.687-6,6-6h18.121V212.2c0-3.314,2.687-6,6-6h25.189c3.313,0,6,2.686,6,6v18.121h18.121c3.313,0,6,2.686,6,6v25.189
				c0,3.314-2.687,6-6,6h-18.121v18.121C210.117,288.946,207.431,291.632,204.117,291.632z M184.928,279.632h13.189v-18.121
				c0-3.314,2.687-6,6-6h18.121v-13.189h-18.121c-3.313,0-6-2.686-6-6V218.2h-13.189v18.121c0,3.314-2.687,6-6,6h-18.121v13.189
				h18.121c3.313,0,6,2.686,6,6V279.632z"/>
		</g>
		<g>
			<path class="st2" d="M393.191,328.472H118.809c-3.313,0-6-2.686-6-6V202.764c0-15.118,12.299-27.418,27.417-27.418h186.651
				c1.869,0,3.631,0.871,4.766,2.355l66.314,86.715c0.801,1.046,1.234,2.327,1.234,3.645v54.41
				C399.191,325.786,396.505,328.472,393.191,328.472z M124.809,316.472h262.383v-46.379l-63.279-82.747H140.226
				c-8.501,0-15.417,6.916-15.417,15.418V316.472z"/>
		</g>
		<g>
			<path class="st2" d="M411.365,367.406h-310.73c-7.291,0-13.223-5.932-13.223-13.222v-24.489c0-7.291,5.932-13.223,13.223-13.223
				h310.73c7.291,0,13.223,5.932,13.223,13.223v24.489C424.588,361.475,418.656,367.406,411.365,367.406z M100.635,328.472
				c-0.674,0-1.223,0.549-1.223,1.223v24.489c0,0.674,0.549,1.222,1.223,1.222h310.73c0.674,0,1.223-0.548,1.223-1.222v-24.489
				c0-0.674-0.549-1.223-1.223-1.223H100.635z"/>
		</g>
		<g>
			<path class="st2" d="M287.494,187.347h-47.792c-3.313,0-6-2.686-6-6v-37.714c0-16.485,13.411-29.896,29.896-29.896
				c16.485,0,29.896,13.411,29.896,29.896v37.714C293.494,184.66,290.808,187.347,287.494,187.347z M245.702,175.347h35.792v-31.714
				c0-9.868-8.028-17.896-17.896-17.896c-9.867,0-17.896,8.028-17.896,17.896V175.347z"/>
		</g>
		<g>
			<path class="st2" d="M393.191,274.062h-73.544c-20.241,0-36.708-16.467-36.708-36.708s16.467-36.708,36.708-36.708h26.577
				c1.869,0,3.631,0.871,4.766,2.355l46.967,61.415c1.387,1.813,1.625,4.256,0.613,6.303
				C397.56,272.767,395.475,274.062,393.191,274.062z M319.647,212.647c-13.624,0-24.708,11.084-24.708,24.708
				s11.084,24.708,24.708,24.708h61.402l-37.79-49.415H319.647z"/>
		</g>
		<g>
			<g>
				<circle class="st5" cx="176.094" cy="351.889" r="40.373"/>
			</g>
			<g>
				<path class="st2" d="M176.094,398.263c-25.57,0-46.373-20.803-46.373-46.373s20.803-46.373,46.373-46.373
					s46.373,20.803,46.373,46.373S201.664,398.263,176.094,398.263z M176.094,317.516c-18.953,0-34.373,15.42-34.373,34.373
					s15.42,34.373,34.373,34.373s34.373-15.42,34.373-34.373S195.047,317.516,176.094,317.516z"/>
			</g>
			<g>
				<circle class="st6" cx="176.094" cy="351.889" r="17.218"/>
			</g>
			<g>
				<path class="st2" d="M176.094,375.107c-12.803,0-23.218-10.416-23.218-23.218s10.415-23.218,23.218-23.218
					s23.218,10.416,23.218,23.218S188.896,375.107,176.094,375.107z M176.094,340.671c-6.186,0-11.218,5.032-11.218,11.218
					s5.032,11.218,11.218,11.218s11.218-5.032,11.218-11.218S182.279,340.671,176.094,340.671z"/>
			</g>
		</g>
		<g>
			<g>
				<circle class="st5" cx="335.54" cy="351.889" r="40.373"/>
			</g>
			<g>
				<path class="st2" d="M335.539,398.263c-25.57,0-46.373-20.803-46.373-46.373s20.803-46.373,46.373-46.373
					s46.374,20.803,46.374,46.373S361.109,398.263,335.539,398.263z M335.539,317.516c-18.953,0-34.373,15.42-34.373,34.373
					s15.42,34.373,34.373,34.373c18.954,0,34.374-15.42,34.374-34.373S354.493,317.516,335.539,317.516z"/>
			</g>
			<g>
				<circle class="st6" cx="335.54" cy="351.889" r="17.218"/>
			</g>
			<g>
				<path class="st2" d="M335.539,375.107c-12.803,0-23.218-10.416-23.218-23.218s10.415-23.218,23.218-23.218
					s23.219,10.416,23.219,23.218S348.342,375.107,335.539,375.107z M335.539,340.671c-6.186,0-11.218,5.032-11.218,11.218
					s5.032,11.218,11.218,11.218c6.187,0,11.219-5.032,11.219-11.218S341.726,340.671,335.539,340.671z"/>
			</g>
		</g>
		<g>
			<path class="st2" d="M263.598,328.472c-3.313,0-6-2.686-6-6V181.347c0-3.314,2.687-6,6-6s6,2.686,6,6v141.125
				C269.598,325.786,266.911,328.472,263.598,328.472z"/>
		</g>
	</g>
</g>
</svg>
