<?xml version="1.0" encoding="utf-8"?>
<!-- Generator: Adobe Illustrator 22.1.0, SVG Export Plug-In . SVG Version: 6.00 Build 0)  -->
<svg version="1.1" id="Icon_Set" xmlns="http://www.w3.org/2000/svg" xmlns:xlink="http://www.w3.org/1999/xlink" x="0px" y="0px"
	 viewBox="0 0 512 512" style="enable-background:new 0 0 512 512;" xml:space="preserve">
<style type="text/css">
	.st0{fill:#F0C48A;}
	.st1{fill:#FD919E;}
	.st2{fill:#4C4372;}
	.st3{fill:#D3E6F8;}
	.st4{fill:#A4CFF2;}
	.st5{fill:#7BABF1;}
	.st6{fill:#FFFFFF;}
	.st7{fill:#E8677D;}
	.st8{fill:none;stroke:#4C4372;stroke-width:12;stroke-linecap:round;stroke-linejoin:round;stroke-miterlimit:10;}
</style>
<g id="Thyroid">
	<g>
		<g>
			<circle class="st0" cx="256" cy="256" r="207"/>
		</g>
	</g>
	<g>
		<g>
			<path class="st6" d="M292.491,167.908h-71.774c-7.937,0-14.371-6.434-14.371-14.371v-22.32c0-7.937,6.434-14.371,14.371-14.371
				h71.774c7.937,0,14.371,6.434,14.371,14.371v22.32C306.861,161.474,300.427,167.908,292.491,167.908z"/>
		</g>
		<g>
			<path class="st3" d="M292.491,116.847h-25.213v51.061h25.213c7.937,0,14.371-6.434,14.371-14.37v-22.32
				C306.861,123.281,300.427,116.847,292.491,116.847z"/>
		</g>
		<g>
			<path class="st6" d="M279.499,395.153h-45.79c-4.678,0-8.471-3.793-8.471-8.471V167.908h62.731v218.774
				C287.969,391.361,284.177,395.153,279.499,395.153z"/>
		</g>
		<g>
			<path class="st3" d="M279.499,395.153h-12.22V167.908h20.691v218.774C287.969,391.361,284.177,395.153,279.499,395.153z"/>
		</g>
		<g>
			<path class="st2" d="M292.491,173.908h-71.774c-11.232,0-20.371-9.138-20.371-20.37v-22.32c0-11.232,9.138-20.371,20.371-20.371
				h71.774c11.232,0,20.371,9.139,20.371,20.371v22.32C312.861,164.771,303.723,173.908,292.491,173.908z M220.716,122.847
				c-4.616,0-8.371,3.755-8.371,8.371v22.32c0,4.615,3.755,8.37,8.371,8.37h71.774c4.616,0,8.371-3.755,8.371-8.37v-22.32
				c0-4.616-3.755-8.371-8.371-8.371H220.716z"/>
		</g>
		<g>
			<path class="st2" d="M279.499,401.153h-45.79c-7.979,0-14.471-6.491-14.471-14.471V167.908c0-3.313,2.687-6,6-6h62.731
				c3.313,0,6,2.687,6,6v218.774C293.969,394.662,287.478,401.153,279.499,401.153z M231.238,173.908v212.774
				c0,1.362,1.108,2.471,2.471,2.471h45.79c1.362,0,2.471-1.108,2.471-2.471V173.908H231.238z"/>
		</g>
		<g>
			<g>
				<path class="st2" d="M287.969,215.939h-62.731c-3.313,0-6-2.687-6-6s2.687-6,6-6h62.731c3.313,0,6,2.687,6,6
					S291.283,215.939,287.969,215.939z"/>
			</g>
			<g>
				<path class="st2" d="M287.969,308.547h-62.731c-3.313,0-6-2.687-6-6s2.687-6,6-6h62.731c3.313,0,6,2.687,6,6
					S291.283,308.547,287.969,308.547z"/>
			</g>
			<g>
				<path class="st2" d="M287.969,354.85h-62.731c-3.313,0-6-2.687-6-6s2.687-6,6-6h62.731c3.313,0,6,2.687,6,6
					S291.283,354.85,287.969,354.85z"/>
			</g>
		</g>
		<g>
			<path class="st1" d="M353.005,198.574l-50.669,16.329c-8.563,2.759-14.367,10.728-14.367,19.725v0
				c0,11.445-9.278,20.723-20.723,20.723h-22.492c-11.445,0-20.723-9.278-20.723-20.723v0c0-8.996-5.804-16.965-14.367-19.725
				l-50.669-16.329c-35.241-11.358-69.492,19.859-61.443,55.999l18.952,85.101c5.542,24.886,27.619,42.587,53.113,42.587h0
				c30.052,0,54.414-24.362,54.414-54.414v0c0-9.699,7.863-17.561,17.561-17.561h28.816c9.699,0,17.561,7.863,17.561,17.561v0
				c0,30.052,24.362,54.414,54.414,54.414h0c25.495,0,47.572-17.701,53.113-42.587l18.952-85.101
				C422.497,218.433,388.247,187.216,353.005,198.574z"/>
		</g>
		<g>
			<g>
				<path class="st7" d="M200.824,327.846L200.824,327.846c0,26.073-18.342,47.852-42.824,53.166
					c3.756,0.818,7.644,1.249,11.616,1.249h0c30.052,0,54.414-24.362,54.414-54.415l0,0c0-9.698,7.863-17.561,17.561-17.561h-23.206
					C208.687,310.285,200.824,318.148,200.824,327.846z"/>
			</g>
			<g>
				<path class="st7" d="M356.193,197.665c23.714,6.027,41.019,30.103,35.05,56.908l-18.952,85.101
					c-4.678,21.009-21.142,36.897-41.498,41.338c3.736,0.811,7.611,1.249,11.59,1.249h0c25.495,0,47.572-17.701,53.113-42.587
					l18.952-85.101C422.254,219.524,390.276,189.11,356.193,197.665z"/>
			</g>
		</g>
		<g>
			<path class="st2" d="M342.384,388.261c-33.312,0-60.415-27.102-60.415-60.414c0-6.375-5.187-11.562-11.562-11.562h-28.815
				c-6.375,0-11.562,5.187-11.562,11.562c0,33.312-27.102,60.414-60.415,60.414c-13.69,0-27.112-4.716-37.792-13.279
				c-10.681-8.564-18.202-20.64-21.177-34.003l-18.952-85.101c-4.253-19.1,1.841-38.37,16.303-51.551
				c14.462-13.18,34.216-17.466,52.837-11.464l50.669,16.329c11.082,3.571,18.527,13.793,18.527,25.436
				c0,8.118,6.605,14.724,14.723,14.724h22.492c8.118,0,14.723-6.605,14.723-14.724c0-11.643,7.445-21.864,18.527-25.436
				l50.669-16.329l1.84,5.711l-1.84-5.711c18.623-6,38.376-1.716,52.837,11.464c14.461,13.181,20.556,32.451,16.303,51.551
				l-18.952,85.101c-2.976,13.363-10.497,25.438-21.177,34.003C369.496,383.545,356.074,388.261,342.384,388.261z M241.592,304.285
				h28.815c12.992,0,23.562,10.569,23.562,23.562c0,26.695,21.719,48.414,48.415,48.414c22.856,0,42.289-15.581,47.257-37.89
				l18.952-85.103c3.306-14.846-1.432-29.826-12.673-40.072c-11.241-10.245-26.594-13.579-41.073-8.911l0,0l-50.669,16.329
				c-6.105,1.968-10.208,7.6-10.208,14.014c0,14.735-11.988,26.724-26.723,26.724h-22.492c-14.735,0-26.723-11.988-26.723-26.724
				c0-6.414-4.102-12.046-10.208-14.014l-50.669-16.329c-14.48-4.666-29.832-1.334-41.073,8.911
				c-11.242,10.246-15.979,25.227-12.673,40.072l18.952,85.102c4.968,22.31,24.4,37.891,47.257,37.891
				c26.696,0,48.415-21.719,48.415-48.414C218.031,314.854,228.601,304.285,241.592,304.285z"/>
		</g>
		<g>
			<g>
				<g>
					<circle class="st2" cx="158.126" cy="264.392" r="9.041"/>
				</g>
				<g>
					<circle class="st2" cx="161.937" cy="312.514" r="9.041"/>
				</g>
				<g>
					<circle class="st2" cx="192.43" cy="284.403" r="9.041"/>
				</g>
			</g>
			<g>
				<g>
					<circle class="st2" cx="355.082" cy="264.392" r="9.041"/>
				</g>
				<g>
					<circle class="st2" cx="351.27" cy="312.514" r="9.041"/>
				</g>
				<g>
					<circle class="st2" cx="320.777" cy="284.403" r="9.041"/>
				</g>
			</g>
		</g>
	</g>
</g>
</svg>
